<svg width="14" height="14" viewBox="0 0 14 14" fill="none" xmlns="http://www.w3.org/2000/svg">
<path fill-rule="evenodd" clip-rule="evenodd" d="M11.6654 6.99967C11.6654 9.577 9.57603 11.6663 6.9987 11.6663C4.42137 11.6663 2.33203 9.577 2.33203 6.99967C2.33203 4.42235 4.42137 2.33301 6.9987 2.33301C9.57603 2.33301 11.6654 4.42235 11.6654 6.99967ZM13.6654 6.99967C13.6654 10.6816 10.6806 13.6663 6.9987 13.6663C3.3168 13.6663 0.332031 10.6816 0.332031 6.99967C0.332031 3.31778 3.3168 0.333008 6.9987 0.333008C10.6806 0.333008 13.6654 3.31778 13.6654 6.99967ZM6.9987 2.66634C7.55098 2.66634 7.9987 3.11406 7.9987 3.66634V5.99967H10.332C10.8843 5.99967 11.332 6.44739 11.332 6.99967C11.332 7.55196 10.8843 7.99967 10.332 7.99967H7.9987V10.333C7.9987 10.8853 7.55098 11.333 6.9987 11.333C6.44641 11.333 5.9987 10.8853 5.9987 10.333V7.99967H3.66536C3.11308 7.99967 2.66536 7.55196 2.66536 6.99967C2.66536 6.44739 3.11308 5.99967 3.66536 5.99967H5.9987V3.66634C5.9987 3.11406 6.44641 2.66634 6.9987 2.66634Z" fill="#777E91"/>
</svg>
