<svg width="94" height="94" viewBox="0 0 94 94" fill="none" xmlns="http://www.w3.org/2000/svg">
<path d="M38.1193 10.4341L47 1.42451L55.8807 10.4341C56.3259 10.8858 56.9807 11.0612 57.5921 10.8926L69.7877 7.53047L72.9738 19.7733C73.1336 20.3871 73.6129 20.8664 74.2267 21.0262L86.4695 24.2123L83.1074 36.4079C82.9388 37.0193 83.1143 37.6741 83.5659 38.1193L92.5755 47L83.5659 55.8807C83.1143 56.3259 82.9388 56.9807 83.1074 57.5921L86.4695 69.7878L74.2267 72.9738C73.6129 73.1336 73.1336 73.6129 72.9738 74.2267L69.7878 86.4695L57.5921 83.1074C56.9807 82.9388 56.3259 83.1143 55.8807 83.5659L47 92.5755L38.1193 83.5659C37.6741 83.1143 37.0193 82.9388 36.4079 83.1074L24.2123 86.4695L21.0262 74.2267C20.8664 73.6129 20.3871 73.1336 19.7733 72.9738L7.53047 69.7877L10.8926 57.5921C11.0612 56.9807 10.8858 56.3259 10.4341 55.8807L1.42451 47L10.4341 38.1193C10.8858 37.6741 11.0612 37.0193 10.8926 36.4079L7.53047 24.2123L19.7733 21.0262C20.3871 20.8664 20.8664 20.3871 21.0262 19.7733L24.2123 7.53047L36.4079 10.8926C37.0193 11.0612 37.6741 10.8858 38.1193 10.4341ZM86.5369 23.9677L86.5366 23.9689L86.5369 23.9677ZM86.5369 70.0322C86.5368 70.0318 86.5367 70.0313 86.5366 70.0309L86.5369 70.0322ZM70.0323 86.5369L70.0309 86.5366L70.0323 86.5369ZM23.9678 86.5369C23.9682 86.5368 23.9685 86.5367 23.9689 86.5366L23.9678 86.5369Z" fill="#00ACFF" stroke="white" stroke-width="2"/>
<path d="M27.6768 49.1864L33.9313 42.8388L43.9386 52.8363L65.0477 31.4131L71.3023 37.7607L43.9386 65.6903L27.6768 49.1864Z" fill="#00ACFF"/>
<path d="M26.1143 47.6269L32.3688 41.2792L42.3761 51.2768L63.4852 29.8535L69.7398 36.2011L42.3761 64.1307L26.1143 47.6269Z" fill="white"/>
</svg>
