<svg width="56" height="60" viewBox="0 0 56 60" fill="none" xmlns="http://www.w3.org/2000/svg">
<path d="M4.43217 47.0439L23.5367 58.2973C26.3665 59.9641 29.8795 59.9573 32.7027 58.2794L51.5981 47.0493C54.3273 45.4273 56 42.4874 56 39.3126V21.2173C56 18.0953 54.3821 15.1963 51.7249 13.5573L32.8289 1.90155C29.9433 0.121598 26.3022 0.114348 23.4096 1.8828L4.30559 13.5621C1.63107 15.1972 0 18.1061 0 21.2408L0 39.2893C0 42.4766 1.68585 45.4262 4.43217 47.0439Z" fill="#00ACFF"/>
<path d="M19.4962 36H22.8402L18.3282 30.272L22.6802 24.768H19.4642L15.7202 29.696V24.768H12.9842V36H15.7202V31.04L19.4962 36ZM27.1484 32.288V36H29.8844V32.288L33.7724 24.768H30.7004L28.5404 29.472L26.3644 24.768H23.2604L27.1484 32.288ZM34.4108 30.368C34.4108 33.728 36.7468 36.08 40.0588 36.08C42.7308 36.08 44.7468 34.592 45.3868 32.16H42.3788C41.9148 33.12 41.0668 33.6 40.0268 33.6C38.3468 33.6 37.1948 32.352 37.1948 30.368C37.1948 28.384 38.3468 27.136 40.0268 27.136C41.0668 27.136 41.9148 27.616 42.3788 28.576H45.3868C44.7468 26.144 42.7308 24.64 40.0588 24.64C36.7468 24.64 34.4108 27.008 34.4108 30.368Z" fill="white"/>
</svg>
