<svg width="92" height="96" viewBox="0 0 92 96" fill="none" xmlns="http://www.w3.org/2000/svg">
<mask id="path-1-outside-1_78_22955" maskUnits="userSpaceOnUse" x="0" y="0" width="92" height="96" fill="black">
<rect fill="white" width="92" height="96"/>
<path d="M8.10155 75.0804L38.7122 93.0153C43.2463 95.6718 48.8751 95.6608 53.3986 92.9867L83.6743 75.0891C88.0472 72.504 90.7273 67.8185 90.7273 62.7588V33.9197C90.7273 28.9441 88.1349 24.324 83.8775 21.7118L53.6009 3.13567C48.9773 0.298905 43.1434 0.287352 38.5085 3.10578L7.89873 21.7194C3.61342 24.3253 1 28.9613 1 33.9572V62.7216C1 67.8014 3.70119 72.5023 8.10155 75.0804Z"/>
<path d="M32.2413 57.4794H37.5993L30.3699 48.3505L37.343 39.5786H32.1901L26.1912 47.4325V39.5786H21.8073V57.4794H26.1912V49.5745L32.2413 57.4794Z"/>
<path d="M44.5023 51.5635V57.4794H48.8861V51.5635L55.1158 39.5786H50.1936L46.7327 47.0755L43.2461 39.5786H38.2727L44.5023 51.5635Z"/>
<path d="M56.1386 48.5035C56.1386 53.8584 59.8815 57.6069 65.1883 57.6069C69.4695 57.6069 72.6997 55.2354 73.7252 51.3595H68.9055C68.1621 52.8894 66.8034 53.6544 65.137 53.6544C62.4452 53.6544 60.5994 51.6655 60.5994 48.5035C60.5994 45.3415 62.4452 43.3526 65.137 43.3526C66.8034 43.3526 68.1621 44.1176 68.9055 45.6475H73.7252C72.6997 41.7716 69.4695 39.3746 65.1883 39.3746C59.8815 39.3746 56.1386 43.1486 56.1386 48.5035Z"/>
</mask>
<path d="M8.10155 75.0804L38.7122 93.0153C43.2463 95.6718 48.8751 95.6608 53.3986 92.9867L83.6743 75.0891C88.0472 72.504 90.7273 67.8185 90.7273 62.7588V33.9197C90.7273 28.9441 88.1349 24.324 83.8775 21.7118L53.6009 3.13567C48.9773 0.298905 43.1434 0.287352 38.5085 3.10578L7.89873 21.7194C3.61342 24.3253 1 28.9613 1 33.9572V62.7216C1 67.8014 3.70119 72.5023 8.10155 75.0804Z" fill="url(#paint0_linear_78_22955)"/>
<path d="M32.2413 57.4794H37.5993L30.3699 48.3505L37.343 39.5786H32.1901L26.1912 47.4325V39.5786H21.8073V57.4794H26.1912V49.5745L32.2413 57.4794Z" fill="white"/>
<path d="M44.5023 51.5635V57.4794H48.8861V51.5635L55.1158 39.5786H50.1936L46.7327 47.0755L43.2461 39.5786H38.2727L44.5023 51.5635Z" fill="white"/>
<path d="M56.1386 48.5035C56.1386 53.8584 59.8815 57.6069 65.1883 57.6069C69.4695 57.6069 72.6997 55.2354 73.7252 51.3595H68.9055C68.1621 52.8894 66.8034 53.6544 65.137 53.6544C62.4452 53.6544 60.5994 51.6655 60.5994 48.5035C60.5994 45.3415 62.4452 43.3526 65.137 43.3526C66.8034 43.3526 68.1621 44.1176 68.9055 45.6475H73.7252C72.6997 41.7716 69.4695 39.3746 65.1883 39.3746C59.8815 39.3746 56.1386 43.1486 56.1386 48.5035Z" fill="white"/>
<path d="M38.7122 93.0153L39.2178 92.1525L38.7122 93.0153ZM8.10155 75.0804L7.59603 75.9433L8.10155 75.0804ZM7.89873 21.7194L8.4183 22.5739L7.89873 21.7194ZM38.5085 3.10578L37.9889 2.25136V2.25136L38.5085 3.10578ZM53.6009 3.13567L54.1238 2.28331L53.6009 3.13567ZM83.8775 21.7118L84.4004 20.8595L83.8775 21.7118ZM83.6743 75.0891L84.1832 75.9499L83.6743 75.0891ZM53.3986 92.9867L53.9075 93.8475L53.3986 92.9867ZM32.2413 57.4794L31.4472 58.0872L31.7474 58.4794H32.2413V57.4794ZM37.5993 57.4794V58.4794H39.6669L38.3833 56.8586L37.5993 57.4794ZM30.3699 48.3505L29.5871 47.7282L29.0934 48.3493L29.5859 48.9713L30.3699 48.3505ZM37.343 39.5786L38.1258 40.2009L39.4154 38.5786H37.343V39.5786ZM32.1901 39.5786V38.5786H31.6955L31.3954 38.9716L32.1901 39.5786ZM26.1912 47.4325H25.1912V50.3892L26.9859 48.0395L26.1912 47.4325ZM26.1912 39.5786H27.1912V38.5786H26.1912V39.5786ZM21.8073 39.5786V38.5786H20.8073V39.5786H21.8073ZM21.8073 57.4794H20.8073V58.4794H21.8073V57.4794ZM26.1912 57.4794V58.4794H27.1912V57.4794H26.1912ZM26.1912 49.5745L26.9853 48.9667L25.1912 46.6226V49.5745H26.1912ZM44.5023 51.5635H45.5023V51.3191L45.3896 51.1023L44.5023 51.5635ZM44.5023 57.4794H43.5023V58.4794H44.5023V57.4794ZM48.8861 57.4794V58.4794H49.8861V57.4794H48.8861ZM48.8861 51.5635L47.9989 51.1023L47.8861 51.3191V51.5635H48.8861ZM55.1158 39.5786L56.0031 40.0398L56.7626 38.5786H55.1158V39.5786ZM50.1936 39.5786V38.5786H49.5538L49.2857 39.1595L50.1936 39.5786ZM46.7327 47.0755L45.826 47.4972L46.736 49.4541L47.6406 47.4947L46.7327 47.0755ZM43.2461 39.5786L44.1529 39.1569L43.8839 38.5786H43.2461V39.5786ZM38.2727 39.5786V38.5786H36.6259L37.3854 40.0398L38.2727 39.5786ZM73.7252 51.3595L74.6919 51.6152L75.0242 50.3595H73.7252V51.3595ZM68.9055 51.3595V50.3595H68.2797L68.0061 50.9224L68.9055 51.3595ZM68.9055 45.6475L68.0061 46.0846L68.2797 46.6475H68.9055V45.6475ZM73.7252 45.6475V46.6475H75.0242L74.6919 45.3918L73.7252 45.6475ZM39.2178 92.1525L8.60707 74.2176L7.59603 75.9433L38.2067 93.8781L39.2178 92.1525ZM2 62.7216V33.9572H0V62.7216H2ZM8.4183 22.5739L39.0281 3.96021L37.9889 2.25136L7.37916 20.865L8.4183 22.5739ZM53.0779 3.98803L83.3545 22.5642L84.4004 20.8595L54.1238 2.28331L53.0779 3.98803ZM89.7273 33.9197V62.7588H91.7273V33.9197H89.7273ZM83.1654 74.2282L52.8897 92.1259L53.9075 93.8475L84.1832 75.9499L83.1654 74.2282ZM89.7273 62.7588C89.7273 67.4632 87.2354 71.8222 83.1654 74.2282L84.1832 75.9499C88.8589 73.1858 91.7273 68.1739 91.7273 62.7588H89.7273ZM83.3545 22.5642C87.317 24.9953 89.7273 29.2935 89.7273 33.9197H91.7273C91.7273 28.5947 88.9529 23.6526 84.4004 20.8595L83.3545 22.5642ZM39.0281 3.96021C43.3425 1.33661 48.774 1.34738 53.0779 3.98803L54.1238 2.28331C49.1807 -0.749567 42.9442 -0.76191 37.9889 2.25136L39.0281 3.96021ZM2 33.9572C2 29.3121 4.42988 24.9992 8.4183 22.5739L7.37916 20.865C2.79696 23.6514 0 28.6105 0 33.9572H2ZM8.60707 74.2176C4.51149 71.818 2 67.4446 2 62.7216H0C0 68.1581 2.8909 73.1865 7.59603 75.9433L8.60707 74.2176ZM38.2067 93.8781C43.0541 96.7182 49.0713 96.7065 53.9075 93.8475L52.8897 92.1259C48.6789 94.6151 43.4384 94.6253 39.2178 92.1525L38.2067 93.8781ZM32.2413 58.4794H37.5993V56.4794H32.2413V58.4794ZM38.3833 56.8586L31.1538 47.7297L29.5859 48.9713L36.8154 58.1002L38.3833 56.8586ZM31.1527 48.9728L38.1258 40.2009L36.5602 38.9563L29.5871 47.7282L31.1527 48.9728ZM37.343 38.5786H32.1901V40.5786H37.343V38.5786ZM31.3954 38.9716L25.3965 46.8255L26.9859 48.0395L32.9848 40.1856L31.3954 38.9716ZM27.1912 47.4325V39.5786H25.1912V47.4325H27.1912ZM26.1912 38.5786H21.8073V40.5786H26.1912V38.5786ZM20.8073 39.5786V57.4794H22.8073V39.5786H20.8073ZM21.8073 58.4794H26.1912V56.4794H21.8073V58.4794ZM27.1912 57.4794V49.5745H25.1912V57.4794H27.1912ZM25.3971 50.1823L31.4472 58.0872L33.0354 56.8716L26.9853 48.9667L25.3971 50.1823ZM43.5023 51.5635V57.4794H45.5023V51.5635H43.5023ZM44.5023 58.4794H48.8861V56.4794H44.5023V58.4794ZM49.8861 57.4794V51.5635H47.8861V57.4794H49.8861ZM49.7734 52.0247L56.0031 40.0398L54.2285 39.1174L47.9989 51.1023L49.7734 52.0247ZM55.1158 38.5786H50.1936V40.5786H55.1158V38.5786ZM49.2857 39.1595L45.8248 46.6564L47.6406 47.4947L51.1015 39.9978L49.2857 39.1595ZM47.6394 46.6538L44.1529 39.1569L42.3394 40.0003L45.826 47.4972L47.6394 46.6538ZM43.2461 38.5786H38.2727V40.5786H43.2461V38.5786ZM37.3854 40.0398L43.615 52.0247L45.3896 51.1023L39.16 39.1174L37.3854 40.0398ZM55.1386 48.5035C55.1386 51.42 56.1619 53.9576 57.9647 55.7688C59.7677 57.5802 62.2929 58.6069 65.1883 58.6069V56.6069C62.7769 56.6069 60.7773 55.7594 59.3822 54.3578C57.9868 52.956 57.1386 50.942 57.1386 48.5035H55.1386ZM65.1883 58.6069C69.8825 58.6069 73.5403 55.9681 74.6919 51.6152L72.7584 51.1037C71.8592 54.5027 69.0566 56.6069 65.1883 56.6069V58.6069ZM73.7252 50.3595H68.9055V52.3595H73.7252V50.3595ZM68.0061 50.9224C67.4443 52.0786 66.4544 52.6544 65.137 52.6544V54.6544C67.1524 54.6544 68.8799 53.7003 69.805 51.7965L68.0061 50.9224ZM65.137 52.6544C64.0511 52.6544 63.1967 52.2608 62.6042 51.5982C62.0031 50.9258 61.5994 49.8928 61.5994 48.5035H59.5994C59.5994 50.2762 60.1186 51.8187 61.1133 52.9312C62.1167 54.0536 63.5311 54.6544 65.137 54.6544V52.6544ZM61.5994 48.5035C61.5994 47.1142 62.0031 46.0812 62.6042 45.4088C63.1967 44.7462 64.0511 44.3526 65.137 44.3526V42.3526C63.5311 42.3526 62.1167 42.9534 61.1133 44.0758C60.1186 45.1884 59.5994 46.7308 59.5994 48.5035H61.5994ZM65.137 44.3526C66.4544 44.3526 67.4443 44.9284 68.0061 46.0846L69.805 45.2105C68.8799 43.3067 67.1524 42.3526 65.137 42.3526V44.3526ZM68.9055 46.6475H73.7252V44.6475H68.9055V46.6475ZM74.6919 45.3918C73.5415 41.0433 69.8874 38.3746 65.1883 38.3746V40.3746C69.0517 40.3746 71.858 42.4999 72.7584 45.9033L74.6919 45.3918ZM65.1883 38.3746C62.2909 38.3746 59.7655 39.4091 57.9633 41.2269C56.1616 43.0441 55.1386 45.5873 55.1386 48.5035H57.1386C57.1386 46.0647 57.9871 44.0435 59.3836 42.635C60.7795 41.2271 62.7789 40.3746 65.1883 40.3746V38.3746Z" fill="white" mask="url(#path-1-outside-1_78_22955)"/>
<defs>
<linearGradient id="paint0_linear_78_22955" x1="29.2986" y1="-81.25" x2="-113.037" y2="-16.54" gradientUnits="userSpaceOnUse">
<stop stop-color="#00D2FF"/>
<stop offset="0.806982" stop-color="#DB00FF"/>
<stop offset="1" stop-color="#09ABF9"/>
</linearGradient>
</defs>
</svg>
