<svg width="16" height="15" viewBox="0 0 16 15" fill="none" xmlns="http://www.w3.org/2000/svg">
<path fill-rule="evenodd" clip-rule="evenodd" d="M1.89062 3.125C1.89062 1.74429 3.00991 0.625 4.39062 0.625H9.60509C10.2681 0.625 10.904 0.888392 11.3729 1.35723L12.4084 2.39277C12.8772 2.86161 13.1406 3.49749 13.1406 4.16053V11.875C13.1406 13.2557 12.0213 14.375 10.6406 14.375H4.39062C3.00991 14.375 1.89062 13.2557 1.89062 11.875V3.125ZM11.8906 5V11.875C11.8906 12.5654 11.331 13.125 10.6406 13.125H4.39062C3.70027 13.125 3.14062 12.5654 3.14062 11.875V3.125C3.14062 2.43464 3.70027 1.875 4.39062 1.875H8.76562V3.125C8.76562 4.16053 9.60509 5 10.6406 5H11.8906ZM11.8213 3.75C11.7599 3.5735 11.6592 3.4113 11.5245 3.27665L10.489 2.24112C10.3543 2.10647 10.1921 2.00571 10.0156 1.94434V3.125C10.0156 3.47018 10.2954 3.75 10.6406 3.75H11.8213Z" fill="#777E91"/>
<path d="M7.27639 5.67242C7.20267 5.70292 7.13361 5.74814 7.07368 5.80806L5.19868 7.68306C4.95461 7.92714 4.95461 8.32286 5.19868 8.56694C5.44276 8.81102 5.83849 8.81102 6.08257 8.56694L6.89063 7.75888V10.625C6.89063 10.9702 7.17045 11.25 7.51562 11.25C7.8608 11.25 8.14062 10.9702 8.14062 10.625V7.75888L8.94868 8.56694C9.19276 8.81102 9.58849 8.81102 9.83257 8.56694C10.0766 8.32286 10.0766 7.92714 9.83257 7.68306L7.95757 5.80806C7.77341 5.6239 7.50293 5.57869 7.27639 5.67242Z" fill="#777E91"/>
</svg>
