<svg width="128" height="128" viewBox="0 0 128 128" fill="none" xmlns="http://www.w3.org/2000/svg">
<rect y="-34.667" width="128" height="191.977" fill="#282B35"/>
<path fill-rule="evenodd" clip-rule="evenodd" d="M64 63C56.268 63 50 69.268 50 77V81C50 82.1046 49.1046 83 48 83C46.8954 83 46 82.1046 46 81V77C46 67.0589 54.0589 59 64 59C73.9411 59 82 67.0589 82 77V81C82 82.1046 81.1046 83 80 83C78.8954 83 78 82.1046 78 81V77C78 69.268 71.732 63 64 63Z" fill="#484D57"/>
<path fill-rule="evenodd" clip-rule="evenodd" d="M64 59C68.4183 59 72 55.4183 72 51C72 46.5817 68.4183 43 64 43C59.5817 43 56 46.5817 56 51C56 55.4183 59.5817 59 64 59ZM64 63C70.6274 63 76 57.6274 76 51C76 44.3726 70.6274 39 64 39C57.3726 39 52 44.3726 52 51C52 57.6274 57.3726 63 64 63Z" fill="#484D57"/>
</svg>
