<svg width="91" height="96" viewBox="0 0 91 96" fill="none" xmlns="http://www.w3.org/2000/svg">
<mask id="path-1-outside-1_78_22924" maskUnits="userSpaceOnUse" x="0" y="0" width="91" height="96" fill="black">
<rect fill="white" width="91" height="96"/>
<path d="M8.04399 75.0804L38.4066 93.0153C42.9038 95.6718 48.487 95.6608 52.9739 92.9867L83.0042 75.0891C87.3416 72.504 90 67.8185 90 62.7588V33.9197C90 28.9441 87.4287 24.324 83.2057 21.7118L53.1745 3.13567C48.5885 0.298905 42.8018 0.287352 38.2045 3.10578L7.84282 21.7194C3.59224 24.3253 1 28.9613 1 33.9572V62.7216C1 67.8014 3.6793 72.5023 8.04399 75.0804Z"/>
</mask>
<path d="M8.04399 75.0804L38.4066 93.0153C42.9038 95.6718 48.487 95.6608 52.9739 92.9867L83.0042 75.0891C87.3416 72.504 90 67.8185 90 62.7588V33.9197C90 28.9441 87.4287 24.324 83.2057 21.7118L53.1745 3.13567C48.5885 0.298905 42.8018 0.287352 38.2045 3.10578L7.84282 21.7194C3.59224 24.3253 1 28.9613 1 33.9572V62.7216C1 67.8014 3.6793 72.5023 8.04399 75.0804Z" fill="url(#paint0_linear_78_22924)"/>
<path d="M38.4066 93.0153L38.9151 92.1543L38.4066 93.0153ZM8.04399 75.0804L7.5354 75.9415L8.04399 75.0804ZM7.84282 21.7194L8.36548 22.572L7.84282 21.7194ZM38.2045 3.10578L37.6818 2.25324V2.25324L38.2045 3.10578ZM53.1745 3.13567L53.7006 2.28522L53.1745 3.13567ZM83.2057 21.7118L83.7318 20.8614L83.2057 21.7118ZM83.0042 75.0891L83.5161 75.9481L83.0042 75.0891ZM52.9739 92.9867L53.4859 93.8457L52.9739 92.9867ZM38.9151 92.1543L8.55258 74.2194L7.5354 75.9415L37.898 93.8763L38.9151 92.1543ZM2 62.7216V33.9572H0V62.7216H2ZM8.36548 22.572L38.7271 3.95832L37.6818 2.25324L7.32015 20.8669L8.36548 22.572ZM52.6485 3.98612L82.6797 22.5623L83.7318 20.8614L53.7006 2.28522L52.6485 3.98612ZM89 33.9197V62.7588H91V33.9197H89ZM82.4922 74.23L52.4619 92.1277L53.4859 93.8457L83.5161 75.9481L82.4922 74.23ZM89 62.7588C89 67.4671 86.5262 71.8258 82.4922 74.23L83.5161 75.9481C88.157 73.1822 91 68.17 91 62.7588H89ZM82.6797 22.5623C86.6072 24.9917 89 29.2897 89 33.9197H91C91 28.5986 88.2501 23.6562 83.7318 20.8614L82.6797 22.5623ZM38.7271 3.95833C43.0025 1.33726 48.3835 1.348 52.6485 3.98612L53.7006 2.28522C48.7934 -0.750187 42.6011 -0.762554 37.6818 2.25324L38.7271 3.95833ZM2 33.9572C2 29.3083 4.41221 24.9956 8.36548 22.572L7.32015 20.8669C2.77227 23.655 0 28.6143 0 33.9572H2ZM8.55258 74.2194C4.49322 71.8216 2 67.4486 2 62.7216H0C0 68.1542 2.86538 73.1829 7.5354 75.9415L8.55258 74.2194ZM37.898 93.8763C42.7102 96.7188 48.6848 96.7071 53.4859 93.8457L52.4619 92.1277C48.2893 94.6145 43.0975 94.6247 38.9151 92.1543L37.898 93.8763Z" fill="white" mask="url(#path-1-outside-1_78_22924)"/>
<path d="M29.2653 47.5132C30.4037 46.9094 31.1226 45.8226 31.1226 44.4138C31.1226 42.2201 29.3252 40.7509 25.8302 40.7509H19V54.839H26.2296C29.9044 54.839 31.8216 53.4302 31.8216 50.995C31.8216 49.2239 30.8231 48.0164 29.2653 47.5132ZM25.4308 43.2063C27.0085 43.2063 27.8673 43.7497 27.8673 44.8566C27.8673 45.9635 27.0085 46.527 25.4308 46.527H22.2154V43.2063H25.4308ZM25.99 52.3836H22.2154V48.9019H25.99C27.6676 48.9019 28.5663 49.4654 28.5663 50.6528C28.5663 51.8604 27.6676 52.3836 25.99 52.3836Z" fill="white"/>
<path d="M38.3852 43.8503C36.6677 43.8503 34.9302 44.3132 33.7518 45.1585L34.8702 47.3522C35.6491 46.7283 36.8274 46.3459 37.9658 46.3459C39.6434 46.3459 40.4423 47.1308 40.4423 48.4792H37.9658C34.6905 48.4792 33.3524 49.8075 33.3524 51.7195C33.3524 53.5912 34.8503 55 37.3667 55C38.9444 55 40.0628 54.4767 40.642 53.4906V54.839H43.5578V48.6604C43.5578 45.3799 41.6605 43.8503 38.3852 43.8503ZM38.1455 52.8868C37.0471 52.8868 36.3881 52.3635 36.3881 51.5786C36.3881 50.8541 36.8474 50.3107 38.3053 50.3107H40.4423V51.4176C40.0828 52.4038 39.1841 52.8868 38.1455 52.8868Z" fill="white"/>
<path d="M49.9923 55C53.2077 55 55.0651 53.5711 55.0651 51.5585C55.0651 47.2918 48.5744 49.083 48.5744 47.2314C48.5744 46.6679 49.1735 46.2252 50.5715 46.2252C51.5501 46.2252 52.6086 46.4264 53.6671 47.0302L54.7056 44.7962C53.687 44.1925 52.0494 43.8503 50.5715 43.8503C47.436 43.8503 45.5986 45.2994 45.5986 47.3522C45.5986 51.6792 52.0893 49.8679 52.0893 51.639C52.0893 52.2428 51.5501 52.6252 50.1122 52.6252C48.794 52.6252 47.3361 52.2025 46.3775 51.5786L45.339 53.8327C46.3376 54.4969 48.1749 55 49.9923 55Z" fill="white"/>
<path d="M58.5451 42.5019C59.7034 42.5019 60.4823 41.7371 60.4823 40.6906C60.4823 39.7245 59.7034 39 58.5451 39C57.3867 39 56.6079 39.7648 56.6079 40.7509C56.6079 41.7371 57.3867 42.5019 58.5451 42.5019ZM56.9873 54.839H60.1028V44.0113H56.9873V54.839Z" fill="white"/>
<path d="M68.1869 55C70.4437 55 72.2211 53.9937 73 52.2629L70.5835 50.9346C70.0043 51.9811 69.1455 52.4239 68.1669 52.4239C66.5892 52.4239 65.351 51.317 65.351 49.4252C65.351 47.5333 66.5892 46.4264 68.1669 46.4264C69.1455 46.4264 70.0043 46.8893 70.5835 47.9157L73 46.6075C72.2211 44.8365 70.4437 43.8503 68.1869 43.8503C64.6919 43.8503 62.1955 46.1648 62.1955 49.4252C62.1955 52.6855 64.6919 55 68.1869 55Z" fill="white"/>
<defs>
<linearGradient id="paint0_linear_78_22924" x1="29.0692" y1="-81.25" x2="-112.504" y2="-17.4082" gradientUnits="userSpaceOnUse">
<stop stop-color="#00D2FF"/>
<stop offset="0.806982" stop-color="#DB00FF"/>
<stop offset="1" stop-color="#09ABF9"/>
</linearGradient>
</defs>
</svg>
