<svg width="19" height="20" viewBox="0 0 19 20" fill="none" xmlns="http://www.w3.org/2000/svg">
<path d="M18.1611 15.8411C18.1611 16.3292 17.7655 16.7248 17.2774 16.7248H1.04485C0.556788 16.7248 0.161133 16.3292 0.161133 15.8411C0.161133 15.353 0.556788 14.9574 1.04485 14.9574H1.06113V8.79872C1.06113 4.39072 4.68813 0.817841 9.16113 0.817841C13.6341 0.817841 17.2611 4.39072 17.2611 8.79872V14.9574H17.2774C17.7655 14.9574 18.1611 15.353 18.1611 15.8411ZM2.86113 14.9574H15.4611V8.79872C15.4611 5.36724 12.6405 2.58528 9.16113 2.58528C5.68173 2.58528 2.86113 5.36724 2.86113 8.79872V14.9574ZM7.13718 18.5737C6.89234 18.0786 7.35885 17.6085 7.91113 17.6085H10.4111C10.9634 17.6085 11.4299 18.0786 11.1851 18.5737C11.0766 18.7929 10.931 18.9951 10.7521 19.1708C10.3302 19.5851 9.75787 19.8178 9.16113 19.8178C8.5644 19.8178 7.9921 19.5851 7.57014 19.1708C7.39127 18.9951 7.24562 18.7929 7.13718 18.5737Z" fill="#777E91"/>
</svg>
