<svg width="23" height="23" viewBox="0 0 23 23" fill="none" xmlns="http://www.w3.org/2000/svg">
<path fill-rule="evenodd" clip-rule="evenodd" d="M12.1088 0C12.1282 0.00629758 12.1473 0.0168373 12.167 0.018193C12.9048 0.0692297 13.633 0.17865 14.3497 0.364079C15.4362 0.645109 16.4619 1.07133 17.422 1.65106C18.1625 2.09806 18.845 2.62229 19.4673 3.22432C20.7395 4.45502 21.6722 5.90512 22.2923 7.56143C22.4255 7.91724 22.4849 8.27083 22.3957 8.64387C22.3364 8.89214 22.2198 9.11055 22.0635 9.31076C21.2849 10.3084 20.3914 11.193 19.4127 11.992C19.0333 12.3019 18.6411 12.5961 18.2544 12.897C18.2193 12.9243 18.1823 12.949 18.1246 12.9903C18.1246 12.9363 18.1246 12.9022 18.1246 12.8682C18.1246 10.6218 18.1238 8.37548 18.1256 6.12908C18.1258 5.84114 18.0538 5.58425 17.8517 5.37145C17.6767 5.18707 17.4601 5.07813 17.2092 5.07402C16.626 5.06439 16.0422 5.06072 15.4591 5.07402C14.9447 5.08574 14.5434 5.5277 14.5432 6.05736C14.5424 8.55741 14.5428 11.0575 14.5428 13.5575C14.5428 13.8619 14.5456 14.1664 14.542 14.4707C14.538 14.8159 14.3774 15.0722 14.0689 15.22C13.813 15.3425 13.5458 15.4414 13.2834 15.5504C13.2736 15.5545 13.2622 15.5546 13.2391 15.5588C13.2391 15.5183 13.2391 15.4831 13.2391 15.4478C13.2391 13.1479 13.2388 10.848 13.2394 8.54805C13.2395 8.1991 13.1177 7.90985 12.8324 7.69971C12.6589 7.57193 12.4617 7.5142 12.2467 7.51437C11.714 7.51477 11.1813 7.51122 10.6486 7.51542C10.1589 7.51927 9.77582 7.82628 9.67506 8.2923C9.65682 8.37657 9.65643 8.46583 9.65643 8.55282C9.65551 11.0529 9.65503 13.5529 9.65651 16.053C9.65669 16.3629 9.54661 16.6135 9.28736 16.7887C9.22312 16.8321 9.14956 16.8681 9.07508 16.8889C8.83984 16.9546 8.60215 17.0114 8.35235 17.0751C8.35235 17.0356 8.35235 17.0034 8.35235 16.9713C8.35235 14.9758 8.3523 12.9802 8.35239 10.9847C8.35239 10.6566 8.2417 10.3786 7.9821 10.1687C7.7947 10.0172 7.57718 9.95294 7.33874 9.95228C6.81447 9.95084 6.29024 9.94725 5.76601 9.94883C5.19022 9.95062 4.76924 10.3751 4.76915 10.9506C4.76876 12.9546 4.76863 14.9586 4.76963 16.9625C4.76972 17.1655 4.72896 17.3525 4.6013 17.5164C4.45279 17.7071 4.25822 17.8137 4.02035 17.8397C3.63952 17.8814 3.25909 17.9339 2.87703 17.9548C2.30583 17.9859 1.84196 17.7628 1.54033 17.2727C1.09141 16.5431 0.763582 15.7565 0.506912 14.9402C0.25339 14.1338 0.0947262 13.3089 0.0235285 12.4669C0.0186741 12.4093 0.00800318 12.3522 0 12.2949C0 11.7594 0 11.2238 0 10.6883C0.00717225 10.6442 0.0154378 10.6003 0.0212981 10.556C0.0723785 10.1709 0.108196 9.78303 0.176857 9.40107C0.324194 8.58151 0.564465 7.78779 0.891808 7.0215C1.67441 5.18934 2.84638 3.65535 4.41657 2.4275C5.43731 1.62928 6.56589 1.03049 7.79059 0.611172C8.77966 0.272545 9.79742 0.0803379 10.8403 0.017537C10.8576 0.0164874 10.8742 0.00607892 10.8911 8.74664e-05C11.297 0 11.703 0 12.1088 0Z" fill="#B1B5C3"/>
<path fill-rule="evenodd" clip-rule="evenodd" d="M11.0271 23.0001C11.0011 22.9908 10.9754 22.9746 10.949 22.9734C10.2352 22.9408 9.53003 22.8405 8.83633 22.6735C7.99114 22.4699 7.17416 22.1827 6.39575 21.7912C5.84126 21.5124 5.30903 21.1966 4.80465 20.8345C4.79153 20.8251 4.78007 20.8133 4.75195 20.7888C4.81908 20.7747 4.87082 20.7624 4.92304 20.753C5.59338 20.6326 6.26591 20.5231 6.93372 20.3901C8.20495 20.1368 9.451 19.7863 10.6811 19.3793C11.9872 18.9471 13.2589 18.4294 14.4925 17.8207C15.7677 17.1914 16.9899 16.4715 18.1403 15.634C19.2523 14.8244 20.2855 13.9244 21.2194 12.9127C21.8394 12.2411 22.4093 11.5293 22.9227 10.7726C22.9414 10.7452 22.9743 10.7275 23.0006 10.7052C23.0006 11.2351 23.0006 11.765 23.0006 12.2949C22.9932 12.3141 22.9808 12.3328 22.9793 12.3524C22.9265 13.0305 22.8139 13.6987 22.6438 14.3571C22.3205 15.6089 21.7977 16.7726 21.0833 17.8488C20.4129 18.8586 19.5999 19.7399 18.6502 20.4935C17.5922 21.3331 16.4209 21.9679 15.1397 22.3936C14.103 22.7383 13.0374 22.937 11.9436 22.9755C11.9197 22.9763 11.8963 22.9915 11.8726 23.0001C11.5909 23.0001 11.309 23.0001 11.0271 23.0001Z" fill="#B1B5C3"/>
</svg>
