<svg width="44" height="44" viewBox="0 0 44 44" fill="none" xmlns="http://www.w3.org/2000/svg">
<circle cx="22" cy="22" r="21.75" fill="url(#paint0_linear_161_12359)" stroke="#E6E8EC" stroke-width="0.5"/>
<g clip-path="url(#clip0_161_12359)">
<path fill-rule="evenodd" clip-rule="evenodd" d="M22.6245 9.42859C22.6444 9.43504 22.6639 9.44584 22.6841 9.44723C23.4403 9.49954 24.1865 9.61168 24.9211 9.80171C26.0346 10.0897 27.0857 10.5265 28.0697 11.1207C28.8285 11.5788 29.528 12.116 30.1658 12.733C31.4696 13.9943 32.4255 15.4804 33.061 17.1779C33.1975 17.5425 33.2584 17.9049 33.167 18.2872C33.1061 18.5417 32.9867 18.7655 32.8265 18.9707C32.0286 19.9931 31.1129 20.8997 30.1099 21.7186C29.721 22.0361 29.319 22.3376 28.9228 22.646C28.8868 22.674 28.8489 22.6993 28.7898 22.7417C28.7898 22.6863 28.7898 22.6514 28.7898 22.6165C28.7898 20.3143 28.789 18.0122 28.7908 15.7099C28.791 15.4149 28.7172 15.1516 28.5101 14.9335C28.3307 14.7445 28.1087 14.6329 27.8516 14.6287C27.2539 14.6188 26.6556 14.615 26.058 14.6287C25.5309 14.6407 25.1195 15.0936 25.1193 15.6364C25.1186 18.1986 25.119 20.7608 25.119 23.3229C25.119 23.6349 25.1218 23.9469 25.1182 24.2588C25.114 24.6125 24.9495 24.8753 24.6333 25.0267C24.371 25.1523 24.0972 25.2536 23.8283 25.3654C23.8182 25.3695 23.8065 25.3696 23.7829 25.3739C23.7829 25.3324 23.7829 25.2964 23.7829 25.2602C23.7829 22.9031 23.7825 20.5461 23.7832 18.189C23.7833 17.8314 23.6585 17.535 23.366 17.3196C23.1883 17.1886 22.9862 17.1295 22.7658 17.1297C22.2199 17.1301 21.6739 17.1264 21.128 17.1307C20.6262 17.1347 20.2335 17.4493 20.1303 17.9269C20.1116 18.0133 20.1112 18.1048 20.1112 18.1939C20.1102 20.7561 20.1097 23.3182 20.1113 25.8804C20.1115 26.198 19.9986 26.4548 19.7329 26.6344C19.6671 26.6789 19.5917 26.7157 19.5154 26.7371C19.2743 26.8044 19.0307 26.8627 18.7747 26.9279C18.7747 26.8874 18.7747 26.8545 18.7747 26.8215C18.7747 24.7764 18.7747 22.7313 18.7747 20.6862C18.7747 20.35 18.6613 20.065 18.3953 19.8499C18.2032 19.6947 17.9803 19.6288 17.7359 19.6281C17.1986 19.6267 16.6614 19.623 16.1241 19.6246C15.534 19.6264 15.1026 20.0615 15.1025 20.6512C15.1021 22.705 15.1019 24.7588 15.103 26.8126C15.1031 27.0205 15.0613 27.2122 14.9305 27.3802C14.7783 27.5756 14.5789 27.6849 14.3351 27.7116C13.9448 27.7542 13.5549 27.8081 13.1634 27.8295C12.578 27.8613 12.1026 27.6327 11.7934 27.1304C11.3334 26.3827 10.9974 25.5766 10.7343 24.74C10.4745 23.9136 10.3119 23.0681 10.239 22.2052C10.234 22.1462 10.223 22.0877 10.2148 22.0289C10.2148 21.4801 10.2148 20.9313 10.2148 20.3824C10.2222 20.3373 10.2307 20.2922 10.2367 20.2469C10.289 19.8522 10.3257 19.4547 10.3961 19.0632C10.5471 18.2233 10.7933 17.4099 11.1288 16.6245C11.9309 14.7469 13.1319 13.1748 14.7411 11.9164C15.7872 11.0983 16.9439 10.4847 18.199 10.0549C19.2126 9.70791 20.2557 9.51092 21.3245 9.44656C21.3422 9.44549 21.3592 9.43482 21.3766 9.42868C21.7926 9.42859 22.2086 9.42859 22.6245 9.42859Z" fill="#B1B5C3"/>
<path fill-rule="evenodd" clip-rule="evenodd" d="M21.5151 33C21.4884 32.9905 21.4621 32.9739 21.435 32.9726C20.7034 32.9392 19.9808 32.8365 19.2698 32.6653C18.4036 32.4566 17.5664 32.1623 16.7686 31.7611C16.2004 31.4753 15.6549 31.1517 15.138 30.7806C15.1245 30.771 15.1128 30.7589 15.084 30.7338C15.1528 30.7193 15.2058 30.7067 15.2593 30.6971C15.9463 30.5737 16.6356 30.4615 17.32 30.3252C18.6228 30.0656 19.8998 29.7064 21.1605 29.2893C22.499 28.8463 23.8023 28.3158 25.0665 27.692C26.3734 27.0471 27.626 26.3092 28.8049 25.4509C29.9446 24.6212 31.0035 23.6988 31.9606 22.662C32.596 21.9737 33.1801 21.2442 33.7062 20.4687C33.7253 20.4406 33.7591 20.4225 33.786 20.3997C33.786 20.9427 33.786 21.4858 33.786 22.0289C33.7784 22.0485 33.7657 22.0677 33.7641 22.0877C33.7101 22.7828 33.5946 23.4675 33.4204 24.1422C33.089 25.4252 32.5532 26.6178 31.8211 27.7207C31.1341 28.7556 30.3008 29.6588 29.3276 30.4311C28.2432 31.2916 27.0428 31.9421 25.7298 32.3785C24.6673 32.7317 23.5753 32.9354 22.4543 32.9748C22.4298 32.9757 22.4058 32.9912 22.3816 33C22.0929 33 21.804 33 21.5151 33Z" fill="#B1B5C3"/>
</g>
<defs>
<linearGradient id="paint0_linear_161_12359" x1="22" y1="0" x2="22" y2="44" gradientUnits="userSpaceOnUse">
<stop offset="0.0464794" stop-color="#22242F"/>
<stop offset="0.869351" stop-color="#1A1D28"/>
</linearGradient>
<clipPath id="clip0_161_12359">
<rect width="23.5714" height="23.5714" fill="white" transform="translate(10.2148 9.42859)"/>
</clipPath>
</defs>
</svg>
