<svg width="64" height="64" viewBox="0 0 64 64" fill="none" xmlns="http://www.w3.org/2000/svg">
<rect width="64" height="64" rx="32" fill="#484D57"/>
<path d="M19.2727 25.0182C20.5279 25.0182 21.5455 23.9837 21.5455 22.7076C21.5455 21.4315 20.5279 20.397 19.2727 20.397C18.0175 20.397 17 21.4315 17 22.7076C17 23.9837 18.0175 25.0182 19.2727 25.0182Z" fill="#509EE3"/>
<path d="M19.2727 31.4879C20.5279 31.4879 21.5455 30.4534 21.5455 29.1773C21.5455 27.9012 20.5279 26.8667 19.2727 26.8667C18.0175 26.8667 17 27.9012 17 29.1773C17 30.4534 18.0175 31.4879 19.2727 31.4879Z" fill="#509EE3"/>
<path opacity="0.2" d="M25.636 25.0182C26.8912 25.0182 27.9088 23.9837 27.9088 22.7076C27.9088 21.4315 26.8912 20.397 25.636 20.397C24.3808 20.397 23.3633 21.4315 23.3633 22.7076C23.3633 23.9837 24.3808 25.0182 25.636 25.0182Z" fill="#509EE3"/>
<path d="M25.636 31.5504C26.8912 31.5504 27.9088 30.5159 27.9088 29.2398C27.9088 27.9637 26.8912 26.9292 25.636 26.9292C24.3808 26.9292 23.3633 27.9637 23.3633 29.2398C23.3633 30.5159 24.3808 31.5504 25.636 31.5504Z" fill="#509EE3"/>
<path opacity="0.2" d="M31.9993 25.0182C33.2545 25.0182 34.272 23.9837 34.272 22.7076C34.272 21.4315 33.2545 20.397 31.9993 20.397C30.7441 20.397 29.7266 21.4315 29.7266 22.7076C29.7266 23.9837 30.7441 25.0182 31.9993 25.0182Z" fill="#509EE3"/>
<path opacity="0.2" d="M31.9993 17.6241C33.2545 17.6241 34.272 16.5896 34.272 15.3135C34.272 14.0374 33.2545 13.0029 31.9993 13.0029C30.7441 13.0029 29.7266 14.0374 29.7266 15.3135C29.7266 16.5896 30.7441 17.6241 31.9993 17.6241Z" fill="#509EE3"/>
<path opacity="0.2" d="M31.9993 31.5504C33.2545 31.5504 34.272 30.5159 34.272 29.2398C34.272 27.9637 33.2545 26.9292 31.9993 26.9292C30.7441 26.9292 29.7266 27.9637 29.7266 29.2398C29.7266 30.5159 30.7441 31.5504 31.9993 31.5504Z" fill="#509EE3"/>
<path opacity="0.2" d="M38.3626 25.0182C39.6178 25.0182 40.6353 23.9837 40.6353 22.7076C40.6353 21.4315 39.6178 20.397 38.3626 20.397C37.1074 20.397 36.0898 21.4315 36.0898 22.7076C36.0898 23.9837 37.1074 25.0182 38.3626 25.0182Z" fill="#509EE3"/>
<path d="M44.7259 25.0182C45.9811 25.0182 46.9986 23.9837 46.9986 22.7076C46.9986 21.4315 45.9811 20.397 44.7259 20.397C43.4707 20.397 42.4531 21.4315 42.4531 22.7076C42.4531 23.9837 43.4707 25.0182 44.7259 25.0182Z" fill="#509EE3"/>
<path d="M38.3626 31.5504C39.6178 31.5504 40.6353 30.5159 40.6353 29.2398C40.6353 27.9637 39.6178 26.9292 38.3626 26.9292C37.1074 26.9292 36.0898 27.9637 36.0898 29.2398C36.0898 30.5159 37.1074 31.5504 38.3626 31.5504Z" fill="#509EE3"/>
<path d="M44.7259 31.5504C45.9811 31.5504 46.9986 30.5159 46.9986 29.2398C46.9986 27.9637 45.9811 26.9292 44.7259 26.9292C43.4707 26.9292 42.4531 27.9637 42.4531 29.2398C42.4531 30.5159 43.4707 31.5504 44.7259 31.5504Z" fill="#509EE3"/>
<path d="M19.2727 37.9576C20.5279 37.9576 21.5455 36.9231 21.5455 35.647C21.5455 34.3709 20.5279 33.3364 19.2727 33.3364C18.0175 33.3364 17 34.3709 17 35.647C17 36.9231 18.0175 37.9576 19.2727 37.9576Z" fill="#509EE3"/>
<path opacity="0.2" d="M25.636 38.0201C26.8912 38.0201 27.9088 36.9856 27.9088 35.7095C27.9088 34.4334 26.8912 33.3989 25.636 33.3989C24.3808 33.3989 23.3633 34.4334 23.3633 35.7095C23.3633 36.9856 24.3808 38.0201 25.636 38.0201Z" fill="#509EE3"/>
<path d="M31.9993 38.0201C33.2545 38.0201 34.272 36.9856 34.272 35.7095C34.272 34.4334 33.2545 33.3989 31.9993 33.3989C30.7441 33.3989 29.7266 34.4334 29.7266 35.7095C29.7266 36.9856 30.7441 38.0201 31.9993 38.0201Z" fill="#509EE3"/>
<path opacity="0.2" d="M38.3626 38.0201C39.6178 38.0201 40.6353 36.9856 40.6353 35.7095C40.6353 34.4334 39.6178 33.3989 38.3626 33.3989C37.1074 33.3989 36.0898 34.4334 36.0898 35.7095C36.0898 36.9856 37.1074 38.0201 38.3626 38.0201Z" fill="#509EE3"/>
<path d="M44.7259 38.0201C45.9811 38.0201 46.9986 36.9856 46.9986 35.7095C46.9986 34.4334 45.9811 33.3989 44.7259 33.3989C43.4707 33.3989 42.4531 34.4334 42.4531 35.7095C42.4531 36.9856 43.4707 38.0201 44.7259 38.0201Z" fill="#509EE3"/>
<path d="M19.2727 44.4269C20.5279 44.4269 21.5455 43.3924 21.5455 42.1163C21.5455 40.8402 20.5279 39.8057 19.2727 39.8057C18.0175 39.8057 17 40.8402 17 42.1163C17 43.3924 18.0175 44.4269 19.2727 44.4269Z" fill="#509EE3"/>
<path opacity="0.2" d="M25.636 44.4899C26.8912 44.4899 27.9088 43.4554 27.9088 42.1793C27.9088 40.9031 26.8912 39.8687 25.636 39.8687C24.3808 39.8687 23.3633 40.9031 23.3633 42.1793C23.3633 43.4554 24.3808 44.4899 25.636 44.4899Z" fill="#509EE3"/>
<path opacity="0.2" d="M31.9993 44.4899C33.2545 44.4899 34.272 43.4554 34.272 42.1793C34.272 40.9031 33.2545 39.8687 31.9993 39.8687C30.7441 39.8687 29.7266 40.9031 29.7266 42.1793C29.7266 43.4554 30.7441 44.4899 31.9993 44.4899Z" fill="#509EE3"/>
<path opacity="0.2" d="M31.9993 50.9596C33.2545 50.9596 34.272 49.9251 34.272 48.649C34.272 47.3729 33.2545 46.3384 31.9993 46.3384C30.7441 46.3384 29.7266 47.3729 29.7266 48.649C29.7266 49.9251 30.7441 50.9596 31.9993 50.9596Z" fill="#509EE3"/>
<path opacity="0.2" d="M38.3626 44.4899C39.6178 44.4899 40.6353 43.4554 40.6353 42.1793C40.6353 40.9031 39.6178 39.8687 38.3626 39.8687C37.1074 39.8687 36.0898 40.9031 36.0898 42.1793C36.0898 43.4554 37.1074 44.4899 38.3626 44.4899Z" fill="#509EE3"/>
<path d="M44.7259 44.4899C45.9811 44.4899 46.9986 43.4554 46.9986 42.1793C46.9986 40.9031 45.9811 39.8687 44.7259 39.8687C43.4707 39.8687 42.4531 40.9031 42.4531 42.1793C42.4531 43.4554 43.4707 44.4899 44.7259 44.4899Z" fill="#509EE3"/>
</svg>
