<svg width="28" height="28" viewBox="0 0 28 28" fill="none" xmlns="http://www.w3.org/2000/svg">
<path fill-rule="evenodd" clip-rule="evenodd" d="M14.0003 27.3332C21.3641 27.3332 27.3337 21.3636 27.3337 13.9998C27.3337 6.63604 21.3641 0.666504 14.0003 0.666504C6.63653 0.666504 0.666992 6.63604 0.666992 13.9998C0.666992 21.3636 6.63653 27.3332 14.0003 27.3332ZM21.3741 10.7069C21.7646 10.3164 21.7646 9.68325 21.3741 9.29273C20.9836 8.90221 20.3504 8.90221 19.9599 9.29273L12.667 16.5856L9.3741 13.2927C8.98357 12.9022 8.35041 12.9022 7.95989 13.2927C7.56936 13.6833 7.56936 14.3164 7.95989 14.7069L11.9599 18.7069C12.1474 18.8945 12.4018 18.9998 12.667 18.9998C12.9322 18.9998 13.1866 18.8945 13.3741 18.7069L21.3741 10.7069Z" fill="#17EF97"/>
</svg>
