<svg width="23" height="18" viewBox="0 0 23 18" fill="none" xmlns="http://www.w3.org/2000/svg">
<path fill-rule="evenodd" clip-rule="evenodd" d="M14.665 0.170584C14.6065 0.264369 14.4614 0.546831 14.3426 0.798163L14.1264 1.25516L13.4702 1.19322C12.6128 1.11231 10.2912 1.11381 9.48649 1.19582L8.85333 1.2603L8.56504 0.662503C8.22918 -0.0342905 8.24666 -0.0287598 7.17818 0.225891C6.14173 0.472877 5.51296 0.674828 4.44772 1.10283L3.47147 1.49496L3.05563 2.18227C1.56946 4.63823 0.671804 7.02916 0.216779 9.74341C0.0401882 10.7966 -0.0707392 14.1444 0.0518121 14.7211C0.112934 15.0085 0.188374 15.0854 0.885499 15.5703C1.87615 16.2594 3.79232 17.2496 4.94778 17.6695C5.44799 17.8513 5.86876 18 5.88285 18C5.95513 18 7.07896 16.1166 7.07896 15.9954C7.07896 15.975 6.66327 15.7541 6.1552 15.5047C5.64714 15.2552 5.23253 15.0124 5.23384 14.9651C5.23522 14.9178 5.32359 14.8138 5.43036 14.734C5.62212 14.5906 5.63405 14.5926 6.44788 14.9041C8.35604 15.6343 9.61219 15.8794 11.4668 15.8833C13.3187 15.8872 14.7915 15.6041 16.5119 14.9137L17.3161 14.591L17.558 14.7678C17.7898 14.9372 17.7939 14.9494 17.6548 15.0598C17.5187 15.1678 16.291 15.7804 15.9845 15.8932C15.8563 15.9404 15.8652 15.9836 16.0947 16.4255C16.232 16.6899 16.5037 17.1435 16.6983 17.4334C17.1177 18.058 17.0532 18.0532 18.3149 17.554C19.4979 17.0859 20.7156 16.4622 21.721 15.8094C23.0019 14.9776 22.909 15.1247 22.9746 13.824C23.1772 9.80843 22.1674 5.92476 19.9748 2.2868C19.5529 1.58677 19.5024 1.53399 19.0565 1.32643C18.0888 0.876068 16.7776 0.450755 15.4091 0.143325L14.7713 0L14.665 0.170584ZM8.51778 7.71616C8.90483 7.9189 9.36047 8.43555 9.56539 8.90416C9.77547 9.3847 9.78478 10.2165 9.58664 10.8075C9.38464 11.4099 8.78844 12.0163 8.23103 12.1862C7.72443 12.3406 7.59141 12.3416 7.10882 12.1945C6.57882 12.033 6.13326 11.6158 5.84197 11.0084C5.06009 9.37838 6.18723 7.39324 7.81965 7.52527C8.03658 7.54281 8.35066 7.6287 8.51778 7.71616ZM15.927 7.61605C16.4787 7.78419 17.0027 8.32106 17.2368 8.95797C17.3761 9.33722 17.4029 9.54122 17.3763 10.0199C17.3348 10.7653 17.1319 11.2467 16.6614 11.7161C15.6463 12.7287 14.0857 12.3455 13.4535 10.9286C13.1986 10.3571 13.2017 9.33722 13.4601 8.83724C13.8314 8.11856 14.1328 7.83365 14.7678 7.60073C15.1421 7.46341 15.4392 7.46736 15.927 7.61605Z" fill="#B1B5C3"/>
</svg>
