<svg width="45" height="44" viewBox="0 0 45 44" fill="none" xmlns="http://www.w3.org/2000/svg">
<circle cx="22.7148" cy="22" r="21.75" fill="url(#paint0_linear_74_7490)" stroke="#E6E8EC" stroke-width="0.5"/>
<path fill-rule="evenodd" clip-rule="evenodd" d="M25.9571 12.7427C25.8971 12.8368 25.7485 13.1204 25.6267 13.3727L25.4051 13.8316L24.7326 13.7694C23.8539 13.6881 21.4746 13.6896 20.6499 13.772L20.001 13.8367L19.7056 13.2365C19.3614 12.537 19.3793 12.5425 18.2843 12.7982C17.2221 13.0462 16.5777 13.2489 15.486 13.6786L14.4855 14.0723L14.0593 14.7623C12.5362 17.228 11.6162 19.6285 11.1499 22.3535C10.9689 23.4109 10.8552 26.7719 10.9808 27.3509C11.0435 27.6395 11.1208 27.7167 11.8352 28.2035C12.8505 28.8953 14.8143 29.8895 15.9984 30.311C16.5111 30.4936 16.9423 30.6428 16.9567 30.6428C17.0308 30.6428 18.1826 28.752 18.1826 28.6303C18.1826 28.6098 17.7565 28.3881 17.2359 28.1376C16.7152 27.8871 16.2903 27.6434 16.2916 27.5958C16.293 27.5484 16.3836 27.444 16.493 27.3639C16.6895 27.2199 16.7018 27.2219 17.5358 27.5347C19.4914 28.2678 20.7787 28.5139 22.6794 28.5178C24.5773 28.5216 26.0867 28.2374 27.8499 27.5443L28.6741 27.2203L28.922 27.3978C29.1595 27.5678 29.1637 27.5801 29.0211 27.691C28.8817 27.7994 27.6235 28.4144 27.3093 28.5277C27.178 28.5751 27.1871 28.6184 27.4223 29.0621C27.5631 29.3276 27.8415 29.783 28.0409 30.074C28.4707 30.7011 28.4046 30.6962 29.6976 30.1951C30.91 29.7251 32.158 29.099 33.1884 28.4435C34.5011 27.6085 34.4059 27.7562 34.4731 26.4503C34.6808 22.4188 33.6459 18.5197 31.3988 14.8673C30.9665 14.1645 30.9147 14.1115 30.4577 13.9031C29.4659 13.451 28.1222 13.024 26.7197 12.7153L26.066 12.5714L25.9571 12.7427ZM19.6571 20.3182C20.0538 20.5217 20.5208 21.0404 20.7308 21.5109C20.9461 21.9934 20.9556 22.8285 20.7525 23.4218C20.5455 24.0266 19.9345 24.6354 19.3633 24.8059C18.8441 24.961 18.7077 24.962 18.2132 24.8144C17.67 24.6521 17.2134 24.2333 16.9148 23.6235C16.1135 21.987 17.2687 19.994 18.9417 20.1265C19.164 20.1442 19.4859 20.2304 19.6571 20.3182ZM27.2505 20.2177C27.8158 20.3865 28.3528 20.9255 28.5928 21.5649C28.7355 21.9457 28.763 22.1505 28.7357 22.6311C28.6933 23.3794 28.4853 23.8628 28.003 24.334C26.9628 25.3506 25.3634 24.9659 24.7155 23.5433C24.4542 22.9696 24.4575 21.9457 24.7222 21.4437C25.1028 20.7222 25.4117 20.4361 26.0625 20.2023C26.446 20.0644 26.7505 20.0684 27.2505 20.2177Z" fill="#B1B5C3"/>
<defs>
<linearGradient id="paint0_linear_74_7490" x1="22.7148" y1="0" x2="22.7148" y2="44" gradientUnits="userSpaceOnUse">
<stop offset="0.0464794" stop-color="#22242F"/>
<stop offset="0.869351" stop-color="#1A1D28"/>
</linearGradient>
</defs>
</svg>
