<svg width="215" height="64" viewBox="0 0 215 64" fill="none" xmlns="http://www.w3.org/2000/svg">
<path d="M27.5533 2.18775C27.3152 1.80476 27.8619 1.14655 29.4126 0.395417C30.3794 -0.0992248 30.826 -0.00738237 30.9179 0.256064C31.0795 0.719452 30.7104 1.28772 29.5613 2.00186C28.7952 2.47764 27.7912 2.57058 27.5533 2.18775Z" fill="url(#paint0_radial_78_5629)"/>
<path d="M32.2124 1.68232C32.0904 1.5565 32.3057 1.27661 32.9633 0.895494C33.3721 0.648135 33.5745 0.652368 33.6264 0.743702C33.7178 0.904353 33.5776 1.13915 33.097 1.47984C32.7765 1.70685 32.3342 1.8081 32.2124 1.68232Z" fill="url(#paint1_radial_78_5629)"/>
<path d="M38.2523 2.16213C38.4235 2.32625 38.1463 2.71554 37.2758 3.26378C36.7351 3.61871 36.4612 3.62305 36.3864 3.5021C36.2548 3.28935 36.4327 2.96479 37.0658 2.48005C37.488 2.15704 38.0812 1.99808 38.2523 2.16213Z" fill="url(#paint2_radial_78_5629)"/>
<path d="M36.7181 0.0827949C36.7967 0.158097 36.6695 0.336716 36.2701 0.588261C36.022 0.751113 35.8963 0.753108 35.862 0.697612C35.8016 0.599996 35.8832 0.45108 36.1737 0.228667C36.3674 0.0804573 36.6396 0.00752374 36.7181 0.0827949Z" fill="url(#paint3_radial_78_5629)"/>
<path d="M35.1518 30.7278C35.0773 30.6818 35.1473 30.5199 35.4191 30.2547C35.5868 30.0848 35.6853 30.062 35.7216 30.0999C35.7856 30.1665 35.7465 30.2974 35.5555 30.5213C35.4281 30.6706 35.2263 30.7738 35.1518 30.7278Z" fill="url(#paint4_radial_78_5629)"/>
<path d="M37.3889 24.7702C37.4707 24.8486 37.3382 25.0347 36.9222 25.2967C36.6638 25.4663 36.5329 25.4684 36.4971 25.4106C36.4343 25.3089 36.5193 25.1538 36.8218 24.9221C37.0236 24.7678 37.3071 24.6918 37.3889 24.7702Z" fill="url(#paint5_radial_78_5629)"/>
<path d="M28.9539 31.4977C28.6058 31.211 28.9132 30.4125 30.142 29.2047C30.8997 28.4267 31.3522 28.3708 31.5236 28.591C31.825 28.9783 31.657 29.6348 30.7969 30.6791C30.2233 31.375 29.3018 31.7843 28.9539 31.4977Z" fill="url(#paint6_radial_78_5629)"/>
<path d="M27.2266 38.7454C28.2127 37.6936 26.8722 37.0779 26.5823 36.1548C26.163 34.8194 29.3432 35.8261 30.6702 35.3808C31.7456 35.02 33.4478 36.4535 34.4326 35.8906C36.0994 34.9379 39.4849 29.089 40.4046 28.7268C43.5652 27.4822 40.4046 35.5704 40.4046 38.9669C40.4046 40.7918 39.6442 42.1605 37.9713 43.0223C35.0818 44.5938 32.1923 46.2667 29.4041 47.9903C27.6806 49.0042 26.1091 49.0548 24.3855 47.9903C21.496 46.2667 18.6065 44.5938 15.6662 42.9717C14.044 42.0592 13.3343 40.7411 13.3343 38.9669C13.3343 35.5704 13.3343 32.1233 13.3343 28.7268C13.3343 26.9019 14.1454 25.5838 15.7676 24.6714C22.3577 20.8693 28.9479 17.0673 35.4874 13.1639C38.5796 11.2883 41.5705 11.1362 44.6628 13.1132C46.5892 14.3299 48.5662 15.3438 50.4926 16.5097C52.6724 17.8277 53.737 19.8555 53.737 22.4408C53.737 30.0449 53.737 37.6488 53.737 45.2529C53.737 48.5479 51.8613 50.525 49.1746 52.0458C43.4462 55.3408 37.6672 58.5345 32.0402 61.9817C28.4917 64.1615 25.298 64.2122 21.7494 61.9817C16.2746 58.5852 10.5969 55.4929 5.02062 52.2485C4.36161 51.8937 3.75328 51.4881 3.14496 51.0826C1.06653 49.7139 0.00196038 47.7368 0.00196038 45.2529C0.00196038 37.6488 0.00196038 30.0449 0.00196038 22.4408C0.00196038 19.1458 1.87762 17.1687 4.56437 15.6479C10.4448 12.3021 16.2746 8.90569 22.155 5.50923C22.5605 5.25576 23.0168 5.05299 23.4223 4.85022C25.7035 3.58288 20.5328 9.70373 30.3166 4.79952C40.1004 -0.104687 22.155 11.4779 32.4457 7.42253C42.7365 3.36718 31.3305 9.61539 29.1507 10.8827C23.473 14.1778 17.8461 17.5743 12.1177 20.7173C9.32956 22.2381 8.1129 24.1644 8.26498 27.4088C8.46775 31.9205 8.41706 36.4322 8.26498 40.9439C8.21429 43.5293 9.17747 45.2022 11.408 46.4188C15.5141 48.7 19.6203 51.0826 23.6758 53.5159C25.8556 54.7832 27.8833 54.8339 30.0631 53.5666C34.1693 51.1333 38.2755 48.7507 42.483 46.4188C44.5615 45.2528 45.626 43.6814 45.5754 41.1974C45.474 36.2294 45.3726 31.2108 45.5754 26.2429C45.7781 22.086 41.3171 19.7541 38.022 21.7818C33.6624 24.4686 29.1507 26.9526 24.6897 29.4872C21.7494 31.1601 20.6879 34.5623 24.8417 37.3315C25.6021 37.8384 26.987 39.001 27.2266 38.7454Z" fill="url(#paint7_radial_78_5629)"/>
<path d="M75.0573 17.1059C74.6733 16.4019 74.1453 15.8659 73.4733 15.4979C72.8013 15.1299 72.0173 14.9459 71.1213 14.9459C70.1293 14.9459 69.2493 15.1699 68.4813 15.6179C67.7133 16.0659 67.1133 16.7059 66.6813 17.5379C66.2493 18.3699 66.0333 19.3299 66.0333 20.4179C66.0333 21.5379 66.2493 22.5139 66.6813 23.3459C67.1293 24.1779 67.7453 24.8179 68.5293 25.2659C69.3133 25.7139 70.2253 25.9379 71.2653 25.9379C72.5453 25.9379 73.5933 25.6019 74.4093 24.9299C75.2253 24.2419 75.7613 23.2899 76.0173 22.0739H70.2573V19.5059H79.3293V22.4339C79.1053 23.6019 78.6253 24.6819 77.8893 25.6739C77.1533 26.6659 76.2013 27.4659 75.0333 28.0739C73.8813 28.6659 72.5853 28.9619 71.1453 28.9619C69.5293 28.9619 68.0653 28.6019 66.7533 27.8819C65.4573 27.1459 64.4333 26.1299 63.6813 24.8339C62.9453 23.5379 62.5773 22.0659 62.5773 20.4179C62.5773 18.7699 62.9453 17.2979 63.6813 16.0019C64.4333 14.6899 65.4573 13.6739 66.7533 12.9539C68.0653 12.2179 69.5213 11.8499 71.1213 11.8499C73.0093 11.8499 74.6493 12.3139 76.0413 13.2419C77.4333 14.1539 78.3933 15.4419 78.9213 17.1059H75.0573ZM89.9752 28.8179L86.2792 22.2899H84.6952V28.8179H81.3352V12.0659H87.6232C88.9192 12.0659 90.0232 12.2979 90.9352 12.7619C91.8472 13.2099 92.5272 13.8259 92.9752 14.6099C93.4392 15.3779 93.6712 16.2419 93.6712 17.2019C93.6712 18.3059 93.3512 19.3059 92.7112 20.2019C92.0712 21.0819 91.1192 21.6899 89.8552 22.0259L93.8632 28.8179H89.9752ZM84.6952 19.7699H87.5032C88.4152 19.7699 89.0952 19.5539 89.5432 19.1219C89.9912 18.6739 90.2152 18.0579 90.2152 17.2739C90.2152 16.5059 89.9912 15.9139 89.5432 15.4979C89.0952 15.0659 88.4152 14.8499 87.5032 14.8499H84.6952V19.7699ZM102.134 29.0339C100.854 29.0339 99.7022 28.7539 98.6782 28.1939C97.6542 27.6179 96.8462 26.8099 96.2542 25.7699C95.6782 24.7299 95.3902 23.5299 95.3902 22.1699C95.3902 20.8099 95.6862 19.6099 96.2782 18.5699C96.8862 17.5299 97.7102 16.7299 98.7502 16.1699C99.7902 15.5939 100.95 15.3059 102.23 15.3059C103.51 15.3059 104.67 15.5939 105.71 16.1699C106.75 16.7299 107.566 17.5299 108.158 18.5699C108.766 19.6099 109.07 20.8099 109.07 22.1699C109.07 23.5299 108.758 24.7299 108.134 25.7699C107.526 26.8099 106.694 27.6179 105.638 28.1939C104.598 28.7539 103.43 29.0339 102.134 29.0339ZM102.134 26.1059C102.742 26.1059 103.31 25.9619 103.838 25.6739C104.382 25.3699 104.814 24.9219 105.134 24.3299C105.454 23.7379 105.614 23.0179 105.614 22.1699C105.614 20.9059 105.278 19.9379 104.606 19.2659C103.95 18.5779 103.142 18.2339 102.182 18.2339C101.222 18.2339 100.414 18.5779 99.7582 19.2659C99.1182 19.9379 98.7982 20.9059 98.7982 22.1699C98.7982 23.4339 99.1102 24.4099 99.7342 25.0979C100.374 25.7699 101.174 26.1059 102.134 26.1059ZM114.415 11.0579V28.8179H111.055V11.0579H114.415ZM120.615 11.0579V28.8179H117.255V11.0579H120.615ZM79.9053 38.3299C81.5373 38.3299 82.8493 38.8339 83.8413 39.8419C84.8493 40.8339 85.3533 42.2259 85.3533 44.0179V51.8179H81.9933V44.4739C81.9933 43.4339 81.7293 42.6419 81.2013 42.0979C80.6733 41.5379 79.9533 41.2579 79.0413 41.2579C78.1293 41.2579 77.4013 41.5379 76.8573 42.0979C76.3293 42.6419 76.0653 43.4339 76.0653 44.4739V51.8179H72.7053V44.4739C72.7053 43.4339 72.4413 42.6419 71.9133 42.0979C71.3853 41.5379 70.6653 41.2579 69.7533 41.2579C68.8253 41.2579 68.0893 41.5379 67.5453 42.0979C67.0173 42.6419 66.7533 43.4339 66.7533 44.4739V51.8179H63.3933V38.5219H66.7533V40.1299C67.1853 39.5699 67.7373 39.1299 68.4093 38.8099C69.0973 38.4899 69.8493 38.3299 70.6653 38.3299C71.7053 38.3299 72.6333 38.5539 73.4493 39.0019C74.2653 39.4339 74.8973 40.0579 75.3453 40.8739C75.7773 40.1059 76.4013 39.4899 77.2173 39.0259C78.0493 38.5619 78.9453 38.3299 79.9053 38.3299ZM87.1977 45.1219C87.1977 43.7779 87.4617 42.5859 87.9897 41.5459C88.5337 40.5059 89.2617 39.7059 90.1737 39.1459C91.1017 38.5859 92.1337 38.3059 93.2697 38.3059C94.2617 38.3059 95.1257 38.5059 95.8617 38.9059C96.6137 39.3059 97.2137 39.8099 97.6617 40.4179V38.5219H101.046V51.8179H97.6617V49.8739C97.2297 50.4979 96.6297 51.0179 95.8617 51.4339C95.1097 51.8339 94.2377 52.0339 93.2457 52.0339C92.1257 52.0339 91.1017 51.7459 90.1737 51.1699C89.2617 50.5939 88.5337 49.7859 87.9897 48.7459C87.4617 47.6899 87.1977 46.4819 87.1977 45.1219ZM97.6617 45.1699C97.6617 44.3539 97.5017 43.6579 97.1817 43.0819C96.8617 42.4899 96.4297 42.0419 95.8857 41.7379C95.3417 41.4179 94.7577 41.2579 94.1337 41.2579C93.5097 41.2579 92.9337 41.4099 92.4057 41.7139C91.8777 42.0179 91.4457 42.4659 91.1097 43.0579C90.7897 43.6339 90.6297 44.3219 90.6297 45.1219C90.6297 45.9219 90.7897 46.6259 91.1097 47.2339C91.4457 47.8259 91.8777 48.2819 92.4057 48.6019C92.9497 48.9219 93.5257 49.0819 94.1337 49.0819C94.7577 49.0819 95.3417 48.9299 95.8857 48.6259C96.4297 48.3059 96.8617 47.8579 97.1817 47.2819C97.5017 46.6899 97.6617 45.9859 97.6617 45.1699ZM107.207 40.5859C107.639 39.8819 108.199 39.3299 108.887 38.9299C109.591 38.5299 110.391 38.3299 111.287 38.3299V41.8579H110.399C109.343 41.8579 108.543 42.1059 107.999 42.6019C107.471 43.0979 107.207 43.9619 107.207 45.1939V51.8179H103.847V38.5219H107.207V40.5859ZM120.942 51.8179L116.43 46.1539V51.8179H113.07V34.0579H116.43V44.1619L120.894 38.5219H125.262L119.406 45.1939L125.31 51.8179H120.942ZM138.966 44.8819C138.966 45.3619 138.934 45.7939 138.87 46.1779H129.15C129.23 47.1379 129.566 47.8899 130.158 48.4339C130.75 48.9779 131.478 49.2499 132.342 49.2499C133.59 49.2499 134.478 48.7139 135.006 47.6419H138.63C138.246 48.9219 137.51 49.9779 136.422 50.8099C135.334 51.6259 133.998 52.0339 132.414 52.0339C131.134 52.0339 129.982 51.7539 128.958 51.1939C127.95 50.6179 127.158 49.8099 126.582 48.7699C126.022 47.7299 125.742 46.5299 125.742 45.1699C125.742 43.7939 126.022 42.5859 126.582 41.5459C127.142 40.5059 127.926 39.7059 128.934 39.1459C129.942 38.5859 131.102 38.3059 132.414 38.3059C133.678 38.3059 134.806 38.5779 135.798 39.1219C136.806 39.6659 137.582 40.4419 138.126 41.4499C138.686 42.4419 138.966 43.5859 138.966 44.8819ZM135.486 43.9219C135.47 43.0579 135.158 42.3699 134.55 41.8579C133.942 41.3299 133.198 41.0659 132.318 41.0659C131.486 41.0659 130.782 41.3219 130.206 41.8339C129.646 42.3299 129.302 43.0259 129.174 43.9219H135.486ZM144.851 41.2819V47.7139C144.851 48.1619 144.955 48.4899 145.163 48.6979C145.387 48.8899 145.755 48.9859 146.267 48.9859H147.827V51.8179H145.715C142.883 51.8179 141.467 50.4419 141.467 47.6899V41.2819H139.883V38.5219H141.467V35.2339H144.851V38.5219H147.827V41.2819H144.851ZM153.123 40.4419C153.555 39.8339 154.147 39.3299 154.899 38.9299C155.667 38.5139 156.539 38.3059 157.515 38.3059C158.651 38.3059 159.675 38.5859 160.587 39.1459C161.515 39.7059 162.243 40.5059 162.771 41.5459C163.315 42.5699 163.587 43.7619 163.587 45.1219C163.587 46.4819 163.315 47.6899 162.771 48.7459C162.243 49.7859 161.515 50.5939 160.587 51.1699C159.675 51.7459 158.651 52.0339 157.515 52.0339C156.539 52.0339 155.675 51.8339 154.923 51.4339C154.187 51.0339 153.587 50.5299 153.123 49.9219V58.1539H149.763V38.5219H153.123V40.4419ZM160.155 45.1219C160.155 44.3219 159.987 43.6339 159.651 43.0579C159.331 42.4659 158.899 42.0179 158.355 41.7139C157.827 41.4099 157.251 41.2579 156.627 41.2579C156.019 41.2579 155.443 41.4179 154.899 41.7379C154.371 42.0419 153.939 42.4899 153.603 43.0819C153.283 43.6739 153.123 44.3699 153.123 45.1699C153.123 45.9699 153.283 46.6659 153.603 47.2579C153.939 47.8499 154.371 48.3059 154.899 48.6259C155.443 48.9299 156.019 49.0819 156.627 49.0819C157.251 49.0819 157.827 48.9219 158.355 48.6019C158.899 48.2819 159.331 47.8259 159.651 47.2339C159.987 46.6419 160.155 45.9379 160.155 45.1219ZM168.909 34.0579V51.8179H165.549V34.0579H168.909ZM170.885 45.1219C170.885 43.7779 171.149 42.5859 171.677 41.5459C172.221 40.5059 172.949 39.7059 173.861 39.1459C174.789 38.5859 175.821 38.3059 176.957 38.3059C177.949 38.3059 178.813 38.5059 179.549 38.9059C180.301 39.3059 180.901 39.8099 181.349 40.4179V38.5219H184.733V51.8179H181.349V49.8739C180.917 50.4979 180.317 51.0179 179.549 51.4339C178.797 51.8339 177.925 52.0339 176.933 52.0339C175.813 52.0339 174.789 51.7459 173.861 51.1699C172.949 50.5939 172.221 49.7859 171.677 48.7459C171.149 47.6899 170.885 46.4819 170.885 45.1219ZM181.349 45.1699C181.349 44.3539 181.189 43.6579 180.869 43.0819C180.549 42.4899 180.117 42.0419 179.573 41.7379C179.029 41.4179 178.445 41.2579 177.821 41.2579C177.197 41.2579 176.621 41.4099 176.093 41.7139C175.565 42.0179 175.133 42.4659 174.797 43.0579C174.477 43.6339 174.317 44.3219 174.317 45.1219C174.317 45.9219 174.477 46.6259 174.797 47.2339C175.133 47.8259 175.565 48.2819 176.093 48.6019C176.637 48.9219 177.213 49.0819 177.821 49.0819C178.445 49.0819 179.029 48.9299 179.573 48.6259C180.117 48.3059 180.549 47.8579 180.869 47.2819C181.189 46.6899 181.349 45.9859 181.349 45.1699ZM186.67 45.1699C186.67 43.7939 186.95 42.5939 187.51 41.5699C188.07 40.5299 188.846 39.7299 189.838 39.1699C190.83 38.5939 191.966 38.3059 193.246 38.3059C194.894 38.3059 196.254 38.7219 197.326 39.5539C198.414 40.3699 199.142 41.5219 199.51 43.0099H195.886C195.694 42.4339 195.366 41.9859 194.902 41.6659C194.454 41.3299 193.894 41.1619 193.222 41.1619C192.262 41.1619 191.502 41.5139 190.942 42.2179C190.382 42.9059 190.102 43.8899 190.102 45.1699C190.102 46.4339 190.382 47.4179 190.942 48.1219C191.502 48.8099 192.262 49.1539 193.222 49.1539C194.582 49.1539 195.47 48.5459 195.886 47.3299H199.51C199.142 48.7699 198.414 49.9139 197.326 50.7619C196.238 51.6099 194.878 52.0339 193.246 52.0339C191.966 52.0339 190.83 51.7539 189.838 51.1939C188.846 50.6179 188.07 49.8179 187.51 48.7939C186.95 47.7539 186.67 46.5459 186.67 45.1699ZM213.852 44.8819C213.852 45.3619 213.82 45.7939 213.756 46.1779H204.036C204.116 47.1379 204.452 47.8899 205.044 48.4339C205.636 48.9779 206.364 49.2499 207.228 49.2499C208.476 49.2499 209.364 48.7139 209.892 47.6419H213.516C213.132 48.9219 212.396 49.9779 211.308 50.8099C210.22 51.6259 208.884 52.0339 207.3 52.0339C206.02 52.0339 204.868 51.7539 203.844 51.1939C202.836 50.6179 202.044 49.8099 201.468 48.7699C200.908 47.7299 200.628 46.5299 200.628 45.1699C200.628 43.7939 200.908 42.5859 201.468 41.5459C202.028 40.5059 202.812 39.7059 203.82 39.1459C204.828 38.5859 205.988 38.3059 207.3 38.3059C208.564 38.3059 209.692 38.5779 210.684 39.1219C211.692 39.6659 212.468 40.4419 213.012 41.4499C213.572 42.4419 213.852 43.5859 213.852 44.8819ZM210.372 43.9219C210.356 43.0579 210.044 42.3699 209.436 41.8579C208.828 41.3299 208.084 41.0659 207.204 41.0659C206.372 41.0659 205.668 41.3219 205.092 41.8339C204.532 42.3299 204.188 43.0259 204.06 43.9219H210.372Z" fill="white"/>
<defs>
<radialGradient id="paint0_radial_78_5629" cx="0" cy="0" r="1" gradientUnits="userSpaceOnUse" gradientTransform="translate(27.8441 2.03573) rotate(165.766) scale(7.57144 2.58124)">
<stop offset="0.218068" stop-color="#09ABF9"/>
<stop offset="0.685417" stop-color="#01CC7F"/>
</radialGradient>
<radialGradient id="paint1_radial_78_5629" cx="0" cy="0" r="1" gradientUnits="userSpaceOnUse" gradientTransform="translate(32.3352 1.60672) rotate(159.703) scale(3.39418 0.962817)">
<stop offset="0.218068" stop-color="#09ABF9"/>
<stop offset="0.685417" stop-color="#01CC7F"/>
</radialGradient>
<radialGradient id="paint2_radial_78_5629" cx="0" cy="0" r="1" gradientUnits="userSpaceOnUse" gradientTransform="translate(38.0899 2.2705) rotate(-22.4047) scale(4.59406 1.30318)">
<stop offset="0.218068" stop-color="#09ABF9"/>
<stop offset="0.685417" stop-color="#01CC7F"/>
</radialGradient>
<radialGradient id="paint3_radial_78_5629" cx="0" cy="0" r="1" gradientUnits="userSpaceOnUse" gradientTransform="translate(36.6436 0.132518) rotate(-22.4047) scale(2.10789 0.597939)">
<stop offset="0.218068" stop-color="#09ABF9"/>
<stop offset="0.685417" stop-color="#01CC7F"/>
</radialGradient>
<radialGradient id="paint4_radial_78_5629" cx="0" cy="0" r="1" gradientUnits="userSpaceOnUse" gradientTransform="translate(35.202 30.6762) rotate(145.501) scale(1.69576 0.48103)">
<stop offset="0.218068" stop-color="#09ABF9"/>
<stop offset="0.685417" stop-color="#01CC7F"/>
</radialGradient>
<radialGradient id="paint5_radial_78_5629" cx="0" cy="0" r="1" gradientUnits="userSpaceOnUse" gradientTransform="translate(37.3113 24.822) rotate(-22.4047) scale(2.19549 0.622788)">
<stop offset="0.218068" stop-color="#09ABF9"/>
<stop offset="0.685417" stop-color="#01CC7F"/>
</radialGradient>
<radialGradient id="paint6_radial_78_5629" cx="0" cy="0" r="1" gradientUnits="userSpaceOnUse" gradientTransform="translate(29.1807 31.2606) rotate(147.105) scale(7.57144 2.58124)">
<stop offset="0.218068" stop-color="#09ABF9"/>
<stop offset="0.685417" stop-color="#01CC7F"/>
</radialGradient>
<radialGradient id="paint7_radial_78_5629" cx="0" cy="0" r="1" gradientUnits="userSpaceOnUse" gradientTransform="translate(5.11307 51.8227) rotate(163.798) scale(116.745 69.4297)">
<stop offset="0.294792" stop-color="#09ABF9"/>
<stop offset="0.445833" stop-color="#29FFFF"/>
</radialGradient>
</defs>
</svg>
