<svg width="14" height="20" viewBox="0 0 14 20" fill="none" xmlns="http://www.w3.org/2000/svg">
<path d="M11.3519 0C11.8121 0 12.1852 0.373096 12.1852 0.833333V2.5C12.1852 2.96024 11.8121 3.33333 11.3519 3.33333C10.8917 3.33333 10.5186 2.96024 10.5186 2.5V0.833333C10.5186 0.373096 10.8917 0 11.3519 0Z" fill="#777E91"/>
<path d="M11.3519 10C11.8121 10 12.1852 10.3731 12.1852 10.8333V15.8333C12.1852 16.2936 11.8121 16.6667 11.3519 16.6667C10.8917 16.6667 10.5186 16.2936 10.5186 15.8333V10.8333C10.5186 10.3731 10.8917 10 11.3519 10Z" fill="#777E91"/>
<path d="M3.01858 3.33333C3.47881 3.33333 3.85191 3.70643 3.85191 4.16667V10.8333C3.85191 11.2936 3.47881 11.6667 3.01858 11.6667C2.55834 11.6667 2.18524 11.2936 2.18524 10.8333V4.16667C2.18524 3.70643 2.55834 3.33333 3.01858 3.33333Z" fill="#777E91"/>
<path d="M3.01858 15C3.47881 15 3.85191 15.3731 3.85191 15.8333V19.1667C3.85191 19.6269 3.47881 20 3.01858 20C2.55834 20 2.18524 19.6269 2.18524 19.1667V15.8333C2.18524 15.3731 2.55834 15 3.01858 15Z" fill="#777E91"/>
<path fill-rule="evenodd" clip-rule="evenodd" d="M8.85189 4.16675C8.85189 2.78604 9.97118 1.66675 11.3519 1.66675C12.7326 1.66675 13.8519 2.78604 13.8519 4.16675V9.16675C13.8519 10.5475 12.7326 11.6667 11.3519 11.6667C9.97118 11.6667 8.85189 10.5475 8.85189 9.16675V4.16675ZM12.1852 4.16675V9.16675C12.1852 9.62698 11.8121 10.0001 11.3519 10.0001C10.8917 10.0001 10.5186 9.62698 10.5186 9.16675V4.16675C10.5186 3.70651 10.8917 3.33341 11.3519 3.33341C11.8121 3.33341 12.1852 3.70651 12.1852 4.16675Z" fill="#777E91"/>
<path fill-rule="evenodd" clip-rule="evenodd" d="M0.518555 12.5001C0.518555 11.1194 1.63784 10.0001 3.01855 10.0001C4.39927 10.0001 5.51855 11.1194 5.51855 12.5001V14.1667C5.51855 15.5475 4.39927 16.6667 3.01855 16.6667C1.63784 16.6667 0.518555 15.5475 0.518555 14.1667V12.5001ZM3.85189 12.5001V14.1667C3.85189 14.627 3.47879 15.0001 3.01855 15.0001C2.55832 15.0001 2.18522 14.627 2.18522 14.1667V12.5001C2.18522 12.0398 2.55832 11.6667 3.01855 11.6667C3.47879 11.6667 3.85189 12.0398 3.85189 12.5001Z" fill="#777E91"/>
</svg>
