<svg width="20" height="16" viewBox="0 0 20 16" fill="none" xmlns="http://www.w3.org/2000/svg">
<path d="M9.53597 1.98799L9.88235 2.32075L10.2287 1.98799C11.1886 1.06586 12.4904 0.5 13.9251 0.5C16.8736 0.5 19.2647 2.89285 19.2647 5.84567C19.2647 8.5091 17.8121 10.6057 15.9863 12.1924C14.1601 13.7796 12.0123 14.8086 10.7577 15.3252C10.1916 15.5583 9.57306 15.5583 9.00705 15.3252C7.75243 14.8086 5.60461 13.7796 3.77837 12.1924C1.95256 10.6057 0.5 8.50911 0.5 5.84567C0.5 2.89285 2.8911 0.5 5.83957 0.5C7.27431 0.5 8.57606 1.06586 9.53597 1.98799Z" stroke="#777E90"/>
</svg>
