<svg width="189" height="56" viewBox="0 0 189 56" fill="none" xmlns="http://www.w3.org/2000/svg">
<path d="M23.8356 1.89178C23.6296 1.56046 24.1026 0.991051 25.444 0.341258C26.2804 -0.0866506 26.6668 -0.00719885 26.7463 0.220705C26.8861 0.621576 26.5667 1.11317 25.5727 1.73097C24.9099 2.14256 24.0414 2.22297 23.8356 1.89178Z" fill="url(#paint0_radial_1_13766)"/>
<path d="M27.867 1.45724C27.7615 1.3484 27.9477 1.10627 28.5166 0.776567C28.8703 0.56258 29.0453 0.566243 29.0903 0.645254C29.1693 0.784231 29.0481 0.987348 28.6323 1.28207C28.355 1.47847 27.9724 1.56605 27.867 1.45724Z" fill="url(#paint1_radial_1_13766)"/>
<path d="M33.0908 1.87218C33.2389 2.01416 32.9991 2.35093 32.2461 2.8252C31.7783 3.13224 31.5413 3.136 31.4766 3.03137C31.3628 2.84732 31.5167 2.56655 32.0644 2.14721C32.4296 1.86777 32.9428 1.73026 33.0908 1.87218Z" fill="url(#paint2_radial_1_13766)"/>
<path d="M31.7639 0.0720537C31.8318 0.137137 31.7219 0.291516 31.3767 0.508925C31.1623 0.649678 31.0536 0.651401 31.024 0.603436C30.9718 0.519068 31.0424 0.39036 31.2934 0.19813C31.4608 0.0700333 31.6961 0.00699727 31.7639 0.0720537Z" fill="url(#paint3_radial_1_13766)"/>
<path d="M30.4087 26.5839C30.3443 26.5442 30.4047 26.4042 30.6396 26.175C30.7846 26.0281 30.8697 26.0085 30.9012 26.0412C30.9564 26.0988 30.9226 26.2119 30.7575 26.4054C30.6474 26.5344 30.473 26.6236 30.4087 26.5839Z" fill="url(#paint4_radial_1_13766)"/>
<path d="M32.3436 21.4283C32.4143 21.4961 32.2998 21.6569 31.9402 21.8833C31.7169 22.0299 31.6037 22.0317 31.5728 21.9818C31.5185 21.8939 31.592 21.7598 31.8535 21.5596C32.0279 21.4262 32.2729 21.3605 32.3436 21.4283Z" fill="url(#paint5_radial_1_13766)"/>
<path d="M25.0471 27.2454C24.746 26.9974 25.0119 26.3066 26.0749 25.2618C26.7304 24.5887 27.1219 24.5404 27.2701 24.7309C27.5309 25.0659 27.3856 25.6339 26.6415 26.5372C26.1453 27.1393 25.3481 27.4933 25.0471 27.2454Z" fill="url(#paint6_radial_1_13766)"/>
<path d="M23.5536 33.5188C24.4067 32.6089 23.2471 32.0763 22.9963 31.2777C22.6335 30.1225 25.3847 30.9934 26.5327 30.6082C27.4629 30.296 28.9355 31.5361 29.7874 31.0492C31.2294 30.225 34.1581 25.1652 34.9538 24.8519C37.688 23.7752 34.9538 30.7722 34.9538 33.7104C34.9538 35.2892 34.296 36.4732 32.8488 37.2188C30.3491 38.5782 27.8494 40.0254 25.4374 41.5165C23.9464 42.3935 22.5869 42.4374 21.0958 41.5165C18.5961 40.0254 16.0965 38.5782 13.5529 37.1749C12.1496 36.3855 11.5356 35.2453 11.5356 33.7104C11.5356 30.7722 11.5356 27.7901 11.5356 24.8519C11.5356 23.2731 12.2373 22.1329 13.6406 21.3436C19.3417 18.0545 25.0427 14.7654 30.6999 11.3886C33.375 9.76603 35.9624 9.63446 38.6375 11.3448C40.304 12.3973 42.0143 13.2744 43.6807 14.283C45.5665 15.4232 46.4874 17.1774 46.4874 19.414C46.4874 25.9921 46.4874 32.5702 46.4874 39.1483C46.4874 41.9989 44.8648 43.7092 42.5406 45.0248C37.585 47.8753 32.5856 50.6382 27.7178 53.6202C24.648 55.506 21.8852 55.5498 18.8154 53.6202C14.0792 50.682 9.1675 48.0069 4.34354 45.2002C3.77343 44.8932 3.24718 44.5424 2.72093 44.1916C0.922903 43.0075 0.0019594 41.2972 0.0019594 39.1483C0.0019594 32.5702 0.0019594 25.9921 0.0019594 19.414C0.0019594 16.5634 1.62457 14.8531 3.94884 13.5375C9.03593 10.6431 14.0792 7.70488 19.1663 4.76665C19.5171 4.54738 19.9118 4.37196 20.2626 4.19655C22.2361 3.10019 17.7629 8.39526 26.2268 4.15269C34.6906 -0.0898778 19.1663 9.93005 28.0687 6.42182C36.9711 2.91359 27.1039 8.31884 25.2181 9.41519C20.3065 12.2657 15.4387 15.204 10.4831 17.9229C8.07115 19.2385 7.01863 20.905 7.15019 23.7117C7.32561 27.6147 7.28175 31.5177 7.15019 35.4207C7.10634 37.6573 7.93957 39.1045 9.86916 40.157C13.4214 42.1304 16.9735 44.1916 20.4819 46.2966C22.3676 47.3929 24.1218 47.4368 26.0075 46.3404C29.5597 44.2354 33.1119 42.1743 36.7518 40.157C38.5498 39.1483 39.4708 37.7889 39.4269 35.64C39.3392 31.3423 39.2515 27.0007 39.4269 22.703C39.6023 19.107 35.7431 17.0897 32.8926 18.8439C29.1212 21.1681 25.2181 23.317 21.359 25.5097C18.8154 26.9569 17.8971 29.9001 21.4905 32.2957C22.1483 32.7342 23.3464 33.7399 23.5536 33.5188Z" fill="url(#paint7_radial_1_13766)"/>
<path d="M68.8074 15.1368C68.4748 14.5389 68.0176 14.0837 67.4357 13.7711C66.8537 13.4586 66.1748 13.3023 65.3989 13.3023C64.5398 13.3023 63.7778 13.4925 63.1127 13.873C62.4477 14.2535 61.9281 14.7971 61.554 15.5038C61.1799 16.2104 60.9928 17.0258 60.9928 17.9498C60.9928 18.9011 61.1799 19.73 61.554 20.4367C61.9419 21.1433 62.4754 21.6869 63.1543 22.0674C63.8332 22.4479 64.623 22.6381 65.5236 22.6381C66.632 22.6381 67.5396 22.3527 68.2462 21.782C68.9529 21.1977 69.417 20.3891 69.6387 19.3563H64.6507L65.5236 16.3803L72.5068 17.1752V19.6621C72.3128 20.6541 71.8972 21.5714 71.2598 22.4139C70.6225 23.2564 69.7981 23.9359 68.7866 24.4523C67.789 24.9551 66.6667 25.2065 65.4197 25.2065C64.0203 25.2065 62.7525 24.9007 61.6163 24.2892C60.494 23.6641 59.6073 22.8012 58.956 21.7005C58.3187 20.5997 58 19.3495 58 17.9498C58 16.5501 58.3187 15.2999 58.956 14.1992C59.6073 13.0849 63.5284 9.11175 64.6507 8.50023C65.7869 7.87513 64.138 10.856 65.5236 10.856C67.1586 10.856 68.4333 10.6592 69.6387 11.4474C70.8442 12.2219 71.6963 13.7236 72.1535 15.1368H68.8074Z" fill="white"/>
<path d="M81.7259 25.0842L78.5252 19.5398H77.1535V25.0842H74.2439V10.8562L79.5 9L81 8L80 10.5C81.1223 10.5 81.7675 11.0533 82.5572 11.4474C86 9.5 83.9359 12.351 84.3238 13.0169C84.7256 13.6692 84.9265 14.403 84.9265 15.2184C84.9265 16.156 84.6494 17.0054 84.0952 17.7664C83.541 18.5138 82.7166 19.0302 81.622 19.3155L85.0928 25.0842H81.7259ZM77.1535 17.3995H79.5852C80.375 17.3995 80.9638 17.216 81.3518 16.8491C81.7397 16.4686 81.9337 15.9454 81.9337 15.2795C81.9337 14.6272 82.0099 13.5741 81.622 13.2208C81.234 12.8538 80.375 13.2208 79.5852 13.2208H77.1535V17.3995Z" fill="white"/>
<path d="M92.2553 25.2676C91.1468 25.2676 90.1492 25.0298 89.2625 24.5542C88.3757 24.065 87.676 23.3787 87.1634 22.4954C86.6646 21.6121 86.4152 20.5929 86.4152 19.4378C86.4152 18.2828 86.6715 17.2636 87.1841 16.3803C87.7107 15.497 88.4242 14.8175 89.3248 14.3419C90.2254 13.8527 92.6225 12 93.7309 12C94.8394 12 94.4514 13.8527 95.352 14.3419C96.2526 14.8175 97.5907 14.2535 98.1034 15.1368C98.6299 16.0201 98.2617 18.2828 98.2617 19.4378C98.2617 20.5929 97.9915 21.6121 97.4511 22.4954C96.9246 23.3787 96.2041 24.065 95.2897 24.5542C94.3891 25.0298 93.3776 25.2676 92.2553 25.2676ZM92.2553 22.7808C92.7818 22.7808 93.2737 22.6585 93.7309 22.4139C94.202 22.1557 94.5761 21.7752 94.8532 21.2724C95.1303 20.7696 95.2689 20.1581 95.2689 19.4378C95.2689 18.3643 95.4352 16.6656 94.8532 16.0949C94.2851 15.5105 93.1282 16.0949 92.2969 16.0949C91.4655 16.0949 90.7658 16.3871 90.1977 16.9714C89.6435 17.5421 89.3664 18.3643 89.3664 19.4378C89.3664 20.5114 89.6366 21.3403 90.177 21.9247C90.7312 22.4954 91.424 22.7808 92.2553 22.7808Z" fill="white"/>
<path d="M103.5 9L102.89 25.0842H99.9804V10.0001L103.5 9Z" fill="white"/>
<path d="M108.259 9V25.0842H105.349V10.0001L108.259 9Z" fill="white"/>
<path d="M73.0056 33.163C74.4189 33.163 75.5551 33.5911 76.4141 34.4472C77.287 35.2897 77.7235 36.472 77.7235 37.994V44.6188H74.8138V38.3813C74.8138 37.498 74.5852 36.8253 74.1279 36.3633C73.6707 35.8876 73.0472 35.6498 72.2574 35.6498C71.4677 35.6498 70.8372 35.8876 70.3661 36.3633C69.9089 36.8253 69.6803 37.498 69.6803 38.3813V44.6188H66.7706V38.3813C66.7706 37.498 66.542 36.8253 66.0848 36.3633C65.6275 35.8876 65.004 35.6498 64.2142 35.6498C63.4106 35.6498 62.7733 35.8876 62.3022 36.3633C61.8449 36.8253 61.6163 37.498 61.6163 38.3813V44.6188H58.7066V33.3261H61.6163V34.6918C61.9904 34.2162 62.4684 33.8425 63.0504 33.5707C64.2142 32.2484 64.2974 33.163 65.004 33.163C68 31 66.7083 33.3533 67.4149 33.7337C68.1215 34.1007 68.6688 34.6306 69.0568 35.3237C69.4309 34.6714 69.9712 34.1482 70.6779 33.7541C71.3984 33.36 72.1743 33.163 73.0056 33.163Z" fill="white"/>
<path d="M79.3207 38.9316C79.3207 37.7901 79.5493 36.7777 80.0066 35.8944C80.4776 35.0111 81.503 33.6182 82.2927 33.1426C83.0964 32.667 83.5952 33.1426 84.5789 33.1426C85.438 33.1426 86.5 32.5 86.8235 33.6522C87.4747 33.9919 87.9943 34.42 88.3823 34.9364V33.3261L91.3127 32.8306V44.6188H88.3823V42.9677C88.0082 43.4976 87.4886 43.9393 86.8235 44.2926C86.1723 44.6323 85.4172 44.8022 84.5581 44.8022C83.5882 44.8022 82.7015 44.5576 81.8978 44.0684C81.1081 43.5792 80.4776 42.8929 80.0066 42.0096C79.5493 41.1127 79.3207 40.0867 79.3207 38.9316ZM88.3823 38.9724C88.3823 38.2794 88.2437 37.6882 87.9666 37.199C87.6895 36.6962 87.3154 36.3157 86.8443 36.0575C86.3732 35.7857 85.8675 35.6498 85.3271 35.6498C84.7867 35.6498 84.2879 35.7789 83.8307 36.0371C83.3735 36.2953 82.9994 36.6758 82.7084 37.1786C82.4313 37.6678 82.2927 38.2522 82.2927 38.9316C82.2927 39.6111 82.4313 40.209 82.7084 40.7254C82.9994 41.2282 83.3735 41.6155 83.8307 41.8873C84.3018 42.1591 84.8006 42.295 85.3271 42.295C85.8675 42.295 86.3732 42.1659 86.8443 41.9077C87.3154 41.6359 87.6895 41.2554 87.9666 40.7662C88.2437 40.2634 88.3823 39.6655 88.3823 38.9724Z" fill="white"/>
<path d="M96.6486 35.0791C97.0227 34.4812 97.9042 33.1703 98.5 32.8306C99.1096 32.4909 99.4058 33.163 100.182 33.163V36.1594H99.4127C98.4983 36.1594 97.8055 36.3701 97.3344 36.7913C96.8772 37.2126 96.6486 37.9464 96.6486 38.9928V44.6188H93.7389V33.3261H96.6486V35.0791Z" fill="white"/>
<path d="M108.543 44.6188L104.636 39.8082V44.6188H101.726V29.5347L104.636 29V38.1163L108.501 33.3261L111 32L112.284 33.3261L107.213 38.9928L112.325 44.6188H108.543Z" fill="white"/>
<path d="M124.151 38.7278C124.151 39.1355 124.123 39.5024 124.068 39.8285H115.65C115.72 40.6439 116.011 41.2826 116.523 41.7446C117.036 42.2067 117.666 42.4377 118.415 42.4377C119.495 42.4377 120.264 41.9824 120.722 41.0719H123.86C123.527 42.1591 122.89 43.056 121.948 43.7626C121.006 44.4557 119.849 44.8022 118.477 44.8022C117.369 44.8022 116.371 44.5644 115.484 44.0888C114.611 43.5996 113.925 42.9133 113.427 42.03C112.942 41.1467 112.699 40.1275 112.699 38.9724C112.699 37.8037 112.942 36.7777 113.427 35.8944C113.912 35.0111 114.59 34.3317 115.463 33.8561C116.336 33.3804 117.341 33.1426 118.477 33.1426C119.572 33.1426 120.641 32.538 121.5 33C122.373 33.462 122.952 34.9568 123.423 35.8129C123.908 36.6554 124.151 37.6271 124.151 38.7278ZM121.137 37.9124C121.123 37.1786 120.853 36.5943 120.327 36.1594C119.8 35.711 119.156 35.4868 118.394 35.4868C117.673 35.4868 117.064 35.7042 116.565 36.139C116.08 36.5603 115.782 37.1514 115.671 37.9124H121.137Z" fill="white"/>
<path d="M129.247 35.6702V41.1331C129.247 41.5136 129.337 41.7922 129.517 41.9688C129.711 42.1319 130.03 42.2135 130.473 42.2135H131.824V44.6188H129.995C127.542 44.6188 126.316 43.4501 126.316 41.1127V35.6702H124.945V33.3261H126.316V30.5335L128 30L129.247 30.5335V33.3261H131.824V35.6702H129.247Z" fill="white"/>
<path d="M136.411 34.9568C136.785 34.4404 137.297 34.0123 137.949 33.6726C138.614 33.3193 139.655 32.5 140.5 32.5C141.484 32.5 142.085 33.3804 142.874 33.8561C143.678 34.3317 145.043 33.1167 145.5 34C145.971 34.8697 145.472 37.7766 145.472 38.9316C145.472 40.0867 145.237 41.1127 144.766 42.0096C144.308 42.8929 143.678 43.5792 142.874 44.0684C142.085 44.5576 141.198 44.8022 140.214 44.8022C139.369 44.8022 138.621 44.6323 137.969 44.2926C137.332 43.9529 136.812 43.5248 136.411 43.0084V50.0001H133.501V33.3261H136.411V34.9568ZM142.5 38.9316C142.5 38.2522 142.355 37.6678 142.064 37.1786C141.787 36.6758 141.413 36.2953 140.941 36.0371C140.484 35.7789 139.985 35.6498 139.445 35.6498C138.919 35.6498 138.42 35.7857 137.949 36.0575C137.491 36.3157 137.117 36.6962 136.826 37.199C136.549 37.7018 136.411 38.2929 136.411 38.9724C136.411 39.6519 136.549 40.243 136.826 40.7458C137.117 41.2486 137.491 41.6359 137.949 41.9077C138.42 42.1659 138.919 42.295 139.445 42.295C139.985 42.295 140.484 42.1591 140.941 41.8873C141.413 41.6155 141.787 41.2282 142.064 40.7254C142.355 40.2226 142.5 39.6247 142.5 38.9316Z" fill="white"/>
<path d="M150 29L150.081 44.6188H147.171V29.5347L150 29Z" fill="white"/>
<path d="M151.792 38.9316C151.792 37.7901 152.02 36.7777 152.477 35.8944C152.948 35.0111 153.579 34.3317 154.369 33.8561C155.172 33.3804 156.066 33.1426 157.05 33.1426C157.909 33.1426 158.863 32.6603 159.5 33C160.151 33.3397 160.465 34.42 160.853 34.9364V33.3261H163.784V44.6188H160.853V42.9677C160.479 43.4976 159.959 43.9393 159.294 44.2926C158.643 44.6323 157.888 44.8022 157.029 44.8022C156.059 44.8022 155.172 44.5576 154.369 44.0684C153.579 43.5792 152.948 42.8929 152.477 42.0096C152.02 41.1127 151.792 40.0867 151.792 38.9316ZM160.853 38.9724C160.853 38.2794 160.715 37.6882 160.437 37.199C160.16 36.6962 159.786 36.3157 159.315 36.0575C158.844 35.7857 158.338 35.6498 157.798 35.6498C157.258 35.6498 156.759 35.7789 156.302 36.0371C155.844 36.2953 155.47 36.6758 155.179 37.1786C154.902 37.6678 154.764 38.2522 154.764 38.9316C154.764 39.6111 154.902 40.209 155.179 40.7254C155.47 41.2282 155.844 41.6155 156.302 41.8873C156.773 42.1591 157.271 42.295 157.798 42.295C158.338 42.295 158.844 42.1659 159.315 41.9077C159.786 41.6359 160.16 41.2554 160.437 40.7662C160.715 40.2634 160.853 39.6655 160.853 38.9724Z" fill="white"/>
<path d="M165.461 38.9724C165.461 37.8037 165.704 36.7845 166.189 35.9148C166.674 35.0315 167.346 34.3521 168.205 33.8764C169.064 33.3872 170.392 32.5 171.5 32.5C172.927 32.5 175 32 174.689 34.2026C175.632 34.8956 176.262 35.8741 176.581 37.1379H173.442C173.276 36.6486 172.992 36.2681 172.59 35.9964C172.202 35.711 171.717 35.5683 171.135 35.5683C170.304 35.5683 169.646 35.8673 169.161 36.4652C168.676 37.0495 168.434 37.8853 168.434 38.9724C168.434 40.046 168.676 40.8817 169.161 41.4796C169.646 42.064 170.304 42.3561 171.135 42.3561C172.313 42.3561 173.082 41.8397 173.442 40.807H176.581C176.262 42.03 175.632 43.0016 174.689 43.7219C173.747 44.4421 172.569 44.8022 171.156 44.8022C170.048 44.8022 169.064 44.5644 168.205 44.0888C167.346 43.5996 166.674 42.9201 166.189 42.0504C165.704 41.1671 165.461 40.1411 165.461 38.9724Z" fill="white"/>
<path d="M189 38.7278C189 39.1355 188.972 39.5024 188.917 39.8285H180.5C180.569 40.6439 180.86 41.2826 181.372 41.7446C181.885 42.2067 182.516 42.4377 183.264 42.4377C184.345 42.4377 185.113 41.9824 185.571 41.0719H188.709C188.376 42.1591 187.739 43.056 186.797 43.7626C185.855 44.4557 184.698 44.8022 183.326 44.8022C182.218 44.8022 181.22 44.5644 180.333 44.0888C179.46 43.5996 178.775 42.9133 178.276 42.03C177.791 41.1467 177.548 40.1275 177.548 38.9724C177.548 37.8037 177.791 36.7777 178.276 35.8944C178.761 35.0111 179.44 34.3317 180.313 33.8561C181.185 33.3804 182.864 32.5 184 32.5C185.095 32.5 185.398 33.3736 186.257 33.8357C187.13 34.2977 188.029 34.1439 188.5 35C188.985 35.8425 189 37.6271 189 38.7278ZM185.986 37.9124C185.973 37.1786 185.702 36.5943 185.176 36.1594C184.649 35.711 184.005 35.4868 183.243 35.4868C182.522 35.4868 181.913 35.7042 181.414 36.139C180.929 36.5603 180.631 37.1514 180.52 37.9124H185.986Z" fill="white"/>
<defs>
<radialGradient id="paint0_radial_1_13766" cx="0" cy="0" r="1" gradientUnits="userSpaceOnUse" gradientTransform="translate(24.0871 1.76027) rotate(165.766) scale(6.54995 2.23299)">
<stop offset="0.218068" stop-color="#09ABF9"/>
<stop offset="0.685417" stop-color="#01CC7F"/>
</radialGradient>
<radialGradient id="paint1_radial_1_13766" cx="0" cy="0" r="1" gradientUnits="userSpaceOnUse" gradientTransform="translate(27.9732 1.39184) rotate(159.703) scale(2.93626 0.832921)">
<stop offset="0.218068" stop-color="#09ABF9"/>
<stop offset="0.685417" stop-color="#01CC7F"/>
</radialGradient>
<radialGradient id="paint2_radial_1_13766" cx="0" cy="0" r="1" gradientUnits="userSpaceOnUse" gradientTransform="translate(32.9504 1.96593) rotate(-22.4047) scale(3.97426 1.12737)">
<stop offset="0.218068" stop-color="#09ABF9"/>
<stop offset="0.685417" stop-color="#01CC7F"/>
</radialGradient>
<radialGradient id="paint3_radial_1_13766" cx="0" cy="0" r="1" gradientUnits="userSpaceOnUse" gradientTransform="translate(31.6996 0.115029) rotate(-22.4047) scale(1.82184 0.516795)">
<stop offset="0.218068" stop-color="#09ABF9"/>
<stop offset="0.685417" stop-color="#01CC7F"/>
</radialGradient>
<radialGradient id="paint4_radial_1_13766" cx="0" cy="0" r="1" gradientUnits="userSpaceOnUse" gradientTransform="translate(30.4521 26.5392) rotate(145.501) scale(1.46563 0.415751)">
<stop offset="0.218068" stop-color="#09ABF9"/>
<stop offset="0.685417" stop-color="#01CC7F"/>
</radialGradient>
<radialGradient id="paint5_radial_1_13766" cx="0" cy="0" r="1" gradientUnits="userSpaceOnUse" gradientTransform="translate(32.2765 21.473) rotate(-22.4047) scale(1.89755 0.538272)">
<stop offset="0.218068" stop-color="#09ABF9"/>
<stop offset="0.685417" stop-color="#01CC7F"/>
</radialGradient>
<radialGradient id="paint6_radial_1_13766" cx="0" cy="0" r="1" gradientUnits="userSpaceOnUse" gradientTransform="translate(25.2434 27.0403) rotate(147.105) scale(6.54995 2.23299)">
<stop offset="0.218068" stop-color="#09ABF9"/>
<stop offset="0.685417" stop-color="#01CC7F"/>
</radialGradient>
<radialGradient id="paint7_radial_1_13766" cx="0" cy="0" r="1" gradientUnits="userSpaceOnUse" gradientTransform="translate(4.42351 44.8319) rotate(163.798) scale(100.995 60.0627)">
<stop offset="0.294792" stop-color="#09ABF9"/>
<stop offset="0.445833" stop-color="#29FFFF"/>
</radialGradient>
</defs>
</svg>
