<svg width="54" height="64" viewBox="0 0 54 64" fill="none" xmlns="http://www.w3.org/2000/svg">
<path d="M27.5533 2.18765C27.3152 1.80466 27.8619 1.14644 29.4126 0.395314C30.3794 -0.0993278 30.826 -0.00748536 30.9179 0.255961C31.0795 0.719349 30.7104 1.28761 29.5613 2.00175C28.7952 2.47754 27.7912 2.57048 27.5533 2.18765Z" fill="url(#paint0_radial_668_4413)"/>
<path d="M32.2133 1.68245C32.0914 1.55663 32.3067 1.27674 32.9642 0.895623C33.3731 0.648265 33.5755 0.652498 33.6274 0.743832C33.7187 0.904483 33.5786 1.13928 33.098 1.47997C32.7775 1.70698 32.3352 1.80823 32.2133 1.68245Z" fill="url(#paint1_radial_668_4413)"/>
<path d="M38.2523 2.16206C38.4235 2.32617 38.1463 2.71547 37.2758 3.2637C36.7351 3.61863 36.4612 3.62297 36.3864 3.50202C36.2548 3.28927 36.4327 2.96472 37.0658 2.47998C37.488 2.15696 38.0812 1.99801 38.2523 2.16206Z" fill="url(#paint2_radial_668_4413)"/>
<path d="M36.7172 0.0829285C36.7957 0.15823 36.6685 0.336849 36.2691 0.588395C36.021 0.751247 35.8953 0.753242 35.861 0.697745C35.8007 0.60013 35.8823 0.451213 36.1728 0.2288C36.3665 0.0805908 36.6387 0.00765725 36.7172 0.0829285Z" fill="url(#paint3_radial_668_4413)"/>
<path d="M35.1508 30.7277C35.0764 30.6817 35.1463 30.5198 35.4181 30.2546C35.5858 30.0846 35.6843 30.0619 35.7207 30.0998C35.7846 30.1664 35.7455 30.2973 35.5545 30.5212C35.4271 30.6704 35.2253 30.7737 35.1508 30.7277Z" fill="url(#paint4_radial_668_4413)"/>
<path d="M37.3898 24.7701C37.4716 24.8485 37.3392 25.0346 36.9232 25.2966C36.6648 25.4662 36.5339 25.4683 36.4981 25.4105C36.4352 25.3088 36.5202 25.1537 36.8228 24.922C37.0246 24.7677 37.3081 24.6917 37.3898 24.7701Z" fill="url(#paint5_radial_668_4413)"/>
<path d="M28.9549 31.4976C28.6068 31.2109 28.9141 30.4124 30.143 29.2046C30.9007 28.4266 31.3532 28.3707 31.5245 28.5909C31.8259 28.9782 31.658 29.6347 30.7979 30.679C30.2242 31.3749 29.3028 31.7842 28.9549 31.4976Z" fill="url(#paint6_radial_668_4413)"/>
<path d="M27.2256 38.7454C28.2117 37.6935 26.8712 37.0779 26.5814 36.1547C26.162 34.8193 29.3423 35.8261 30.6693 35.3808C31.7446 35.0199 33.4468 36.4534 34.4316 35.8906C36.0984 34.9379 39.4839 29.0889 40.4036 28.7268C43.5643 27.4822 40.4036 35.5704 40.4036 38.9668C40.4036 40.7918 39.6432 42.1605 37.9704 43.0223C35.0808 44.5938 32.1913 46.2667 29.4032 47.9902C27.6796 49.0041 26.1081 49.0548 24.3845 47.9902C21.495 46.2667 18.6055 44.5938 15.6653 42.9716C14.0431 42.0591 13.3333 40.7411 13.3333 38.9668C13.3333 35.5704 13.3333 32.1232 13.3333 28.7268C13.3333 26.9018 14.1444 25.5838 15.7666 24.6713C22.3568 20.8693 28.9469 17.0673 35.4864 13.1639C38.5787 11.2882 41.5696 11.1362 44.6619 13.1132C46.5882 14.3298 48.5653 15.3437 50.4916 16.5097C52.6714 17.8277 53.736 19.8554 53.736 22.4408C53.736 30.0448 53.736 37.6488 53.736 45.2528C53.736 48.5479 51.8603 50.5249 49.1736 52.0457C43.4452 55.3408 37.6662 58.5345 32.0392 61.9816C28.4907 64.1615 25.297 64.2122 21.7485 61.9816C16.2736 58.5852 10.5959 55.4929 5.01964 52.2485C4.36063 51.8936 3.7523 51.4881 3.14398 51.0826C1.06555 49.7138 0.000983819 47.7368 0.000983819 45.2528C0.000983819 37.6488 0.000983819 30.0448 0.000983819 22.4408C0.000983819 19.1457 1.87664 17.1687 4.56339 15.6479C10.4438 12.3021 16.2736 8.90564 22.154 5.50918C22.5596 5.25571 23.0158 5.05295 23.4213 4.85017C25.7025 3.58284 20.5318 9.70369 30.3156 4.79948C40.0995 -0.104733 22.154 11.4778 32.4448 7.42248C42.7355 3.36713 31.3295 9.61535 29.1497 10.8827C23.472 14.1778 17.8451 17.5742 12.1167 20.7172C9.32858 22.238 8.11192 24.1644 8.264 27.4087C8.46678 31.9205 8.41608 36.4322 8.264 40.9439C8.21331 43.5292 9.17649 45.2021 11.407 46.4188C15.5132 48.7 19.6193 51.0825 23.6748 53.5158C25.8546 54.7832 27.8824 54.8338 30.0622 53.5665C34.1683 51.1332 38.2745 48.7506 42.4821 46.4188C44.5605 45.2528 45.6251 43.6813 45.5744 41.1973C45.473 36.2294 45.3716 31.2108 45.5744 26.2428C45.7771 22.0859 41.3161 19.754 38.021 21.7818C33.6614 24.4685 29.1497 26.9525 24.6887 29.4872C21.7485 31.1601 20.6869 34.5622 24.8408 37.3314C25.6012 37.8384 26.986 39.0009 27.2256 38.7454Z" fill="url(#paint7_radial_668_4413)"/>
<defs>
<radialGradient id="paint0_radial_668_4413" cx="0" cy="0" r="1" gradientUnits="userSpaceOnUse" gradientTransform="translate(27.8441 2.03562) rotate(165.766) scale(7.57144 2.58124)">
<stop offset="0.218068" stop-color="#09ABF9"/>
<stop offset="0.685417" stop-color="#01CC7F"/>
</radialGradient>
<radialGradient id="paint1_radial_668_4413" cx="0" cy="0" r="1" gradientUnits="userSpaceOnUse" gradientTransform="translate(32.3362 1.60685) rotate(159.703) scale(3.39418 0.962817)">
<stop offset="0.218068" stop-color="#09ABF9"/>
<stop offset="0.685417" stop-color="#01CC7F"/>
</radialGradient>
<radialGradient id="paint2_radial_668_4413" cx="0" cy="0" r="1" gradientUnits="userSpaceOnUse" gradientTransform="translate(38.0899 2.27043) rotate(-22.4047) scale(4.59406 1.30318)">
<stop offset="0.218068" stop-color="#09ABF9"/>
<stop offset="0.685417" stop-color="#01CC7F"/>
</radialGradient>
<radialGradient id="paint3_radial_668_4413" cx="0" cy="0" r="1" gradientUnits="userSpaceOnUse" gradientTransform="translate(36.6427 0.132652) rotate(-22.4047) scale(2.10789 0.597939)">
<stop offset="0.218068" stop-color="#09ABF9"/>
<stop offset="0.685417" stop-color="#01CC7F"/>
</radialGradient>
<radialGradient id="paint4_radial_668_4413" cx="0" cy="0" r="1" gradientUnits="userSpaceOnUse" gradientTransform="translate(35.2011 30.676) rotate(145.501) scale(1.69576 0.48103)">
<stop offset="0.218068" stop-color="#09ABF9"/>
<stop offset="0.685417" stop-color="#01CC7F"/>
</radialGradient>
<radialGradient id="paint5_radial_668_4413" cx="0" cy="0" r="1" gradientUnits="userSpaceOnUse" gradientTransform="translate(37.3122 24.8219) rotate(-22.4047) scale(2.19549 0.622788)">
<stop offset="0.218068" stop-color="#09ABF9"/>
<stop offset="0.685417" stop-color="#01CC7F"/>
</radialGradient>
<radialGradient id="paint6_radial_668_4413" cx="0" cy="0" r="1" gradientUnits="userSpaceOnUse" gradientTransform="translate(29.1817 31.2605) rotate(147.105) scale(7.57144 2.58124)">
<stop offset="0.218068" stop-color="#09ABF9"/>
<stop offset="0.685417" stop-color="#01CC7F"/>
</radialGradient>
<radialGradient id="paint7_radial_668_4413" cx="0" cy="0" r="1" gradientUnits="userSpaceOnUse" gradientTransform="translate(5.11209 51.8227) rotate(163.798) scale(116.745 69.4297)">
<stop offset="0.294792" stop-color="#09ABF9"/>
<stop offset="0.445833" stop-color="#29FFFF"/>
</radialGradient>
</defs>
</svg>
