<svg width="21" height="21" viewBox="0 0 21 21" fill="none" xmlns="http://www.w3.org/2000/svg">
<path fill-rule="evenodd" clip-rule="evenodd" d="M13.0668 15.1377C11.7121 16.1908 10.0098 16.8178 8.16113 16.8178C3.74286 16.8178 0.161133 13.2361 0.161133 8.81784C0.161133 4.39956 3.74286 0.817841 8.16113 0.817841C12.5794 0.817841 16.1611 4.39956 16.1611 8.81784C16.1611 10.6666 15.5341 12.3688 14.481 13.7235L19.8682 19.1107C20.2588 19.5013 20.2588 20.1344 19.8682 20.5249C19.4777 20.9155 18.8446 20.9155 18.454 20.5249L13.0668 15.1377ZM14.1611 8.81784C14.1611 12.1315 11.4748 14.8178 8.16113 14.8178C4.84742 14.8178 2.16113 12.1315 2.16113 8.81784C2.16113 5.50413 4.84742 2.81784 8.16113 2.81784C11.4748 2.81784 14.1611 5.50413 14.1611 8.81784Z" fill="#777E91"/>
</svg>
