<svg width="45" height="44" viewBox="0 0 45 44" fill="none" xmlns="http://www.w3.org/2000/svg">
<circle cx="22.4277" cy="22" r="21.75" fill="url(#paint0_linear_74_7490)" stroke="#E6E8EC" stroke-width="0.5"/>
<path fill-rule="evenodd" clip-rule="evenodd" d="M27.2103 11.9269C26.3235 11.969 25.4657 12.2744 24.7598 12.7994C24.5705 12.9402 24.4337 13.0588 24.2565 13.236C24.0184 13.4741 23.8534 13.676 23.676 13.9464C23.2867 14.5398 23.0428 15.2255 22.9672 15.9396C22.9351 16.2421 22.9405 16.6434 22.9809 16.9627C22.996 17.0817 23.0402 17.3327 23.0568 17.3933L23.0624 17.4139L22.9927 17.4087C22.9544 17.4059 22.8614 17.3994 22.7861 17.3943C22.5993 17.3816 22.2525 17.3465 22.0443 17.3193C18.8814 16.9059 15.986 15.3202 13.943 12.8825L13.8238 12.7403L13.7839 12.8119C13.4826 13.3531 13.3001 13.9441 13.2374 14.5814C13.2196 14.7627 13.2222 15.2458 13.242 15.4281C13.3376 16.3076 13.6647 17.1084 14.203 17.7805C14.3084 17.9121 14.3609 17.9706 14.505 18.1172C14.702 18.3174 14.8894 18.4778 15.0981 18.625C15.1515 18.6627 15.1992 18.6975 15.204 18.7023C15.2164 18.7146 15.0212 18.7039 14.8287 18.6816C14.2928 18.6196 13.7372 18.4487 13.2754 18.2039L13.1749 18.1507L13.1809 18.3085C13.1884 18.5018 13.2076 18.7199 13.2304 18.8704C13.4638 20.4074 14.48 21.7153 15.9106 22.3199C16.1502 22.4212 16.5638 22.5503 16.7347 22.5772C16.7556 22.5805 16.7696 22.5863 16.7656 22.5901C16.7617 22.5939 16.7088 22.609 16.648 22.6237C16.116 22.7523 15.5624 22.7823 15.0186 22.7119C14.9409 22.7019 14.8501 22.6885 14.8169 22.6822L14.7566 22.6708L14.7622 22.6941C14.773 22.7393 14.8577 22.9652 14.9015 23.0657C15.263 23.896 15.8642 24.5995 16.6184 25.0748C17.2672 25.4837 18.0456 25.7327 18.7633 25.7611C18.8264 25.7636 18.8913 25.7676 18.9075 25.7701L18.9369 25.7745L18.8456 25.8447C17.7845 26.6606 16.5001 27.2438 15.1687 27.5142C14.2737 27.696 13.3766 27.7401 12.4625 27.6473C12.3925 27.6402 12.3338 27.6358 12.3321 27.6375C12.3276 27.642 12.6755 27.8545 12.8548 27.9568C14.5114 28.9022 16.3467 29.4598 18.251 29.5964C18.8678 29.6407 19.5519 29.6407 20.194 29.5965C23.5097 29.3682 26.4395 27.9471 28.6031 25.5177C29.6519 24.34 30.5049 22.9196 31.0763 21.3994C31.5136 20.2358 31.7841 19.0266 31.8782 17.8138C31.9036 17.4865 31.9105 17.2523 31.9084 16.7911L31.9062 16.324L32.0301 16.231C32.819 15.639 33.5118 14.9181 34.067 14.1117C34.0995 14.0644 34.1243 14.0257 34.1221 14.0257C34.1198 14.0257 34.0552 14.0519 33.9785 14.0838C33.3538 14.3438 32.7436 14.5238 32.0849 14.6423C31.9003 14.6755 31.615 14.7158 31.5906 14.7121C31.5771 14.71 31.6023 14.6901 31.6838 14.6387C31.9364 14.4792 32.1911 14.2736 32.4267 14.0391C32.9005 13.5674 33.235 13.0466 33.4739 12.4085C33.5028 12.3315 33.5252 12.2654 33.5238 12.2616C33.5223 12.2578 33.4477 12.2963 33.3578 12.3471C33.028 12.5338 32.545 12.7608 32.1788 12.9014C31.7517 13.0653 31.2233 13.2211 30.7856 13.3122L30.6906 13.3319L30.5427 13.1869C30.2939 12.9431 30.0418 12.7467 29.7544 12.5727C28.9912 12.1107 28.1004 11.8846 27.2103 11.9269Z" fill="#B1B5C3"/>
<defs>
<linearGradient id="paint0_linear_74_7490" x1="22.4277" y1="0" x2="22.4277" y2="44" gradientUnits="userSpaceOnUse">
<stop offset="0.0464794" stop-color="#22242F"/>
<stop offset="0.869351" stop-color="#1A1D28"/>
</linearGradient>
</defs>
</svg>
