<svg width="21" height="18" viewBox="0 0 21 18" fill="none" xmlns="http://www.w3.org/2000/svg">
<path fill-rule="evenodd" clip-rule="evenodd" d="M14.3387 0.0051019C13.4841 0.0479466 12.6574 0.358393 11.9771 0.891975C11.7947 1.03509 11.6629 1.1557 11.492 1.33584C11.2626 1.5778 11.1036 1.78306 10.9326 2.05793C10.5574 2.66109 10.3224 3.35816 10.2495 4.08403C10.2186 4.39158 10.2238 4.79947 10.2628 5.124C10.2773 5.24496 10.3199 5.50012 10.3358 5.56178L10.3412 5.58266L10.2741 5.57741C10.2371 5.57452 10.1476 5.5679 10.075 5.56271C9.89497 5.54981 9.56069 5.5142 9.36004 5.48653C6.31191 5.06631 3.52148 3.45441 1.55252 0.976481L1.43766 0.831926L1.39921 0.904759C1.10886 1.45481 0.932956 2.05558 0.872566 2.70339C0.855373 2.88775 0.857901 3.37882 0.876984 3.56405C0.969096 4.45813 1.28437 5.27217 1.80314 5.95537C1.90468 6.0891 1.95528 6.14858 2.09421 6.29754C2.28405 6.50109 2.4646 6.66415 2.66572 6.81374C2.71722 6.85204 2.76318 6.88741 2.76786 6.89235C2.77975 6.90488 2.59167 6.89392 2.40612 6.87128C1.88963 6.80823 1.35419 6.63456 0.909132 6.38573L0.812288 6.33158L0.818127 6.49208C0.825268 6.68849 0.84378 6.91026 0.8658 7.06323C1.0907 8.62552 2.0701 9.95507 3.44878 10.5696C3.67971 10.6726 4.07831 10.8038 4.24301 10.8312C4.2632 10.8346 4.27661 10.8404 4.2728 10.8443C4.26901 10.8481 4.21801 10.8635 4.1595 10.8784C3.64677 11.0092 3.11324 11.0397 2.58912 10.9681C2.51422 10.9579 2.42676 10.9443 2.39478 10.9379L2.33662 10.9263L2.34203 10.95C2.3525 10.9959 2.43411 11.2255 2.47628 11.3277C2.82466 12.1717 3.40411 12.8869 4.13093 13.37C4.75622 13.7856 5.50634 14.0388 6.19801 14.0676C6.25887 14.0701 6.32141 14.0743 6.33698 14.0768L6.36531 14.0813L6.2774 14.1526C5.25477 14.982 4.01692 15.5748 2.73382 15.8497C1.87124 16.0344 1.00672 16.0793 0.125773 15.985C0.0583025 15.9777 0.00172637 15.9733 4.10904e-05 15.975C-0.00426574 15.9796 0.331054 16.1956 0.503796 16.2996C2.10035 17.2606 3.86907 17.8274 5.70434 17.9663C6.29874 18.0112 6.95807 18.0113 7.57688 17.9663C10.7724 17.7343 13.5959 16.2898 15.681 13.8202C16.6918 12.623 17.5139 11.1792 18.0645 9.63398C18.486 8.4511 18.7466 7.22195 18.8373 5.98914C18.8618 5.65648 18.8685 5.41843 18.8664 4.94954L18.8644 4.47475L18.9838 4.38025C19.744 3.77849 20.4118 3.04572 20.9468 2.226C20.9781 2.17792 21.002 2.13859 20.9999 2.13859C20.9977 2.13859 20.9354 2.16513 20.8615 2.19757C20.2595 2.46187 19.6714 2.64482 19.0366 2.76533C18.8586 2.79911 18.5837 2.84003 18.5602 2.83625C18.5472 2.83417 18.5715 2.81395 18.65 2.76167C18.8934 2.59958 19.1389 2.39058 19.3659 2.15219C19.8226 1.67268 20.1449 1.14324 20.3752 0.494629C20.403 0.416371 20.4246 0.349177 20.4233 0.345322C20.4219 0.341467 20.3499 0.3806 20.2633 0.432294C19.9455 0.621988 19.48 0.852806 19.127 0.995702C18.7154 1.16235 18.2062 1.3207 17.7843 1.41325L17.6929 1.43332L17.5503 1.28593C17.3105 1.03809 17.0676 0.838408 16.7906 0.661569C16.0551 0.191946 15.1966 -0.0379131 14.3387 0.0051019Z" fill="#B1B5C3"/>
</svg>
