<svg width="175" height="180" viewBox="0 0 175 180" fill="none" xmlns="http://www.w3.org/2000/svg">
<g clip-path="url(#clip0_1_13646)">
<path d="M65.245 14.332C66.9896 10.7843 69.0976 7.46112 71.0006 3.99964C71.8316 2.47145 69.8693 0.470455 68.5061 1.88566C63.0443 7.5814 57.7496 15.2119 55.0907 22.6768C53.9928 25.777 58.8903 28.2441 60.4319 25.1885C62.2115 21.6497 63.4922 17.9006 65.245 14.332Z" fill="#484D57"/>
<path d="M58.1185 41.4091C58.311 38.5586 58.7296 35.72 59.2455 32.9148C59.6625 30.6425 56.6537 29.5565 55.7639 31.7968C53.6164 37.2139 51.5425 44.1926 52.2039 50.055C52.5948 53.5239 57.6076 52.7258 57.9837 49.6158C58.3094 46.9281 57.9474 44.1192 58.1259 41.4024L58.1185 41.4091Z" fill="#484D57"/>
<path d="M65.2414 82.0172C64.2031 78.7407 62.75 75.6761 61.8923 72.3313C61.0466 69.0295 60.5219 65.681 60.2045 62.2938C59.9519 59.5614 55.3732 59.9151 55.4058 62.6571C55.4897 69.6716 56.2083 77.6754 59.1828 84.1198C60.6827 87.371 66.3578 85.5598 65.234 82.0239L65.2414 82.0172Z" fill="#484D57"/>
<path d="M80.669 115.408C78.2817 109.511 75.0084 103.766 71.9454 98.1951C70.9308 96.3502 67.612 97.2518 68.2817 99.4609C70.1873 105.764 72.0856 112.343 74.7278 118.373C76.4529 122.323 82.2544 119.322 80.669 115.408Z" fill="#484D57"/>
<path d="M101.657 146.621C98.2839 141.019 94.1491 135.229 89.8255 130.335C88.2081 128.508 85.53 130.555 86.4174 132.662C88.8315 138.454 92.0632 144.451 95.4897 149.709C97.8607 153.36 103.975 150.467 101.657 146.621Z" fill="#484D57"/>
<path d="M117.282 168.694C118.93 166.309 118.455 163.225 118.372 160.488C118.269 156.666 118.124 152.842 117.687 149.037C117.492 147.356 114.662 147.172 114.325 148.86C113.94 150.809 113.631 152.768 113.358 154.736C113.048 156.979 113.376 160.975 112.403 162.914C111.288 165.128 109.269 164.066 106.787 163.73C103.926 163.346 101.08 162.934 98.2135 162.634C93.8615 162.178 93.6592 168.71 97.8603 169.342C102.23 169.997 106.792 170.776 111.205 171.001C113.606 171.127 115.804 170.804 117.268 168.693L117.282 168.694Z" fill="#484D57"/>
</g>
<defs>
<clipPath id="clip0_1_13646">
<rect width="156.77" height="92.6" fill="white" transform="translate(69.6797 0.828125) rotate(48.014)"/>
</clipPath>
</defs>
</svg>
