<svg width="27" height="26" viewBox="0 0 27 26" fill="none" xmlns="http://www.w3.org/2000/svg">
<rect x="0.25" y="0.25" width="26.5" height="25.5" rx="12.75" fill="#353945"/>
<path fill-rule="evenodd" clip-rule="evenodd" d="M16.1673 8.33333H10.834C10.4658 8.33333 10.1673 8.63181 10.1673 9V11.6667C10.1673 13.5076 11.6597 15 13.5007 15C15.3416 15 16.834 13.5076 16.834 11.6667V9C16.834 8.63181 16.5355 8.33333 16.1673 8.33333ZM10.834 7C9.72941 7 8.83398 7.89543 8.83398 9V11.6667C8.83398 14.244 10.9233 16.3333 13.5007 16.3333C16.078 16.3333 18.1673 14.244 18.1673 11.6667V9C18.1673 7.89543 17.2719 7 16.1673 7H10.834Z" fill="white"/>
<path fill-rule="evenodd" clip-rule="evenodd" d="M6.16602 10.3333C6.16602 9.22868 7.06145 8.33325 8.16602 8.33325H10.166V13.6666H8.83268C7.35992 13.6666 6.16602 12.4727 6.16602 10.9999V10.3333ZM8.16602 9.66659H8.83268V12.3333C8.0963 12.3333 7.49935 11.7363 7.49935 10.9999V10.3333C7.49935 9.96506 7.79783 9.66659 8.16602 9.66659Z" fill="white"/>
<path fill-rule="evenodd" clip-rule="evenodd" d="M20.8327 10.3333C20.8327 9.22868 19.9373 8.33325 18.8327 8.33325H16.8327V13.6666H18.166C19.6388 13.6666 20.8327 12.4727 20.8327 10.9999V10.3333ZM18.8327 9.66659H18.166V12.3333C18.9024 12.3333 19.4993 11.7363 19.4993 10.9999V10.3333C19.4993 9.96506 19.2009 9.66659 18.8327 9.66659Z" fill="white"/>
<path d="M13.5007 15C13.1325 15 12.834 15.2985 12.834 15.6667V17.6667H11.5007C11.1325 17.6667 10.834 17.9651 10.834 18.3333C10.834 18.7015 11.1325 19 11.5007 19H15.5007C15.8688 19 16.1673 18.7015 16.1673 18.3333C16.1673 17.9651 15.8688 17.6667 15.5007 17.6667H14.1673V15.6667C14.1673 15.2985 13.8688 15 13.5007 15Z" fill="white"/>
<rect x="0.25" y="0.25" width="26.5" height="25.5" rx="12.75" stroke="white" stroke-width="0.5"/>
</svg>
