<svg width="27" height="26" viewBox="0 0 27 26" fill="none" xmlns="http://www.w3.org/2000/svg">
<rect x="0.25" y="0.25" width="26.5" height="25.5" rx="12.75" fill="#353945"/>
<g clip-path="url(#clip0_590_11277)">
<path fill-rule="evenodd" clip-rule="evenodd" d="M13.5 19.25C15.5711 19.25 17.25 17.5711 17.25 15.5C17.25 13.4289 15.5711 11.75 13.5 11.75C11.4289 11.75 9.75 13.4289 9.75 15.5C9.75 17.5711 11.4289 19.25 13.5 19.25ZM13.5 20.5C16.2614 20.5 18.5 18.2614 18.5 15.5C18.5 12.7386 16.2614 10.5 13.5 10.5C10.7386 10.5 8.5 12.7386 8.5 15.5C8.5 18.2614 10.7386 20.5 13.5 20.5Z" fill="white"/>
<path fill-rule="evenodd" clip-rule="evenodd" d="M13.5 16.75C14.1904 16.75 14.75 16.1904 14.75 15.5C14.75 14.8096 14.1904 14.25 13.5 14.25C12.8096 14.25 12.25 14.8096 12.25 15.5C12.25 16.1904 12.8096 16.75 13.5 16.75ZM13.5 18C14.8807 18 16 16.8807 16 15.5C16 14.1193 14.8807 13 13.5 13C12.1193 13 11 14.1193 11 15.5C11 16.8807 12.1193 18 13.5 18Z" fill="white"/>
<path d="M10.522 6.75C10.0573 6.75 9.75515 7.23895 9.96293 7.65451L11.5771 10.8829C11.1877 11.0452 10.8233 11.2553 10.4911 11.5059L8.8449 8.21352C8.22155 6.96683 9.12811 5.5 10.522 5.5H11.4769C12.1871 5.5 12.8363 5.90125 13.1539 6.53647L13.4994 7.22744L13.8449 6.53647C14.1625 5.90125 14.8117 5.5 15.5219 5.5H16.4769C17.8707 5.5 18.7772 6.96683 18.1539 8.21352L16.5077 11.5059C16.1755 11.2553 15.8111 11.0452 15.4217 10.8829L17.0359 7.65451C17.2437 7.23895 16.9415 6.75 16.4769 6.75H15.5219C15.2852 6.75 15.0688 6.88375 14.9629 7.09549L14.1982 8.62499L15.3033 10.8353C14.815 10.6463 14.2896 10.5318 13.741 10.5057L12.0359 7.09549C11.93 6.88375 11.7136 6.75 11.4769 6.75H10.522Z" fill="white"/>
</g>
<rect x="0.25" y="0.25" width="26.5" height="25.5" rx="12.75" stroke="white" stroke-width="0.5"/>
<defs>
<clipPath id="clip0_590_11277">
<rect width="15" height="15" fill="white" transform="translate(6 5.5)"/>
</clipPath>
</defs>
</svg>
