<svg width="27" height="26" viewBox="0 0 27 26" fill="none" xmlns="http://www.w3.org/2000/svg">
<rect x="0.25" y="0.25" width="26.5" height="25.5" rx="12.75" fill="#353945"/>
<path fill-rule="evenodd" clip-rule="evenodd" d="M12.961 5.48194L12.0097 5.96198L11.7478 5.82768C11.5245 5.71312 11.4457 5.69058 11.2122 5.6745C10.5962 5.63212 10.0773 5.92976 9.80011 6.48443C9.70631 6.67212 9.63424 7.01162 9.65028 7.19007C9.66028 7.30133 9.65357 7.30936 9.49945 7.37049C8.88398 7.61461 8.49759 8.27997 8.60774 8.90611C8.62813 9.02206 8.65397 9.14796 8.66513 9.18587C8.6819 9.24274 8.66041 9.26611 8.5423 9.31927C8.46355 9.35472 8.31511 9.46795 8.21245 9.5709C7.88395 9.90022 7.73674 10.3437 7.80769 10.7902C7.82759 10.9154 7.85296 11.0404 7.86412 11.0679C7.87834 11.103 7.83964 11.1417 7.73422 11.1978C7.49643 11.3243 7.25759 11.5842 7.12865 11.8568C6.88419 12.3736 6.96955 12.991 7.34285 13.4059L7.46332 13.5398L6.24769 14.7634C5.1994 15.8185 5.02897 16.0038 5.00984 16.1094C4.95035 16.4377 5.16668 16.704 5.49282 16.704C5.56802 16.704 5.66215 16.6874 5.70207 16.6671C5.74196 16.6469 6.33093 16.0734 7.01087 15.3927L8.24716 14.155L8.655 14.1539C9.04285 14.1528 9.07377 14.1476 9.28475 14.0472C9.739 13.8311 10.0085 13.4726 10.1227 12.9326C10.138 12.8601 10.1687 12.8401 10.316 12.8069C10.8685 12.6825 11.2914 12.2708 11.425 11.7273L11.4798 11.5043L11.6497 11.4689C12.2021 11.3536 12.6445 10.909 12.7712 10.3418C12.8042 10.1939 12.8241 10.163 12.8963 10.1477C13.4342 10.0331 13.7912 9.76245 14.0064 9.30637C14.1064 9.09453 14.1116 9.06348 14.1127 8.67413L14.1138 8.26469L14.9929 7.37963C15.4764 6.89286 15.9123 6.47306 15.9616 6.44678C16.0828 6.38215 16.2724 6.38652 16.3906 6.45658C16.5286 6.53846 16.6325 6.76713 16.6035 6.92531C16.5843 7.02979 16.4748 7.15669 15.9063 7.73294C15.5353 8.10895 15.2152 8.44938 15.1948 8.48944C15.1426 8.59215 15.1489 8.8194 15.207 8.93222C15.2725 9.05938 15.4054 9.16053 15.5405 9.18598C15.7669 9.22863 15.8493 9.17977 16.307 8.73139C16.7595 8.28824 16.8605 8.22801 17.0649 8.27954C17.1894 8.31092 17.3415 8.45645 17.3836 8.58455C17.4572 8.80846 17.414 8.87799 16.8353 9.46711C16.5381 9.76976 16.2768 10.0527 16.2547 10.096C16.2326 10.1392 16.2136 10.2388 16.2124 10.3174C16.2082 10.596 16.4249 10.8136 16.7024 10.8094C16.8933 10.8065 16.9537 10.7692 17.2847 10.4496C17.5923 10.1527 17.7014 10.1023 17.8968 10.1671C18.0244 10.2093 18.1693 10.362 18.2006 10.4871C18.2553 10.706 18.2007 10.7893 17.6073 11.3913L17.04 11.9668L17.0253 12.1455C17.0027 12.4184 17.1423 12.6234 17.3937 12.6868C17.5893 12.7361 17.7091 12.677 18.0163 12.3796C18.3393 12.067 18.48 11.9939 18.6745 12.0377C18.8072 12.0676 18.9642 12.2205 18.9971 12.3518C19.0086 12.3979 19.0079 12.4918 18.9955 12.5605C18.9757 12.6703 18.7584 12.9013 17.1899 14.4799C15.3217 16.3602 15.1415 16.5201 14.7213 16.6713C14.5308 16.7399 14.4289 16.7493 13.6797 16.7682C13.0877 16.7831 12.8255 16.8018 12.7663 16.8334C12.6531 16.8938 9.38616 20.1662 9.32644 20.279C9.30023 20.3286 9.27877 20.4306 9.27877 20.5058C9.27877 20.8266 9.54914 21.0489 9.86857 20.9907C9.97768 20.9709 10.1881 20.7725 11.5877 19.3696L13.1824 17.7711H13.4971H13.8117L15.4064 19.3696C16.806 20.7725 17.0164 20.9709 17.1255 20.9907C17.3463 21.0309 17.5688 20.927 17.666 20.7383C17.7241 20.6255 17.7306 20.3983 17.6786 20.2952C17.6585 20.2551 17.0596 19.636 16.3478 18.9193L15.0537 17.6163L15.2652 17.526C15.708 17.3371 15.8624 17.2028 17.3671 15.6984L18.8291 14.2368L20.0077 15.4225C20.6559 16.0747 21.2266 16.6298 21.276 16.6561C21.5515 16.8031 21.9289 16.6242 21.9858 16.3197C22.034 16.0617 22.032 16.0592 20.7455 14.7634L19.5308 13.5398L19.6565 13.4001C19.8162 13.2226 19.9372 12.9579 19.984 12.6834C20.0812 12.114 19.7657 11.4668 19.2599 11.1978C19.1545 11.1417 19.1158 11.103 19.13 11.0679C19.1411 11.0404 19.1665 10.9154 19.1864 10.7902C19.2571 10.3453 19.1084 9.90029 18.7779 9.56783C18.6773 9.46658 18.5306 9.35472 18.4518 9.31927C18.3337 9.26611 18.3122 9.24274 18.329 9.18587C18.4952 8.62243 18.3731 8.09605 17.9855 7.70432C17.8382 7.55548 17.654 7.42595 17.5241 7.37973C17.5194 7.37803 17.5403 7.26644 17.5706 7.13174C17.6448 6.80168 17.5985 6.48623 17.4281 6.16061C17.1615 5.65109 16.6641 5.37376 16.0727 5.40491C15.7589 5.42145 15.4533 5.54477 15.2346 5.74324L15.1036 5.86203L14.7245 5.48038C14.3265 5.07955 14.2062 4.99711 14.0235 5.00008C13.949 5.00128 13.5981 5.16039 12.961 5.48194ZM14.1704 6.3579L14.3935 6.58368L13.9453 7.03273L13.4971 7.48181L13.1149 7.0991L12.7326 6.71638L13.3058 6.42604C13.6211 6.26636 13.8944 6.13489 13.9131 6.13393C13.9319 6.13296 14.0477 6.23374 14.1704 6.3579ZM11.2822 6.70264C11.3856 6.75516 13.0268 8.39833 13.0841 8.50665C13.1959 8.71808 13.0999 9.01116 12.8853 9.11341C12.7542 9.17587 12.6735 9.18031 12.5443 9.13205C12.4929 9.11284 12.0581 8.70387 11.5782 8.22327C10.6371 7.28085 10.5948 7.22299 10.6727 6.98591C10.7087 6.87642 10.8465 6.72321 10.9395 6.68923C11.0266 6.65741 11.2071 6.66445 11.2822 6.70264ZM10.2232 8.31775C10.2824 8.34593 10.6527 8.69484 11.0463 9.09313C11.8021 9.85797 11.8347 9.90449 11.7885 10.1521C11.7463 10.3778 11.4789 10.5426 11.247 10.4859C11.1878 10.4714 10.8834 10.1903 10.3855 9.69015C9.70827 9.01002 9.61262 8.90097 9.59166 8.78501C9.56186 8.6205 9.64351 8.45269 9.80682 8.3426C9.93835 8.25392 10.0725 8.24592 10.2232 8.31775ZM9.38778 10.1803C9.53476 10.2438 10.4298 11.1599 10.4589 11.2766C10.5152 11.5024 10.3573 11.7709 10.1399 11.8188C9.90537 11.8705 9.82416 11.8223 9.34089 11.3447C8.87817 10.8875 8.78055 10.7535 8.78055 10.5759C8.78055 10.4436 8.90537 10.2639 9.04693 10.1925C9.18657 10.1221 9.24798 10.1199 9.38778 10.1803ZM8.66799 12.0956C8.7757 12.1549 9.07407 12.4807 9.11084 12.5791C9.1592 12.7086 9.15488 12.7897 9.09257 12.9216C8.99107 13.1363 8.70087 13.2327 8.48826 13.1223C8.43894 13.0967 8.31375 12.9864 8.21005 12.8773C7.94327 12.5964 7.91338 12.3855 8.10911 12.1656C8.24616 12.0116 8.46551 11.9841 8.66799 12.0956Z" fill="white"/>
<rect x="0.25" y="0.25" width="26.5" height="25.5" rx="12.75" stroke="white" stroke-width="0.5"/>
</svg>
