<svg width="27" height="26" viewBox="0 0 27 26" fill="none" xmlns="http://www.w3.org/2000/svg">
<rect x="0.25" y="0.25" width="26.5" height="25.5" rx="12.75" fill="#353945"/>
<path fill-rule="evenodd" clip-rule="evenodd" d="M13.4993 7.33341C12.1165 7.33341 10.8418 7.44746 9.81864 7.58259C8.89782 7.7042 8.20347 8.39855 8.08186 9.31937C7.94673 10.3425 7.83268 11.6172 7.83268 13.0001C7.83268 14.3829 7.94673 15.6576 8.08186 16.6808C8.20347 17.6016 8.89782 18.296 9.81864 18.4176C10.8418 18.5527 12.1165 18.6667 13.4993 18.6667C14.8822 18.6667 16.1569 18.5527 17.1801 18.4176C18.1009 18.296 18.7952 17.6016 18.9168 16.6808C19.052 15.6576 19.166 14.3829 19.166 13.0001C19.166 11.6172 19.052 10.3425 18.9168 9.31937C18.7952 8.39855 18.1009 7.7042 17.1801 7.58259C16.1569 7.44746 14.8822 7.33341 13.4993 7.33341ZM9.63315 6.17812C8.07709 6.38363 6.8829 7.57782 6.67739 9.13388C6.5361 10.2036 6.41602 11.5418 6.41602 13.0001C6.41602 14.4583 6.5361 15.7965 6.67739 16.8663C6.8829 18.4223 8.07709 19.6165 9.63315 19.822C10.7029 19.9633 12.0411 20.0834 13.4993 20.0834C14.9576 20.0834 16.2958 19.9633 17.3655 19.822C18.9216 19.6165 20.1158 18.4223 20.3213 16.8663C20.4626 15.7965 20.5827 14.4583 20.5827 13.0001C20.5827 11.5418 20.4626 10.2036 20.3213 9.13388C20.1158 7.57782 18.9216 6.38363 17.3655 6.17812C16.2958 6.03683 14.9576 5.91675 13.4993 5.91675C12.0411 5.91675 10.7029 6.03683 9.63315 6.17812Z" fill="white"/>
<path fill-rule="evenodd" clip-rule="evenodd" d="M13.5007 9.31667C12.8092 9.31667 12.1719 9.36228 11.6603 9.41634C11.1999 9.46498 10.8527 9.74272 10.7919 10.1111C10.7243 10.5203 10.6673 11.0302 10.6673 11.5833C10.6673 12.1365 10.7243 12.6464 10.7919 13.0556C10.8527 13.4239 11.1999 13.7017 11.6603 13.7503C12.1719 13.8044 12.8092 13.85 13.5007 13.85C14.1921 13.85 14.8294 13.8044 15.341 13.7503C15.8014 13.7017 16.1486 13.4239 16.2094 13.0556C16.277 12.6464 16.334 12.1365 16.334 11.5833C16.334 11.0302 16.277 10.5203 16.2094 10.1111C16.1486 9.74272 15.8014 9.46498 15.341 9.41634C14.8294 9.36228 14.1921 9.31667 13.5007 9.31667ZM11.5676 8.85455C10.7895 8.93675 10.1924 9.41443 10.0897 10.0369C10.019 10.4648 9.95898 11 9.95898 11.5833C9.95898 12.1666 10.019 12.7019 10.0897 13.1298C10.1924 13.7522 10.7895 14.2299 11.5676 14.3121C12.1024 14.3686 12.7715 14.4167 13.5007 14.4167C14.2298 14.4167 14.8989 14.3686 15.4337 14.3121C16.2118 14.2299 16.8089 13.7522 16.9116 13.1298C16.9823 12.7019 17.0423 12.1666 17.0423 11.5833C17.0423 11 16.9823 10.4648 16.9116 10.0369C16.8089 9.41443 16.2118 8.93675 15.4338 8.85455C14.8989 8.79803 14.2298 8.75 13.5007 8.75C12.7715 8.75 12.1024 8.79803 11.5676 8.85455Z" fill="white"/>
<rect x="0.25" y="0.25" width="26.5" height="25.5" rx="12.75" stroke="white" stroke-width="0.5"/>
</svg>
