<svg width="27" height="26" viewBox="0 0 27 26" fill="none" xmlns="http://www.w3.org/2000/svg">
<rect x="0.25" y="0.25" width="26.5" height="25.5" rx="12.75" fill="#353945"/>
<path d="M7.5 10.2754C7.5 9.76535 7.75919 9.29024 8.18808 9.01415L12.6881 6.11731C13.1826 5.79899 13.8174 5.79899 14.3119 6.11731L18.8119 9.01415C19.2408 9.29024 19.5 9.76534 19.5 10.2754V16.0222C19.5 16.553 19.2195 17.0443 18.7623 17.314L14.2623 19.9696C13.792 20.2471 13.208 20.2471 12.7377 19.9696L8.23766 17.314L7.98355 17.7446L8.23766 17.314C7.78053 17.0443 7.5 16.553 7.5 16.0222V10.2754Z" stroke="white"/>
<path d="M13.1949 17H13.7778V16.2628C15.2168 16.1991 16 15.3345 16 14.3515C16 12.9408 14.7523 12.6769 13.7778 12.4039V10.9932C14.0328 11.0842 14.2058 11.2935 14.2423 11.6303H15.9089C15.827 10.4744 15.0255 9.83732 13.7778 9.7372V9H13.1949V9.7372C11.9563 9.81911 11 10.4926 11 11.6303C11 13.0592 12.2204 13.3322 13.1949 13.587V15.025C12.8852 14.9249 12.7031 14.6974 12.6667 14.3242H11.0091C11.0546 15.4983 11.9563 16.1445 13.1949 16.2537V17ZM14.3698 14.4061C14.3698 14.7429 14.1421 14.9886 13.7778 15.0523V13.76C14.133 13.8965 14.3698 14.0785 14.3698 14.4061ZM12.6485 11.5575C12.6485 11.2025 12.8579 11.0023 13.1949 10.9477V12.2127C12.867 12.0671 12.6485 11.876 12.6485 11.5575Z" fill="#B1B5C4"/>
<rect x="0.25" y="0.25" width="26.5" height="25.5" rx="12.75" stroke="white" stroke-width="0.5"/>
</svg>
