<svg width="21" height="21" viewBox="0 0 21 21" fill="none" xmlns="http://www.w3.org/2000/svg">
<path fill-rule="evenodd" clip-rule="evenodd" d="M9.96627 0.821365L9.83331 0.954332V1.9379C9.83331 3.00617 9.84821 3.09299 10.0473 3.18368C10.2353 3.26937 10.4118 3.22549 10.5462 3.05963C10.6061 2.9856 10.6138 2.86538 10.6146 1.99058C10.6155 0.926096 10.6019 0.841154 10.4143 0.744127C10.2386 0.653318 10.1126 0.675062 9.96627 0.821365ZM3.57302 0.920034C3.48232 1.01076 3.4587 1.06888 3.4587 1.20161C3.4587 1.36712 3.46723 1.3774 4.27215 2.18232L5.0856 2.99577H5.26408C5.46041 2.99577 5.62505 2.87645 5.65665 2.71126C5.69713 2.49949 5.615 2.39073 4.81493 1.59676C4.03089 0.818627 4.01517 0.805722 3.8526 0.805722C3.7221 0.805722 3.66332 0.829773 3.57302 0.920034ZM16.3409 0.918118C16.257 0.979948 15.876 1.34713 15.4942 1.73407C14.8243 2.41306 14.8 2.44317 14.8 2.59636C14.8 2.71009 14.8287 2.78924 14.9013 2.87543C14.9875 2.97794 15.0294 2.99577 15.1837 2.99577H15.365L16.1776 2.18326C16.9829 1.37787 16.9901 1.36923 16.9901 1.20255C16.9901 1.0688 16.9666 1.01096 16.8758 0.920034C16.7232 0.767513 16.5461 0.766888 16.3409 0.918118ZM8.67336 3.94875C8.58388 3.97816 8.45776 4.03991 8.39315 4.08594C8.28651 4.16185 8.25686 4.16557 8.07306 4.12615C7.46113 3.99494 6.7726 4.38125 6.54694 4.98238C6.48046 5.15958 6.46595 5.27096 6.47643 5.52477L6.48957 5.84416L6.35082 5.88569C6.14308 5.94795 5.84988 6.15675 5.71793 6.33649C5.49541 6.63962 5.43882 6.81502 5.43749 7.20598L5.43624 7.56405L5.22975 7.64962C4.94977 7.76569 4.6723 8.0249 4.53261 8.30096C4.42862 8.50644 4.41693 8.56709 4.41689 8.90108C4.41685 9.22661 4.42972 9.29751 4.52064 9.47366L4.62443 9.67475L4.46198 9.74659C4.21865 9.85422 3.912 10.1857 3.80766 10.4538C3.67728 10.789 3.68408 11.1934 3.82534 11.5025C3.88412 11.6312 3.98791 11.794 4.05592 11.8644L4.17962 11.9923L3.53563 12.6387C2.97545 13.2009 2.87893 13.2823 2.79387 13.2637C2.34749 13.1666 2.27369 13.1608 2.05856 13.2051C1.69747 13.2796 1.55051 13.3802 1.01136 13.9214C0.379613 14.5555 0.312387 14.6762 0.311292 15.1779C0.310158 15.6946 0.38501 15.8244 1.08407 16.5174C1.63017 17.0587 1.65098 17.0746 1.81241 17.0746C2.03619 17.0746 2.20725 16.9131 2.20725 16.7016C2.20725 16.5688 2.16384 16.5129 1.66267 16.0008C0.885163 15.2063 0.883872 15.1774 1.59572 14.4642L2.07381 13.9851H2.27389C2.44788 13.9851 2.49864 14.0049 2.66325 14.1373C2.76735 14.221 3.78119 15.221 4.91626 16.3596C6.47236 17.9206 6.98926 18.4622 7.01777 18.5616C7.08953 18.8118 7.01777 18.9367 6.51969 19.4286C6.01562 19.9264 5.89235 19.9905 5.63831 19.8869C5.57161 19.8597 5.29568 19.6219 5.01435 19.3502C5.00239 19.3386 4.99041 19.327 4.97844 19.3153C4.48936 18.8386 4.43304 18.7954 4.30082 18.7954C4.08846 18.7954 3.928 18.9664 3.928 19.1928C3.928 19.3584 3.93899 19.3725 4.50484 19.932C5.1996 20.6188 5.31575 20.6865 5.80589 20.6899C6.30494 20.6933 6.51104 20.579 7.12375 19.9589C7.70869 19.367 7.81744 19.1715 7.81467 18.7172C7.81342 18.5121 7.78745 18.3593 7.7282 18.209L7.64353 17.9942L8.39593 17.241C8.88838 16.7481 9.1924 16.4733 9.27578 16.4458C9.36041 16.4178 9.71524 16.4112 10.3316 16.426L11.26 16.4484L12.0535 17.242L12.8471 18.0355L12.7815 18.2101C12.7432 18.3121 12.7144 18.5076 12.7123 18.68C12.7068 19.1408 12.8338 19.3607 13.459 19.9722C14.074 20.5738 14.2108 20.6498 14.6827 20.6517C15.2917 20.6542 15.1148 20.7969 17.7053 18.2136C20.3234 15.6027 20.2165 15.7337 20.2165 15.1388C20.2165 14.8131 20.2066 14.7686 20.0843 14.5431C19.99 14.3693 19.8097 14.1605 19.4555 13.8152C19.0374 13.4075 18.9222 13.3171 18.7272 13.2439C18.4393 13.1357 18.0207 13.1277 17.7759 13.2256L17.6081 13.2927L16.9607 12.6453L16.3132 11.9979L16.4608 11.7969C16.5419 11.6863 16.6429 11.4867 16.6853 11.3533C16.8846 10.7249 16.5644 10.0135 15.9528 9.72602C15.857 9.68097 15.7508 9.64413 15.7169 9.64413C15.6714 9.64413 15.6622 9.62188 15.682 9.55954C15.7313 9.4042 15.7053 8.9563 15.6367 8.78027C15.4883 8.39901 15.1452 8.06127 14.8019 7.95842L14.6631 7.91684V7.53883C14.6631 7.2041 14.6506 7.13527 14.5539 6.93825C14.4185 6.66253 14.0893 6.35346 13.8327 6.26121L13.6438 6.19328L13.6446 5.83622C13.6454 5.53161 13.6304 5.44682 13.5429 5.25934C13.3054 4.75078 12.9224 4.50401 12.277 4.4437C12.0622 4.42364 11.3321 4.30041 10.6546 4.16991C9.29561 3.90812 8.92338 3.86655 8.67336 3.94875ZM10.1853 4.87913C10.6692 4.96939 11.0731 5.04956 11.0828 5.05723C11.0925 5.0649 10.8736 5.2986 10.5963 5.57655L10.092 6.08186L9.93334 5.99559C9.68943 5.86301 9.12604 5.27819 9.00199 5.02884C8.94297 4.91022 8.89471 4.78019 8.89471 4.73983C8.89471 4.6744 8.91673 4.66912 9.10003 4.69075C9.21294 4.70408 9.70132 4.78883 10.1853 4.87913ZM8.07274 4.95082C8.1054 4.9683 8.16269 5.06529 8.20012 5.16626C8.42307 5.76853 9.16851 6.52089 9.84711 6.82859C10.0744 6.93164 10.1076 6.96101 10.1434 7.09057C10.2249 7.38588 10.02 7.73574 9.73401 7.78935C9.40398 7.8513 9.37684 7.83202 8.33453 6.79605C7.80059 6.26531 7.33865 5.78358 7.30795 5.72551C7.22742 5.57303 7.23833 5.30682 7.33133 5.15422C7.47333 4.92129 7.83328 4.82254 8.07274 4.95082ZM12.4803 5.26654C12.6473 5.32958 12.8021 5.49739 12.8469 5.66364C12.9198 5.93419 12.8538 6.05222 12.3376 6.57435C11.8772 7.04004 11.8669 7.05424 11.8669 7.22538C11.8669 7.46382 12.0131 7.61051 12.2508 7.61051C12.402 7.61051 12.4399 7.58705 12.7204 7.31904C13.0318 7.02155 13.1599 6.94517 13.3458 6.9463C13.5034 6.94728 13.7462 7.10414 13.828 7.25791C13.996 7.57359 13.8852 7.82244 13.3487 8.33401C13.1682 8.50609 12.9899 8.69087 12.9524 8.74464C12.7765 8.99697 12.9601 9.33126 13.2747 9.33126C13.424 9.33126 13.4626 9.3067 13.7586 9.02325C13.971 8.81985 14.1238 8.70565 14.2085 8.68704C14.474 8.62877 14.7393 8.74852 14.8595 8.98082C14.928 9.11339 14.9352 9.37991 14.8734 9.50005C14.8493 9.54702 14.6381 9.78073 14.4041 10.0194C14.0028 10.4288 13.9788 10.4625 13.9788 10.6137C13.9788 10.8322 14.1014 10.9715 14.3197 11.0007C14.4798 11.0222 14.4919 11.0157 14.7498 10.7685C15.1648 10.3708 15.3672 10.3053 15.6649 10.4726C15.8716 10.5888 15.9906 10.8327 15.9524 11.0617C15.9278 11.2093 15.8615 11.2921 15.3624 11.7992C14.8276 12.3423 14.8 12.378 14.8 12.5267C14.8 12.7825 15.0401 12.9756 15.2823 12.9148C15.3326 12.9022 15.4572 12.8183 15.5595 12.7283L15.7453 12.5647L16.3774 13.1967L17.0094 13.8288L15.2008 15.6374L13.3922 17.446L12.7458 16.7995L12.0993 16.1531L12.4524 15.8C12.8299 15.4225 12.8639 15.3455 12.7498 15.1249C12.6854 15.0004 12.5404 14.9237 12.3693 14.9237C12.2742 14.9237 12.1921 14.9795 11.9689 15.196C11.51 15.6409 11.2821 15.6993 10.2608 15.6334C9.57554 15.5892 9.18529 15.6214 8.90211 15.7457C8.76597 15.8054 8.51032 16.0341 7.90994 16.6331L7.10114 17.4401L5.29948 15.6469C4.30856 14.6607 3.49781 13.8347 3.49781 13.8114C3.49781 13.7882 3.77798 13.4893 4.12037 13.1474L4.74297 12.5258L4.93186 12.6066C5.32462 12.7748 5.74589 12.7532 6.13193 12.5453C6.47663 12.3596 6.75793 11.954 6.80944 11.5686C6.8367 11.3645 6.86998 11.3273 7.02582 11.3264C7.21729 11.3253 7.55765 11.1684 7.75671 10.9894C7.98549 10.7837 8.14951 10.4749 8.18518 10.1827L8.21032 9.97655L8.4165 9.9514C8.70868 9.91573 9.01751 9.75171 9.22318 9.52293C9.40214 9.32387 9.55908 8.98352 9.56014 8.79204C9.56104 8.63487 9.59827 8.60288 9.81375 8.57425C10.2466 8.51676 10.6401 8.21062 10.8427 7.77379C10.9834 7.47051 10.9872 7.02436 10.8517 6.71768L10.7596 6.50923L11.323 5.94463C12.0063 5.25997 12.1853 5.15508 12.4803 5.26654ZM6.93153 6.63058C7.06997 6.67028 8.4036 7.91626 8.64567 8.23209C8.95631 8.63733 8.70879 9.17483 8.21162 9.17483C8.13281 9.17483 8.02988 9.15536 7.98287 9.13158C7.9359 9.10776 7.53192 8.72501 7.08511 8.28098C6.20221 7.40351 6.1527 7.33089 6.23326 7.03179C6.27945 6.86019 6.44765 6.68318 6.61096 6.6343C6.76442 6.58839 6.78366 6.58819 6.93153 6.63058ZM5.92341 8.35317C6.10013 8.40225 7.34897 9.64432 7.39089 9.81268C7.43 9.96966 7.38984 10.2084 7.30521 10.3221C7.11749 10.5744 6.74659 10.6236 6.48566 10.431C6.25539 10.261 5.31563 9.29024 5.24308 9.14746C5.10323 8.87233 5.21821 8.53729 5.50037 8.39764C5.69021 8.30366 5.73013 8.29948 5.92341 8.35317ZM5.2793 10.4271C5.42677 10.4832 5.92196 10.9679 5.98629 11.1192C6.17761 11.569 5.7753 12.0326 5.30464 11.9048C5.10484 11.8506 4.57645 11.3222 4.52217 11.1224C4.39952 10.6708 4.84481 10.2619 5.2793 10.4271ZM13.4615 13.7313C13.238 13.8566 13.2027 14.1537 13.3891 14.3401C13.6651 14.6161 14.1391 14.3329 14.0175 13.9647C13.9946 13.8951 13.9434 13.8089 13.9039 13.7731C13.8013 13.6802 13.5884 13.6601 13.4615 13.7313ZM18.9313 14.4251C19.4309 14.9257 19.4823 15.0114 19.4357 15.2662C19.4122 15.395 19.1471 15.6749 17.2328 17.5924C16.0359 18.7914 15.0006 19.7989 14.9322 19.8314C14.7827 19.9023 14.6165 19.9052 14.4973 19.839C14.4491 19.8122 14.2159 19.5988 13.9792 19.3647C13.528 18.9186 13.4519 18.7894 13.4968 18.5464C13.5148 18.4494 13.9681 17.9733 15.6752 16.259C16.8608 15.0683 17.8837 14.0608 17.9482 14.0202C18.0222 13.9735 18.137 13.9462 18.2594 13.9462L18.4532 13.946L18.9313 14.4251ZM2.84815 17.5417C2.80274 17.5608 2.72625 17.6264 2.67822 17.6874C2.56176 17.8351 2.58808 18.0726 2.73497 18.1989C2.97666 18.4068 3.38049 18.2318 3.38049 17.9191C3.38049 17.6601 3.0772 17.445 2.84815 17.5417Z" fill="#F5F5F5"/>
<path d="M1.08407 16.5174C0.38501 15.8244 0.310158 15.6946 0.311292 15.1779C0.312387 14.6762 0.379613 14.5555 1.01136 13.9214C1.55051 13.3802 1.69747 13.2796 2.05856 13.2051C2.27369 13.1608 2.34749 13.1666 2.79387 13.2637C2.87893 13.2823 2.97545 13.2009 3.53563 12.6387L4.17962 11.9923L4.05592 11.8644C3.98791 11.794 3.88412 11.6312 3.82534 11.5025C3.68408 11.1934 3.67728 10.789 3.80766 10.4538C3.912 10.1857 4.21865 9.85422 4.46198 9.74659L4.62443 9.67475L4.52064 9.47366C4.42972 9.29751 4.41685 9.22661 4.41689 8.90108C4.41693 8.56709 4.42862 8.50644 4.53261 8.30096C4.6723 8.0249 4.94977 7.76569 5.22975 7.64962L5.43624 7.56405L5.43749 7.20598C5.43882 6.81502 5.49541 6.63962 5.71793 6.33649C5.84988 6.15675 6.14308 5.94795 6.35082 5.88569L6.48957 5.84416L6.47643 5.52477C6.46595 5.27096 6.48046 5.15958 6.54694 4.98238C6.7726 4.38125 7.46113 3.99494 8.07306 4.12615C8.25686 4.16557 8.28651 4.16185 8.39315 4.08594C8.45776 4.03991 8.58388 3.97816 8.67336 3.94875C8.92338 3.86655 9.29561 3.90812 10.6546 4.16991C11.3321 4.30041 12.0622 4.42364 12.277 4.4437C12.9224 4.50401 13.3054 4.75078 13.5429 5.25934C13.6304 5.44682 13.6454 5.53161 13.6446 5.83622L13.6438 6.19328L13.8327 6.26121C14.0893 6.35346 14.4185 6.66253 14.5539 6.93825C14.6506 7.13527 14.6631 7.2041 14.6631 7.53883V7.91684L14.8019 7.95842C15.1452 8.06127 15.4883 8.39901 15.6367 8.78027C15.7053 8.9563 15.7313 9.4042 15.682 9.55954C15.6622 9.62188 15.6714 9.64413 15.7169 9.64413C15.7508 9.64413 15.857 9.68097 15.9528 9.72602C16.5644 10.0135 16.8846 10.7249 16.6853 11.3533C16.6429 11.4867 16.5419 11.6863 16.4608 11.7969L16.3132 11.9979L16.9607 12.6453L17.6081 13.2927L17.7759 13.2256C18.0207 13.1277 18.4393 13.1357 18.7272 13.2439C18.9222 13.3171 19.0374 13.4075 19.4555 13.8152C19.8097 14.1605 19.99 14.3693 20.0843 14.5431C20.2066 14.7686 20.2165 14.8131 20.2165 15.1388C20.2165 15.7337 20.3234 15.6027 17.7053 18.2136C15.1148 20.7969 15.2917 20.6542 14.6827 20.6517C14.2108 20.6498 14.074 20.5738 13.459 19.9722C12.8338 19.3607 12.7068 19.1408 12.7123 18.68C12.7144 18.5076 12.7432 18.3121 12.7815 18.2101L12.8471 18.0355L12.0535 17.242L11.26 16.4484L10.3316 16.426C9.71524 16.4112 9.36041 16.4178 9.27578 16.4458C9.1924 16.4733 8.88838 16.7481 8.39593 17.241L7.64353 17.9942L7.7282 18.209C7.78745 18.3593 7.81342 18.5121 7.81467 18.7172C7.81744 19.1715 7.70869 19.367 7.12375 19.9589C6.51104 20.579 6.30494 20.6933 5.80589 20.6899C5.31575 20.6865 5.1996 20.6188 4.50484 19.932M1.08407 16.5174C1.63017 17.0587 1.65098 17.0746 1.81241 17.0746C2.03619 17.0746 2.20725 16.9131 2.20725 16.7016C2.20725 16.5688 2.16384 16.5129 1.66267 16.0008M1.08407 16.5174L4.50484 19.932M1.66267 16.0008C0.885163 15.2063 0.883872 15.1774 1.59572 14.4642L2.07381 13.9851H2.27389C2.44788 13.9851 2.49864 14.0049 2.66325 14.1373C2.76735 14.221 3.78119 15.221 4.91626 16.3596C6.47236 17.9206 6.98926 18.4622 7.01777 18.5616C7.08953 18.8118 7.01777 18.9367 6.51969 19.4286C6.01562 19.9264 5.89235 19.9905 5.63831 19.8869C5.57161 19.8597 5.29568 19.6219 5.01435 19.3502M1.66267 16.0008L5.01435 19.3502M4.50484 19.932C3.93899 19.3725 3.928 19.3584 3.928 19.1928C3.928 18.9664 4.08846 18.7954 4.30082 18.7954C4.43304 18.7954 4.48936 18.8386 4.97844 19.3153C4.99041 19.327 5.00239 19.3386 5.01435 19.3502M9.96627 0.821365L9.83331 0.954332V1.9379C9.83331 3.00617 9.84821 3.09299 10.0473 3.18368C10.2353 3.26937 10.4118 3.22549 10.5462 3.05963C10.6061 2.9856 10.6138 2.86538 10.6146 1.99058C10.6155 0.926096 10.6019 0.841154 10.4143 0.744127C10.2386 0.653318 10.1126 0.675062 9.96627 0.821365ZM3.57302 0.920034C3.48232 1.01076 3.4587 1.06888 3.4587 1.20161C3.4587 1.36712 3.46723 1.3774 4.27215 2.18232L5.0856 2.99577H5.26408C5.46041 2.99577 5.62505 2.87645 5.65665 2.71126C5.69713 2.49949 5.615 2.39073 4.81493 1.59676C4.03089 0.818627 4.01517 0.805722 3.8526 0.805722C3.7221 0.805722 3.66332 0.829773 3.57302 0.920034ZM16.3409 0.918118C16.257 0.979948 15.876 1.34713 15.4942 1.73407C14.8243 2.41306 14.8 2.44317 14.8 2.59636C14.8 2.71009 14.8287 2.78924 14.9013 2.87543C14.9875 2.97794 15.0294 2.99577 15.1837 2.99577H15.365L16.1776 2.18326C16.9829 1.37787 16.9901 1.36923 16.9901 1.20255C16.9901 1.0688 16.9666 1.01096 16.8758 0.920034C16.7232 0.767513 16.5461 0.766888 16.3409 0.918118ZM10.1853 4.87913C10.6692 4.96939 11.0731 5.04956 11.0828 5.05723C11.0925 5.0649 10.8736 5.2986 10.5963 5.57655L10.092 6.08186L9.93334 5.99559C9.68943 5.86301 9.12604 5.27819 9.00199 5.02884C8.94297 4.91022 8.89471 4.78019 8.89471 4.73983C8.89471 4.6744 8.91673 4.66912 9.10003 4.69075C9.21294 4.70408 9.70132 4.78883 10.1853 4.87913ZM8.07274 4.95082C8.1054 4.9683 8.16269 5.06529 8.20012 5.16626C8.42307 5.76853 9.16851 6.52089 9.84711 6.82859C10.0744 6.93164 10.1076 6.96101 10.1434 7.09057C10.2249 7.38588 10.02 7.73574 9.73401 7.78935C9.40398 7.8513 9.37684 7.83202 8.33453 6.79605C7.80059 6.26531 7.33865 5.78358 7.30795 5.72551C7.22742 5.57303 7.23833 5.30682 7.33133 5.15422C7.47333 4.92129 7.83328 4.82254 8.07274 4.95082ZM12.4803 5.26654C12.6473 5.32958 12.8021 5.49739 12.8469 5.66364C12.9198 5.93419 12.8538 6.05222 12.3376 6.57435C11.8772 7.04004 11.8669 7.05424 11.8669 7.22538C11.8669 7.46382 12.0131 7.61051 12.2508 7.61051C12.402 7.61051 12.4399 7.58705 12.7204 7.31904C13.0318 7.02155 13.1599 6.94517 13.3458 6.9463C13.5034 6.94728 13.7462 7.10414 13.828 7.25791C13.996 7.57359 13.8852 7.82244 13.3487 8.33401C13.1682 8.50609 12.9899 8.69087 12.9524 8.74464C12.7765 8.99697 12.9601 9.33126 13.2747 9.33126C13.424 9.33126 13.4626 9.3067 13.7586 9.02325C13.971 8.81985 14.1238 8.70565 14.2085 8.68704C14.474 8.62877 14.7393 8.74852 14.8595 8.98082C14.928 9.11339 14.9352 9.37991 14.8734 9.50005C14.8493 9.54702 14.6381 9.78073 14.4041 10.0194C14.0028 10.4288 13.9788 10.4625 13.9788 10.6137C13.9788 10.8322 14.1014 10.9715 14.3197 11.0007C14.4798 11.0222 14.4919 11.0157 14.7498 10.7685C15.1648 10.3708 15.3672 10.3053 15.6649 10.4726C15.8716 10.5888 15.9906 10.8327 15.9524 11.0617C15.9278 11.2093 15.8615 11.2921 15.3624 11.7992C14.8276 12.3423 14.8 12.378 14.8 12.5267C14.8 12.7825 15.0401 12.9756 15.2823 12.9148C15.3326 12.9022 15.4572 12.8183 15.5595 12.7283L15.7453 12.5647L16.3774 13.1967L17.0094 13.8288L15.2008 15.6374L13.3922 17.446L12.7458 16.7995L12.0993 16.1531L12.4524 15.8C12.8299 15.4225 12.8639 15.3455 12.7498 15.1249C12.6854 15.0004 12.5404 14.9237 12.3693 14.9237C12.2742 14.9237 12.1921 14.9795 11.9689 15.196C11.51 15.6409 11.2821 15.6993 10.2608 15.6334C9.57554 15.5892 9.18529 15.6214 8.90211 15.7457C8.76597 15.8054 8.51032 16.0341 7.90994 16.6331L7.10114 17.4401L5.29948 15.6469C4.30856 14.6607 3.49781 13.8347 3.49781 13.8114C3.49781 13.7882 3.77798 13.4893 4.12037 13.1474L4.74297 12.5258L4.93186 12.6066C5.32462 12.7748 5.74589 12.7532 6.13193 12.5453C6.47663 12.3596 6.75793 11.954 6.80944 11.5686C6.8367 11.3645 6.86998 11.3273 7.02582 11.3264C7.21729 11.3253 7.55765 11.1684 7.75671 10.9894C7.98549 10.7837 8.14951 10.4749 8.18518 10.1827L8.21032 9.97655L8.4165 9.9514C8.70868 9.91573 9.01751 9.75171 9.22318 9.52293C9.40214 9.32387 9.55908 8.98352 9.56014 8.79204C9.56104 8.63487 9.59827 8.60288 9.81375 8.57425C10.2466 8.51676 10.6401 8.21062 10.8427 7.77379C10.9834 7.47051 10.9872 7.02436 10.8517 6.71768L10.7596 6.50923L11.323 5.94463C12.0063 5.25997 12.1853 5.15508 12.4803 5.26654ZM6.93153 6.63058C7.06997 6.67028 8.4036 7.91626 8.64567 8.23209C8.95631 8.63733 8.7088 9.17483 8.21162 9.17483C8.13281 9.17483 8.02988 9.15536 7.98287 9.13158C7.9359 9.10776 7.53192 8.72501 7.08511 8.28098C6.20221 7.40351 6.1527 7.33089 6.23326 7.03179C6.27945 6.86019 6.44765 6.68318 6.61096 6.6343C6.76442 6.58839 6.78366 6.58819 6.93153 6.63058ZM5.92341 8.35317C6.10013 8.40225 7.34897 9.64432 7.39089 9.81268C7.43 9.96966 7.38984 10.2084 7.30521 10.3221C7.11749 10.5744 6.74659 10.6236 6.48566 10.431C6.25539 10.261 5.31563 9.29024 5.24308 9.14746C5.10323 8.87233 5.21821 8.53729 5.50037 8.39764C5.6902 8.30366 5.73013 8.29948 5.92341 8.35317ZM5.2793 10.4271C5.42677 10.4832 5.92196 10.9679 5.98629 11.1192C6.17761 11.569 5.7753 12.0326 5.30464 11.9048C5.10484 11.8506 4.57645 11.3222 4.52217 11.1224C4.39952 10.6708 4.84481 10.2619 5.2793 10.4271ZM13.4615 13.7313C13.238 13.8566 13.2027 14.1537 13.3891 14.3401C13.6651 14.6161 14.1391 14.3329 14.0175 13.9647C13.9946 13.8951 13.9434 13.8089 13.9039 13.7731C13.8013 13.6802 13.5884 13.6601 13.4615 13.7313ZM18.9313 14.4251C19.4309 14.9257 19.4823 15.0114 19.4357 15.2662C19.4122 15.395 19.1471 15.6749 17.2328 17.5924C16.0359 18.7914 15.0006 19.7989 14.9322 19.8314C14.7827 19.9023 14.6165 19.9052 14.4973 19.839C14.4491 19.8122 14.2159 19.5988 13.9792 19.3647C13.528 18.9185 13.4519 18.7894 13.4968 18.5464C13.5148 18.4494 13.9681 17.9733 15.6752 16.259C16.8608 15.0683 17.8837 14.0608 17.9482 14.0202C18.0222 13.9735 18.137 13.9462 18.2594 13.9462L18.4532 13.946L18.9313 14.4251ZM2.84815 17.5417C2.80274 17.5608 2.72625 17.6264 2.67822 17.6874C2.56176 17.8351 2.58808 18.0726 2.73497 18.1989C2.97666 18.4068 3.38049 18.2318 3.38049 17.9191C3.38049 17.6601 3.0772 17.445 2.84815 17.5417Z" stroke="#F5F5F5" stroke-width="0.5"/>
<path d="M3.81128 19.1899L1.31128 16.6899L1.81128 16.1899L4.31128 18.6899L3.81128 19.1899Z" fill="#F5F5F5" stroke="#F5F5F5" stroke-width="0.25"/>
</svg>
