<svg width="21" height="21" viewBox="0 0 21 21" fill="none" xmlns="http://www.w3.org/2000/svg">
<path fill-rule="evenodd" clip-rule="evenodd" d="M13.6446 4.85661H6.97794C6.5177 4.85661 6.1446 5.2297 6.1446 5.68994V9.02327C6.1446 11.3245 8.01008 13.1899 10.3113 13.1899C12.6125 13.1899 14.4779 11.3245 14.4779 9.02327V5.68994C14.4779 5.2297 14.1048 4.85661 13.6446 4.85661ZM6.97794 3.18994C5.59722 3.18994 4.47794 4.30923 4.47794 5.68994V9.02327C4.47794 12.2449 7.08961 14.8566 10.3113 14.8566C13.5329 14.8566 16.1446 12.2449 16.1446 9.02327V5.68994C16.1446 4.30923 15.0253 3.18994 13.6446 3.18994H6.97794Z" fill="#F5F5F5"/>
<path fill-rule="evenodd" clip-rule="evenodd" d="M1.14462 7.35645C1.14462 5.97573 2.26391 4.85645 3.64462 4.85645H6.14462V11.5231H4.47796C2.63701 11.5231 1.14462 10.0307 1.14462 8.18978V7.35645ZM3.64462 6.52311H4.47796V9.85645C3.55748 9.85645 2.81129 9.11025 2.81129 8.18978V7.35645C2.81129 6.89621 3.18439 6.52311 3.64462 6.52311Z" fill="#F5F5F5"/>
<path fill-rule="evenodd" clip-rule="evenodd" d="M19.478 7.35645C19.478 5.97573 18.3587 4.85645 16.978 4.85645H14.478V11.5231H16.1446C17.9856 11.5231 19.478 10.0307 19.478 8.18978V7.35645ZM16.978 6.52311H16.1446V9.85645C17.0651 9.85645 17.8113 9.11025 17.8113 8.18978V7.35645C17.8113 6.89621 17.4382 6.52311 16.978 6.52311Z" fill="#F5F5F5"/>
<path d="M10.3113 13.1899C9.85103 13.1899 9.47794 13.563 9.47794 14.0233V16.5233H7.81127C7.35103 16.5233 6.97794 16.8964 6.97794 17.3566C6.97794 17.8168 7.35103 18.1899 7.81127 18.1899H12.8113C13.2715 18.1899 13.6446 17.8168 13.6446 17.3566C13.6446 16.8964 13.2715 16.5233 12.8113 16.5233H11.1446V14.0233C11.1446 13.563 10.7715 13.1899 10.3113 13.1899Z" fill="#F5F5F5"/>
</svg>
