<svg width="21" height="21" viewBox="0 0 21 21" fill="none" xmlns="http://www.w3.org/2000/svg">
<path fill-rule="evenodd" clip-rule="evenodd" d="M3.43628 10.6899C3.43628 6.89298 6.51432 3.81494 10.3113 3.81494C14.1082 3.81494 17.1863 6.89298 17.1863 10.6899C17.1863 14.4869 14.1082 17.5649 10.3113 17.5649C6.51432 17.5649 3.43628 14.4869 3.43628 10.6899ZM10.3113 2.56494C5.82397 2.56494 2.18628 6.20263 2.18628 10.6899C2.18628 15.1773 5.82397 18.8149 10.3113 18.8149C14.7986 18.8149 18.4363 15.1773 18.4363 10.6899C18.4363 6.20263 14.7986 2.56494 10.3113 2.56494ZM7.58541 12.2096C7.50423 11.8741 7.16645 11.668 6.83095 11.7491C6.49546 11.8303 6.2893 12.1681 6.37048 12.5036C6.57775 13.3602 7.08664 14.1171 7.80383 14.655C8.52037 15.1924 9.40458 15.4816 10.3113 15.4816C11.218 15.4816 12.1022 15.1924 12.8187 14.655C13.5359 14.1171 14.0448 13.3602 14.2521 12.5036C14.3333 12.1681 14.1271 11.8303 13.7916 11.7491C13.4561 11.668 13.1183 11.8741 13.0371 12.2096C12.9008 12.7731 12.5628 13.2844 12.0687 13.655C11.574 14.026 10.9544 14.2316 10.3113 14.2316C9.66818 14.2316 9.04857 14.026 8.55383 13.655C8.05974 13.2844 7.72176 12.7731 7.58541 12.2096ZM8.75621 9.63823C8.41658 9.69987 8.09129 9.47451 8.02966 9.13488C8.00651 9.0073 7.95303 8.91634 7.90245 8.86576C7.85471 8.81802 7.82103 8.81494 7.81128 8.81494C7.80153 8.81494 7.76785 8.81802 7.72011 8.86576C7.66952 8.91634 7.61605 9.0073 7.5929 9.13488C7.53127 9.47451 7.20597 9.69987 6.86634 9.63823C6.52671 9.57659 6.30135 9.2513 6.36299 8.91167C6.42574 8.56589 6.58399 8.23411 6.83623 7.98187C7.0913 7.7268 7.43358 7.56494 7.81128 7.56494C8.18898 7.56494 8.53126 7.7268 8.78633 7.98187C9.03857 8.23411 9.19682 8.56589 9.25957 8.91167C9.3212 9.2513 9.09584 9.57659 8.75621 9.63823ZM13.0297 9.13488C13.0913 9.47451 13.4166 9.69987 13.7562 9.63823C14.0958 9.57659 14.3212 9.2513 14.2596 8.91167C14.1968 8.56589 14.0386 8.23411 13.7863 7.98188C13.5313 7.7268 13.189 7.56494 12.8113 7.56494C12.4336 7.56494 12.0913 7.7268 11.8362 7.98188C11.584 8.23411 11.4257 8.56589 11.363 8.91167C11.3014 9.2513 11.5267 9.57659 11.8663 9.63823C12.206 9.69987 12.5313 9.47451 12.5929 9.13488C12.6161 9.0073 12.6695 8.91634 12.7201 8.86576C12.7679 8.81802 12.8015 8.81494 12.8113 8.81494C12.821 8.81494 12.8547 8.81802 12.9024 8.86576C12.953 8.91634 13.0065 9.0073 13.0297 9.13488Z" fill="#F5F5F5"/>
</svg>
