<svg width="21" height="21" viewBox="0 0 21 21" fill="none" xmlns="http://www.w3.org/2000/svg">
<g clip-path="url(#clip0_1_25401)">
<path d="M15.7631 7.95703L14.337 9.95359C14.8926 10.1134 15.3689 10.4608 15.6929 10.9227L17.1191 8.92608C16.5634 8.7663 16.0871 8.41898 15.7631 7.95703Z" fill="#F5F5F5"/>
<path d="M11.9091 10.5571C11.5075 10.9444 11.2353 11.465 11.1635 12.0476L8.71342 10.8226C9.115 10.4352 9.38724 9.91466 9.45903 9.33204L11.9091 10.5571Z" fill="#F5F5F5"/>
<path d="M4.92975 10.457L3.50363 12.4536C4.05931 12.6134 4.53559 12.9608 4.85955 13.4227L6.28574 11.4261C5.73005 11.2663 5.25375 10.919 4.92975 10.457Z" fill="#F5F5F5"/>
<path fill-rule="evenodd" clip-rule="evenodd" d="M20.3113 6.52344C20.3113 7.90415 19.192 9.02344 17.8113 9.02344C16.4306 9.02344 15.3113 7.90415 15.3113 6.52344C15.3113 5.14273 16.4306 4.02344 17.8113 4.02344C19.192 4.02344 20.3113 5.14273 20.3113 6.52344ZM18.6446 6.52344C18.6446 6.98367 18.2715 7.35677 17.8113 7.35677C17.351 7.35677 16.9779 6.98367 16.9779 6.52344C16.9779 6.0632 17.351 5.6901 17.8113 5.6901C18.2715 5.6901 18.6446 6.0632 18.6446 6.52344Z" fill="#F5F5F5"/>
<path fill-rule="evenodd" clip-rule="evenodd" d="M9.47795 9.02344C9.47795 10.4041 8.35866 11.5234 6.97795 11.5234C5.59723 11.5234 4.47795 10.4041 4.47795 9.02344C4.47795 7.64273 5.59723 6.52344 6.97795 6.52344C8.35866 6.52344 9.47795 7.64273 9.47795 9.02344ZM7.81128 9.02344C7.81128 9.48367 7.43818 9.85677 6.97795 9.85677C6.51771 9.85677 6.14461 9.48367 6.14461 9.02344C6.14461 8.5632 6.51771 8.1901 6.97795 8.1901C7.43818 8.1901 7.81128 8.5632 7.81128 9.02344Z" fill="#F5F5F5"/>
<path fill-rule="evenodd" clip-rule="evenodd" d="M5.31128 14.8568C5.31128 16.2375 4.19199 17.3568 2.81128 17.3568C1.43057 17.3568 0.311279 16.2375 0.311279 14.8568C0.311279 13.4761 1.43057 12.3568 2.81128 12.3568C4.19199 12.3568 5.31128 13.4761 5.31128 14.8568ZM3.64461 14.8568C3.64461 15.317 3.27152 15.6901 2.81128 15.6901C2.35104 15.6901 1.97795 15.317 1.97795 14.8568C1.97795 14.3965 2.35104 14.0234 2.81128 14.0234C3.27152 14.0234 3.64461 14.3965 3.64461 14.8568Z" fill="#F5F5F5"/>
<path fill-rule="evenodd" clip-rule="evenodd" d="M13.6446 14.8568C15.0253 14.8568 16.1446 13.7375 16.1446 12.3568C16.1446 10.9761 15.0253 9.85677 13.6446 9.85677C12.2639 9.85677 11.1446 10.9761 11.1446 12.3568C11.1446 13.7375 12.2639 14.8568 13.6446 14.8568ZM13.6446 13.1901C14.1048 13.1901 14.4779 12.817 14.4779 12.3568C14.4779 11.8965 14.1048 11.5234 13.6446 11.5234C13.1844 11.5234 12.8113 11.8965 12.8113 12.3568C12.8113 12.817 13.1844 13.1901 13.6446 13.1901Z" fill="#F5F5F5"/>
</g>
<defs>
<clipPath id="clip0_1_25401">
<rect width="20" height="20" fill="white" transform="translate(0.311279 0.689941)"/>
</clipPath>
</defs>
</svg>
