<svg width="21" height="21" viewBox="0 0 21 21" fill="none" xmlns="http://www.w3.org/2000/svg">
<path fill-rule="evenodd" clip-rule="evenodd" d="M19.1712 0.742041C17.3517 0.951015 15.3501 1.50908 13.7507 2.2534C12.8905 2.65369 11.9113 3.25896 11.1742 3.84602C10.7732 4.1654 9.95715 4.95084 9.60201 5.35926L9.42406 5.56393L9.09319 5.40889C7.38548 4.6086 5.7353 5.3507 4.71899 7.37599C4.36924 8.07295 4.13053 8.90514 4.07765 9.61203C4.04001 10.1144 4.14225 10.294 4.46582 10.294C4.57314 10.294 4.65032 10.2523 4.82991 10.0972C5.27404 9.71384 5.90886 9.47543 6.48975 9.47391C6.68766 9.4734 6.7711 9.49095 6.84145 9.54793L6.93368 9.62258L6.86017 9.81174C6.67554 10.2869 6.40767 11.0883 6.3245 11.4144C6.24442 11.7284 6.2386 11.7986 6.27757 11.9811C6.31563 12.1596 6.31329 12.1951 6.26111 12.2286C6.22762 12.2501 6.06773 12.3528 5.90577 12.4568C5.30523 12.8426 4.952 13.2698 4.65103 13.9742C4.44581 14.4545 4.20482 15.4014 4.11689 16.0731C4.05142 16.5733 4.05146 16.6012 4.1181 16.7249C4.24914 16.9683 4.36416 16.9773 5.31293 16.8189C6.24012 16.6641 7.10518 16.3718 7.646 16.0306C7.95753 15.834 8.35312 15.4063 8.60575 14.9928C8.75278 14.7522 8.82 14.6744 8.86554 14.692C9.05493 14.7655 9.2981 14.7539 9.66536 14.6538C10.0163 14.5582 10.7169 14.3212 11.1875 14.1388L11.3766 14.0655L11.4562 14.1632C11.5282 14.2514 11.5337 14.2969 11.5129 14.6321C11.4752 15.2413 11.2838 15.7216 10.9004 16.1693C10.7472 16.3482 10.7052 16.4265 10.7052 16.5334C10.7052 16.857 10.8848 16.9592 11.3872 16.9216C12.8392 16.8129 14.4593 16.0203 15.2416 15.0358C15.9869 14.0979 16.108 13.0108 15.5903 11.906L15.4353 11.5751L15.64 11.3972C16.0459 11.0442 16.8329 10.2271 17.1446 9.83503C18.7897 7.76584 19.906 4.8767 20.2594 1.77398C20.3317 1.13849 20.3335 1.02652 20.2728 0.893525C20.172 0.672161 19.9934 0.647617 19.1712 0.742041ZM19.4815 1.72512C19.3868 2.53628 19.1966 3.51409 18.9819 4.2948C18.9168 4.53125 18.855 4.7643 18.8444 4.81265C18.8339 4.86099 18.814 4.90058 18.8003 4.90058C18.763 4.90058 16.0797 2.20924 16.1003 2.19259C16.1294 2.16922 16.67 2.01856 17.1741 1.89334C17.7606 1.74771 19.0273 1.52725 19.3958 1.50665L19.5078 1.5004L19.4815 1.72512ZM16.8929 4.11201L18.5271 5.74656L18.3414 6.2127C17.9651 7.15756 17.3653 8.23917 16.7864 9.0168C15.6594 10.5308 13.8997 11.9584 11.9664 12.9272C11.768 13.0266 11.5834 13.1079 11.5562 13.1079C11.4914 13.1079 7.89129 9.50822 7.89129 9.44338C7.89129 9.29925 8.55882 8.09719 9.02495 7.40187C10.3549 5.41815 11.8543 4.07176 13.8123 3.1031C14.331 2.84648 15.1628 2.48227 15.239 2.47844C15.2498 2.47789 15.9941 3.213 16.8929 4.11201ZM14.1098 4.67121C13.7375 4.71654 13.3313 4.92481 13.0325 5.22372C12.6414 5.61478 12.4639 6.04555 12.4639 6.60365C12.4639 7.69256 13.3066 8.53526 14.3956 8.53526C14.9537 8.53526 15.3844 8.35779 15.7755 7.96673C16.3608 7.38147 16.5124 6.51458 16.1594 5.77138C15.7862 4.98555 14.9989 4.56291 14.1098 4.67121ZM14.8695 5.525C15.7705 5.91079 15.8009 7.19309 14.9193 7.63359C14.7182 7.73411 14.6336 7.75361 14.3985 7.75361C13.7333 7.75361 13.2469 7.26551 13.246 6.59716C13.2457 6.36555 13.2653 6.28059 13.3656 6.07986C13.6453 5.52016 14.2968 5.2798 14.8695 5.525ZM8.26886 5.93228C8.37982 5.96183 8.57101 6.03198 8.69377 6.08815C8.90036 6.18277 8.91294 6.1959 8.86335 6.26499C8.33401 7.00221 7.87475 7.732 7.52074 8.39847C7.39517 8.63492 7.28934 8.83284 7.28554 8.83831C7.28175 8.84378 7.22559 8.82178 7.16075 8.78946C6.99645 8.7075 6.40756 8.67447 6.0401 8.72661C5.7786 8.7637 5.28792 8.9069 5.02294 9.02344C4.95556 9.05307 4.95142 9.0431 4.97623 8.91096C4.99116 8.83123 5.0483 8.63055 5.10317 8.46499C5.5135 7.22682 6.2966 6.26976 7.1443 5.97055C7.44821 5.86326 7.94604 5.84634 8.26886 5.93228ZM12.0145 8.46312C11.892 8.53006 11.3701 9.05119 11.3082 9.1684C11.1179 9.52843 11.4708 9.88127 11.8308 9.69105C11.9553 9.62527 12.4751 9.10063 12.5377 8.97752C12.7025 8.65384 12.332 8.28959 12.0145 8.46312ZM10.4444 10.0896C10.1719 10.1333 10.0622 10.5219 10.2631 10.7315C10.4636 10.9408 10.8554 10.8348 10.9085 10.5568C10.9306 10.4413 10.8755 10.2369 10.8069 10.18C10.733 10.1187 10.5489 10.0728 10.4444 10.0896ZM9.15994 11.8558C10.0402 12.7362 10.7524 13.4635 10.7426 13.4719C10.7045 13.5046 10.0316 13.7336 9.63054 13.8505C9.36399 13.9281 9.17124 13.9641 9.10691 13.9483C8.98118 13.9173 7.13324 12.0868 7.0675 11.9281C7.03034 11.8384 7.03428 11.7701 7.08802 11.5733C7.19245 11.1909 7.51074 10.2549 7.53634 10.2549C7.54904 10.2549 8.27965 10.9753 9.15994 11.8558ZM3.07565 11.8488C2.43727 12.4871 2.41973 12.5091 2.41973 12.6673C2.41973 12.9106 2.55311 13.0493 2.78718 13.0493H2.96598L3.61127 12.4049C4.30913 11.708 4.36006 11.6261 4.24011 11.3942C4.16273 11.2446 4.0701 11.1929 3.87938 11.1929C3.74025 11.1929 3.69296 11.2315 3.07565 11.8488ZM14.8819 12.2383C15.1357 12.7373 15.1945 13.3851 15.0287 13.8549C14.8461 14.3721 14.4139 14.879 13.8218 15.2704C13.3838 15.56 13.0852 15.7039 12.548 15.8847C12.0311 16.0587 11.9329 16.0735 11.9767 15.9707C12.2189 15.4034 12.3259 14.853 12.2957 14.3299C12.2835 14.1188 12.2491 13.9174 12.2129 13.8447C12.1788 13.7764 12.1554 13.7174 12.1609 13.7135C12.1664 13.7096 12.3467 13.6131 12.5617 13.4992C13.2511 13.1336 14.1296 12.5857 14.6093 12.222C14.7038 12.1504 14.787 12.0918 14.7942 12.0918C14.8014 12.0918 14.8409 12.1577 14.8819 12.2383ZM7.49026 13.5081C7.83981 13.8571 8.12578 14.1668 8.12578 14.1963C8.12578 14.4005 7.58609 15.1288 7.27734 15.3413C6.89425 15.6049 6.14261 15.8719 5.37046 16.0187C4.88935 16.1102 4.90725 16.1171 4.93953 15.8535C5.02055 15.1925 5.38011 14.1257 5.65795 13.7219C5.86982 13.4139 6.58972 12.8782 6.79654 12.8745C6.82855 12.8739 7.1407 13.159 7.49026 13.5081ZM3.24878 13.9564C3.14393 13.9765 0.385751 16.7373 0.33295 16.875C0.230241 17.143 0.509916 17.423 0.807569 17.3501C0.878348 17.3327 1.38568 16.8544 2.29384 15.9486C3.78965 14.4569 3.82107 14.4168 3.69159 14.1664C3.65348 14.0927 3.57051 14.0165 3.49317 13.9842C3.42004 13.9537 3.35524 13.931 3.34919 13.934C3.34313 13.9369 3.29795 13.947 3.24878 13.9564ZM9.27872 16.7414C9.23573 16.7595 8.91236 17.0654 8.56011 17.4212L7.91962 18.068L7.94213 18.2358C7.97195 18.4581 8.10956 18.5795 8.33186 18.5795C8.49015 18.5795 8.51207 18.5619 9.15041 17.9236C9.76776 17.3063 9.80633 17.259 9.80633 17.1198C9.80633 16.9312 9.75474 16.8365 9.6117 16.7625C9.48566 16.6973 9.39667 16.6917 9.27872 16.7414ZM3.39679 17.2938C3.27907 17.3398 0.640569 19.9612 0.560724 20.1115C0.41389 20.388 0.604301 20.6899 0.925442 20.6899C1.0106 20.6899 1.29411 20.4261 2.46385 19.2578C3.43169 18.2913 3.9042 17.7926 3.91737 17.7239C3.94574 17.5755 3.85058 17.3823 3.71445 17.3119C3.58024 17.2425 3.53479 17.2399 3.39679 17.2938ZM6.5234 17.2938C6.40568 17.3398 3.76717 19.9612 3.68733 20.1115C3.5405 20.388 3.73091 20.6899 4.05205 20.6899C4.13721 20.6899 4.42071 20.4261 5.59046 19.2578C6.5583 18.2913 7.0308 17.7926 7.04398 17.7239C7.07235 17.5755 6.97718 17.3823 6.84106 17.3119C6.70685 17.2425 6.6614 17.2399 6.5234 17.2938Z" fill="#F5F5F5" stroke="#F5F5F5" stroke-width="0.5"/>
</svg>
