<svg width="21" height="21" viewBox="0 0 21 21" fill="white" xmlns="http://www.w3.org/2000/svg">
<g clip-path="url(#clip0_1_25378)">
<path fill-rule="evenodd" clip-rule="evenodd" d="M5.66045 8.64404C5.08418 8.64404 4.68185 9.21495 4.87567 9.75766L8.08406 18.7411C8.42022 19.6824 9.3118 20.3107 10.3113 20.3107C11.3108 20.3107 12.2023 19.6824 12.5385 18.7411L15.7469 9.75766C15.9407 9.21495 15.5384 8.64404 14.9621 8.64404H5.66045ZM6.84296 10.3107L9.65363 18.1806C9.75289 18.4585 10.0162 18.644 10.3113 18.644C10.6064 18.644 10.8697 18.4585 10.9689 18.1806L13.7796 10.3107H6.84296Z" fill="#00ACFF"/>
<path fill-rule="evenodd" clip-rule="evenodd" d="M6.89376 5.86402L6.04001 6.25698C5.60661 6.45647 5.31129 6.89243 5.31129 7.39388C5.31129 8.08424 5.87093 8.64388 6.56129 8.64388H14.0613C14.7516 8.64388 15.3113 8.08424 15.3113 7.39388C15.3113 6.89243 15.016 6.45647 14.5826 6.25699L13.7288 5.86402L13.6233 4.93011C13.4356 3.26907 12.0232 1.97721 10.3113 1.97721C8.59942 1.97721 7.18694 3.26907 6.99928 4.93011L6.89376 5.86402ZM15.2794 4.743C14.9976 2.2488 12.8808 0.310547 10.3113 0.310547C7.74177 0.310547 5.62495 2.2488 5.34315 4.743C4.34061 5.20445 3.64462 6.21789 3.64462 7.39388C3.64462 9.00471 4.95046 10.3105 6.56129 10.3105H14.0613C15.6721 10.3105 16.978 9.00471 16.978 7.39388C16.978 6.21788 16.282 5.20445 15.2794 4.743Z" fill="#00ACFF"/>
</g>
<defs>
<clipPath id="clip0_1_25378">
<rect width="20" height="20" fill="white" transform="translate(0.311279 0.310547)"/>
</clipPath>
</defs>
</svg>
