<svg width="20" height="13" viewBox="0 0 20 13" fill="none" xmlns="http://www.w3.org/2000/svg">
<path fill-rule="evenodd" clip-rule="evenodd" d="M2.08609 0.760736C1.65701 0.867568 1.35498 1.04355 1.01469 1.38496C0.685776 1.71502 0.530616 1.96154 0.398025 2.36479L0.311279 2.62857V6.71718V10.8058L0.41089 11.0822C0.677708 11.8224 1.23849 12.3788 1.94729 12.6064C2.20366 12.6887 2.23995 12.6899 4.36412 12.6899C6.48829 12.6899 6.52458 12.6887 6.78095 12.6064C7.25472 12.4542 7.46387 12.2957 8.34144 11.424C9.07028 10.6999 9.18432 10.6013 9.3758 10.529C9.65709 10.4229 9.96611 10.423 10.2468 10.5294C10.4379 10.6018 10.5533 10.7017 11.2807 11.4244C12.1579 12.2959 12.3665 12.4538 12.8416 12.6064C13.098 12.6887 13.1343 12.6899 15.2584 12.6899C17.3826 12.6899 17.4189 12.6887 17.6753 12.6064C18.0288 12.4929 18.3638 12.2837 18.6371 12.006C18.9065 11.7322 19.0751 11.4612 19.2117 11.0822L19.3113 10.8058V6.71718V2.62857L19.2245 2.36479C19.0919 1.96154 18.9368 1.71502 18.6079 1.38496C18.2655 1.0414 17.9863 0.880418 17.5299 0.763337C17.2404 0.689063 17.1203 0.687933 9.79603 0.690684C2.78563 0.693284 2.34071 0.697316 2.08609 0.760736ZM17.4894 1.93023C17.7269 2.04908 17.9868 2.31245 18.1041 2.55321L18.1958 2.74162V6.69834V10.6551L18.0928 10.8677C17.9726 11.1157 17.7235 11.3627 17.4773 11.478C17.3059 11.5583 17.2753 11.5595 15.277 11.5595C13.3674 11.5595 13.2399 11.5553 13.0647 11.487C12.9118 11.4275 12.7303 11.2668 12.0422 10.5821C11.3432 9.88647 11.1616 9.72621 10.9379 9.60773C10.2165 9.22563 9.40603 9.22563 8.68466 9.60773C8.46098 9.72621 8.27934 9.88647 7.58036 10.5821C6.89227 11.2668 6.71075 11.4275 6.55785 11.487C6.38265 11.5553 6.25512 11.5595 4.34553 11.5595H2.31911L2.10933 11.4551C1.86459 11.3332 1.62087 11.0808 1.50709 10.8313L1.42674 10.6551V6.69834V2.74162L1.5185 2.55321C1.68088 2.21982 2.0202 1.9363 2.35629 1.85321C2.41764 1.83806 5.80585 1.82826 9.88564 1.83142L17.3035 1.83723L17.4894 1.93023ZM5.29541 4.34733C4.99837 4.39119 4.86213 4.43837 4.52549 4.61398C3.88083 4.95022 3.40939 5.6327 3.30328 6.38335C3.20846 7.05422 3.42977 7.77091 3.89901 8.31257C4.06001 8.49842 4.43179 8.76589 4.68987 8.88158C4.9301 8.98924 5.38655 9.09121 5.6283 9.09121C6.12944 9.09121 6.79203 8.83278 7.17913 8.48632C7.46718 8.2285 7.74099 7.80294 7.86361 7.42242C8.00576 6.98134 8.00639 6.41719 7.86521 5.97942C7.58103 5.09809 6.84248 4.47474 5.93007 4.34613C5.61053 4.30109 5.60852 4.30109 5.29541 4.34733ZM13.6434 4.34801C12.7811 4.47798 12.0307 5.1273 11.7581 5.97942C11.6442 6.33549 11.6196 6.89957 11.7028 7.24474C11.8201 7.73051 12.1695 8.28197 12.5451 8.57375C12.9319 8.87427 13.5394 9.09121 13.9943 9.09121C14.2891 9.09121 14.7268 8.97929 15.0353 8.82502C16.1942 8.2456 16.6656 6.82356 16.091 5.64061C15.6504 4.73358 14.6368 4.1983 13.6434 4.34801ZM6.14108 5.57727C6.28349 5.64107 6.41783 5.74183 6.53766 5.87474C7.04881 6.44153 6.93176 7.31506 6.28657 7.74845C5.78216 8.0873 5.14736 7.99705 4.7227 7.52612C4.38966 7.15683 4.3073 6.65221 4.50764 6.20846C4.80461 5.55059 5.49017 5.28568 6.14108 5.57727ZM14.4962 5.57309C14.9265 5.76832 15.2151 6.21087 15.2177 6.6795C15.2197 7.02222 15.1237 7.27798 14.8999 7.52612C14.4674 8.00575 13.836 8.08865 13.3161 7.73413C12.6938 7.30978 12.5795 6.44304 13.0726 5.88717C13.4504 5.46132 13.9883 5.34262 14.4962 5.57309Z" fill="#F5F5F5" stroke="#F5F5F5" stroke-width="0.5"/>
</svg>
