<svg width="32" height="32" viewBox="0 0 32 32" fill="none" xmlns="http://www.w3.org/2000/svg">
<path fill-rule="evenodd" clip-rule="evenodd" d="M29.8327 16C29.8327 23.6399 23.6393 29.8333 15.9993 29.8333C8.35941 29.8333 2.16602 23.6399 2.16602 16C2.16602 8.36002 8.35941 2.16663 15.9993 2.16663C23.6393 2.16663 29.8327 8.36002 29.8327 16ZM31.8327 16C31.8327 24.7445 24.7439 31.8333 15.9993 31.8333C7.25484 31.8333 0.166016 24.7445 0.166016 16C0.166016 7.25545 7.25484 0.166626 15.9993 0.166626C24.7439 0.166626 31.8327 7.25545 31.8327 16ZM15.9993 7.08329C16.5516 7.08329 16.9993 7.53101 16.9993 8.08329V15H23.916C24.4683 15 24.916 15.4477 24.916 16C24.916 16.5522 24.4683 17 23.916 17H16.9993V23.9166C16.9993 24.4689 16.5516 24.9166 15.9993 24.9166C15.4471 24.9166 14.9993 24.4689 14.9993 23.9166V17H8.08268C7.5304 17 7.08268 16.5522 7.08268 16C7.08268 15.4477 7.5304 15 8.08268 15H14.9993V8.08329C14.9993 7.53101 15.4471 7.08329 15.9993 7.08329Z" fill="#00ACFF"/>
</svg>
