<svg width="32" height="32" viewBox="0 0 32 32" fill="none" xmlns="http://www.w3.org/2000/svg">
<path fill-rule="evenodd" clip-rule="evenodd" d="M29.8346 16C29.8346 23.6399 23.6412 29.8333 16.0013 29.8333C8.36136 29.8333 2.16797 23.6399 2.16797 16C2.16797 8.36002 8.36136 2.16663 16.0013 2.16663C23.6412 2.16663 29.8346 8.36002 29.8346 16ZM31.8346 16C31.8346 24.7445 24.7458 31.8333 16.0013 31.8333C7.25679 31.8333 0.167969 24.7445 0.167969 16C0.167969 7.25545 7.25679 0.166626 16.0013 0.166626C24.7458 0.166626 31.8346 7.25545 31.8346 16ZM16.0013 7.08329C16.5536 7.08329 17.0013 7.53101 17.0013 8.08329V15H23.918C24.4703 15 24.918 15.4477 24.918 16C24.918 16.5522 24.4703 17 23.918 17H17.0013V23.9166C17.0013 24.4689 16.5536 24.9166 16.0013 24.9166C15.449 24.9166 15.0013 24.4689 15.0013 23.9166V17H8.08464C7.53235 17 7.08464 16.5522 7.08464 16C7.08464 15.4477 7.53235 15 8.08464 15H15.0013V8.08329C15.0013 7.53101 15.449 7.08329 16.0013 7.08329Z" fill="#9197AE"/>
</svg>
