<svg width="17" height="16" viewBox="0 0 17 16" fill="none" xmlns="http://www.w3.org/2000/svg">
<path fill-rule="evenodd" clip-rule="evenodd" d="M7.96097 0.481943L7.00966 0.961977L6.74783 0.827678C6.52453 0.713122 6.44571 0.690578 6.21221 0.674504C5.59624 0.632116 5.07729 0.929761 4.80011 1.48443C4.70631 1.67212 4.63424 2.01162 4.65028 2.19007C4.66028 2.30133 4.65357 2.30936 4.49945 2.37049C3.88398 2.61461 3.49759 3.27997 3.60774 3.90611C3.62813 4.02206 3.65397 4.14796 3.66513 4.18587C3.6819 4.24274 3.66041 4.26611 3.5423 4.31927C3.46355 4.35472 3.31511 4.46795 3.21245 4.5709C2.88395 4.90022 2.73674 5.34367 2.80769 5.79015C2.82759 5.91538 2.85296 6.04038 2.86412 6.06789C2.87834 6.10301 2.83964 6.14173 2.73422 6.19779C2.49643 6.32428 2.25759 6.58421 2.12865 6.85677C1.88419 7.37362 1.96955 7.99102 2.34285 8.40589L2.46332 8.53979L1.24769 9.76338C0.199399 10.8185 0.0289735 11.0038 0.00984173 11.1094C-0.049646 11.4377 0.166682 11.704 0.492818 11.704C0.568016 11.704 0.662147 11.6874 0.702071 11.6671C0.741962 11.6469 1.33093 11.0734 2.01087 10.3927L3.24716 9.15502L3.655 9.15389C4.04285 9.15279 4.07377 9.14755 4.28475 9.04717C4.739 8.8311 5.0085 8.47262 5.12266 7.93259C5.13797 7.86006 5.16873 7.84008 5.31601 7.80693C5.86853 7.68247 6.29139 7.27081 6.42498 6.72731L6.47979 6.50433L6.64975 6.46885C7.20207 6.35359 7.64446 5.90901 7.77118 5.3418C7.80419 5.19393 7.82409 5.16305 7.89633 5.14768C8.43418 5.03305 8.7912 4.76245 9.0064 4.30637C9.10638 4.09453 9.11159 4.06348 9.11269 3.67413L9.11382 3.26469L9.99288 2.37963C10.4764 1.89286 10.9123 1.47306 10.9616 1.44678C11.0828 1.38215 11.2724 1.38652 11.3906 1.45658C11.5286 1.53846 11.6325 1.76713 11.6035 1.92531C11.5843 2.02979 11.4748 2.15669 10.9063 2.73294C10.5353 3.10895 10.2152 3.44938 10.1948 3.48944C10.1426 3.59215 10.1489 3.8194 10.207 3.93222C10.2725 4.05938 10.4054 4.16053 10.5405 4.18598C10.7669 4.22863 10.8493 4.17977 11.307 3.73139C11.7595 3.28824 11.8605 3.22801 12.0649 3.27954C12.1894 3.31092 12.3415 3.45645 12.3836 3.58455C12.4572 3.80846 12.414 3.87799 11.8353 4.46711C11.5381 4.76976 11.2768 5.05273 11.2547 5.09595C11.2326 5.13917 11.2136 5.23882 11.2124 5.31736C11.2082 5.59603 11.4249 5.8136 11.7024 5.8094C11.8933 5.8065 11.9537 5.76918 12.2847 5.44959C12.5923 5.15271 12.7014 5.10232 12.8968 5.16705C13.0244 5.20934 13.1693 5.36201 13.2006 5.48707C13.2553 5.70605 13.2007 5.78929 12.6073 6.39131L12.04 6.96679L12.0253 7.14555C12.0027 7.41841 12.1423 7.62344 12.3937 7.68681C12.5893 7.73607 12.7091 7.67697 13.0163 7.37959C13.3393 7.06697 13.48 6.99391 13.6745 7.03773C13.8072 7.06764 13.9642 7.22052 13.9971 7.35181C14.0086 7.39793 14.0079 7.49185 13.9955 7.56051C13.9757 7.67033 13.7584 7.90128 12.1899 9.47988C10.3217 11.3602 10.1415 11.5201 9.72128 11.6713C9.53076 11.7399 9.42886 11.7493 8.67974 11.7682C8.08772 11.7831 7.82552 11.8018 7.76633 11.8334C7.6531 11.8938 4.38616 15.1662 4.32644 15.279C4.30023 15.3286 4.27877 15.4306 4.27877 15.5058C4.27877 15.8266 4.54914 16.0489 4.86857 15.9907C4.97768 15.9709 5.18806 15.7725 6.58767 14.3696L8.18241 12.7711H8.49705H8.8117L10.4064 14.3696C11.806 15.7725 12.0164 15.9709 12.1255 15.9907C12.3463 16.0309 12.5688 15.927 12.666 15.7383C12.7241 15.6255 12.7306 15.3983 12.6786 15.2952C12.6585 15.2551 12.0596 14.636 11.3478 13.9193L10.0537 12.6163L10.2652 12.526C10.708 12.3371 10.8624 12.2028 12.3671 10.6984L13.8291 9.23676L15.0077 10.4225C15.6559 11.0747 16.2266 11.6298 16.276 11.6561C16.5515 11.8031 16.9289 11.6242 16.9858 11.3197C17.034 11.0617 17.032 11.0592 15.7455 9.76338L14.5308 8.53979L14.6565 8.40005C14.8162 8.22257 14.9372 7.95787 14.984 7.68337C15.0812 7.11396 14.7657 6.46685 14.2599 6.19779C14.1545 6.14173 14.1158 6.10301 14.13 6.06789C14.1411 6.04038 14.1665 5.91538 14.1864 5.79015C14.2571 5.3453 14.1084 4.90029 13.7779 4.56783C13.6773 4.46658 13.5306 4.35472 13.4518 4.31927C13.3337 4.26611 13.3122 4.24274 13.329 4.18587C13.4952 3.62243 13.3731 3.09605 12.9855 2.70432C12.8382 2.55548 12.654 2.42595 12.5241 2.37973C12.5194 2.37803 12.5403 2.26644 12.5706 2.13174C12.6448 1.80168 12.5985 1.48623 12.4281 1.16061C12.1615 0.651092 11.6641 0.373758 11.0727 0.404906C10.7589 0.421447 10.4533 0.544774 10.2346 0.743237L10.1036 0.862028L9.72454 0.480376C9.32646 0.079548 9.20616 -0.00289193 9.02348 7.61801e-05C8.94897 0.00127676 8.59813 0.160387 7.96097 0.481943ZM9.17035 1.3579L9.39349 1.58368L8.94532 2.03273L8.49712 2.48181L8.11488 2.0991L7.73265 1.71638L8.30584 1.42604C8.62108 1.26636 8.89437 1.13489 8.91314 1.13393C8.9319 1.13296 9.04766 1.23374 9.17035 1.3579ZM6.28216 1.70264C6.38556 1.75516 8.0268 3.39833 8.08406 3.50665C8.19586 3.71808 8.09987 4.01116 7.88534 4.11341C7.7542 4.17587 7.67346 4.18031 7.54429 4.13205C7.49287 4.11284 7.05812 3.70387 6.5782 3.22327C5.63713 2.28085 5.59478 2.22299 5.6727 1.98591C5.70867 1.87642 5.84648 1.72321 5.93951 1.68923C6.0266 1.65741 6.20706 1.66445 6.28216 1.70264ZM5.22324 3.31775C5.28236 3.34593 5.65274 3.69484 6.0463 4.09313C6.8021 4.85797 6.83469 4.90449 6.78845 5.15208C6.74627 5.37779 6.47889 5.54263 6.24698 5.48587C6.18776 5.4714 5.88338 5.19026 5.38546 4.69015C4.70827 4.01002 4.61262 3.90097 4.59166 3.78501C4.56186 3.6205 4.64351 3.45269 4.80682 3.3426C4.93835 3.25392 5.07247 3.24592 5.22324 3.31775ZM4.38778 5.18029C4.53476 5.24382 5.4298 6.15987 5.4589 6.27656C5.51523 6.5024 5.35729 6.77086 5.13987 6.81879C4.90537 6.87051 4.82416 6.82232 4.34089 6.34472C3.87817 5.88747 3.78055 5.7535 3.78055 5.57588C3.78055 5.44355 3.90537 5.26393 4.04693 5.19253C4.18657 5.12206 4.24798 5.11986 4.38778 5.18029ZM3.66799 7.09559C3.7757 7.15492 4.07407 7.48068 4.11084 7.57912C4.1592 7.70859 4.15488 7.78969 4.09257 7.92156C3.99107 8.13633 3.70087 8.23274 3.48826 8.12232C3.43894 8.09671 3.31375 7.98642 3.21005 7.87727C2.94327 7.59643 2.91338 7.38553 3.10911 7.16556C3.24616 7.01158 3.46551 6.98413 3.66799 7.09559Z" fill="#B1B5C3"/>
</svg>
