<svg width="16" height="16" viewBox="0 0 16 16" fill="none" xmlns="http://www.w3.org/2000/svg">
<path fill-rule="evenodd" clip-rule="evenodd" d="M12.6398 3.15976H2.52865C2.17963 3.15976 1.8967 3.44269 1.8967 3.79171V11.375C1.8967 11.7241 2.17963 12.007 2.52865 12.007H12.6398C12.9888 12.007 13.2717 11.7241 13.2717 11.375V3.79171C13.2717 3.44269 12.9888 3.15976 12.6398 3.15976ZM2.52865 1.89587C1.48161 1.89587 0.632812 2.74467 0.632812 3.79171V11.375C0.632812 12.4221 1.48161 13.2709 2.52865 13.2709H12.6398C13.6868 13.2709 14.5356 12.4221 14.5356 11.375V3.79171C14.5356 2.74467 13.6868 1.89587 12.6398 1.89587H2.52865Z" fill="white"/>
<path fill-rule="evenodd" clip-rule="evenodd" d="M3.30664 4.65098C3.53008 4.38286 3.92856 4.34664 4.19668 4.57007L7.17922 7.05553C7.41358 7.25082 7.75399 7.25082 7.98834 7.05552L10.9709 4.57007C11.239 4.34664 11.6375 4.38286 11.8609 4.65098C12.0844 4.9191 12.0481 5.31758 11.78 5.54102L8.79747 8.02647C8.0944 8.61236 7.07316 8.61236 6.3701 8.02647L3.38756 5.54102C3.11944 5.31758 3.08321 4.9191 3.30664 4.65098Z" fill="white"/>
</svg>
