<svg width="18" height="18" viewBox="0 0 18 18" fill="none" xmlns="http://www.w3.org/2000/svg">
<path fill-rule="evenodd" clip-rule="evenodd" d="M4.5 3C3.67157 3 3 3.67157 3 4.5V13.5C3 14.3284 3.67157 15 4.5 15H13.5C14.3284 15 15 14.3284 15 13.5V9.75C15 9.33579 15.3358 9 15.75 9C16.1642 9 16.5 9.33579 16.5 9.75V13.5C16.5 15.1569 15.1569 16.5 13.5 16.5H4.5C2.84315 16.5 1.5 15.1569 1.5 13.5V4.5C1.5 2.84315 2.84315 1.5 4.5 1.5H8.25C8.66421 1.5 9 1.83579 9 2.25C9 2.66421 8.66421 3 8.25 3H4.5Z" fill="#777E91"/>
<path d="M15.3333 5.16667C15.3333 5.6269 15.7064 6 16.1667 6C16.6269 6 17 5.6269 17 5.16667V1.83333C17 1.3731 16.6269 1 16.1667 1H12.8333C12.3731 1 12 1.3731 12 1.83333C12 2.29357 12.3731 2.66667 12.8333 2.66667L14.1548 2.66667L7 9.82151C7.41667 10.1667 7.41667 10.1667 7.83333 10.5833L8.25 11L15.3333 3.8452V5.16667Z" fill="#777E91"/>
</svg>
