<svg width="26" height="26" viewBox="0 0 26 26" fill="none" xmlns="http://www.w3.org/2000/svg">
<path d="M7 19.6667C7 19.2985 7.29848 19 7.66667 19H18.3333C18.7015 19 19 19.2985 19 19.6667V19.6667C19 20.0349 18.7015 20.3333 18.3333 20.3333H7.66667C7.29848 20.3333 7 20.0349 7 19.6667V19.6667Z" fill="#B1B5C3"/>
<path fill-rule="evenodd" clip-rule="evenodd" d="M16.1381 7.08084C15.8777 6.82049 15.4556 6.82049 15.1953 7.08084L14.6095 7.66661L17 10.0571L17.5858 9.47137C17.8461 9.21102 17.8461 8.78891 17.5858 8.52856L16.1381 7.08084ZM9.6095 12.6666L13.6667 8.60942L16.0572 10.9999L12 15.0571L9.6095 12.6666ZM8.66669 13.6094L8.33333 13.9428V16.3333H10.7239L11.0572 15.9999L8.66669 13.6094ZM14.2525 6.13803C15.0335 5.35698 16.2998 5.35698 17.0809 6.13803L18.5286 7.58575C19.3096 8.3668 19.3096 9.63313 18.5286 10.4142L11.6667 17.2761C11.4166 17.5262 11.0775 17.6666 10.7239 17.6666H8.33333C7.59695 17.6666 7 17.0697 7 16.3333V13.9428C7 13.5891 7.14048 13.25 7.39052 13L14.2525 6.13803Z" fill="#B1B5C3"/>
<rect x="0.5" y="0.5" width="25" height="25" rx="12.5" stroke="#484D57"/>
</svg>
