<svg width="26" height="26" viewBox="0 0 26 26" fill="none" xmlns="http://www.w3.org/2000/svg">
<path fill-rule="evenodd" clip-rule="evenodd" d="M13 7.66665C11.6985 7.66665 10.4988 7.77398 9.53578 7.90116C8.66913 8.01562 8.01562 8.66913 7.90116 9.53578C7.77398 10.4988 7.66665 11.6985 7.66665 13C7.66665 14.3015 7.77398 15.5012 7.90116 16.4642C8.01562 17.3308 8.66913 17.9843 9.53578 18.0988C10.4988 18.226 11.6985 18.3333 13 18.3333C14.3015 18.3333 15.5012 18.226 16.4642 18.0988C17.3308 17.9843 17.9843 17.3308 18.0988 16.4642C18.226 15.5012 18.3333 14.3015 18.3333 13C18.3333 11.6985 18.226 10.4988 18.0988 9.53578C17.9843 8.66913 17.3308 8.01562 16.4642 7.90116C15.5012 7.77398 14.3015 7.66665 13 7.66665ZM9.36121 6.57931C7.89668 6.77273 6.77273 7.89668 6.57931 9.36121C6.44634 10.368 6.33331 11.6275 6.33331 13C6.33331 14.3725 6.44634 15.6319 6.57931 16.6388C6.77273 18.1033 7.89668 19.2272 9.36121 19.4207C10.368 19.5536 11.6275 19.6666 13 19.6666C14.3725 19.6666 15.6319 19.5536 16.6388 19.4207C18.1033 19.2272 19.2272 18.1033 19.4207 16.6388C19.5536 15.6319 19.6666 14.3725 19.6666 13C19.6666 11.6275 19.5536 10.368 19.4207 9.36121C19.2272 7.89668 18.1033 6.77273 16.6388 6.57931C15.6319 6.44634 14.3725 6.33331 13 6.33331C11.6275 6.33331 10.368 6.44634 9.36121 6.57931Z" fill="#B1B5C3"/>
<path d="M11 12.3334C11.7364 12.3334 12.3333 11.7364 12.3333 11C12.3333 10.2636 11.7364 9.66669 11 9.66669C10.2636 9.66669 9.66665 10.2636 9.66665 11C9.66665 11.7364 10.2636 12.3334 11 12.3334Z" fill="#B1B5C3"/>
<path d="M17.0809 13.4715L18.2771 14.6678C18.2358 15.2919 18.1755 15.871 18.1091 16.3854L16.138 14.4144C15.8777 14.154 15.4556 14.154 15.1952 14.4144L13.7475 15.8621C12.9665 16.6431 11.7001 16.6431 10.9191 15.8621L10.8047 15.7477C10.5444 15.4873 10.1223 15.4873 9.86191 15.7477L8.25586 17.3537C8.06981 17.1015 7.94533 16.7987 7.90115 16.4642C7.87706 16.2818 7.85368 16.0909 7.8316 15.8924L8.9191 14.8049C9.70015 14.0238 10.9665 14.0238 11.7475 14.8049L11.8619 14.9193C12.1223 15.1796 12.5444 15.1796 12.8047 14.9193L14.2524 13.4715C15.0335 12.6905 16.2998 12.6905 17.0809 13.4715Z" fill="#B1B5C3"/>
<rect x="0.5" y="0.5" width="25" height="25" rx="12.5" stroke="#484D57"/>
</svg>
