<svg width="44" height="44" viewBox="0 0 44 44" fill="none" xmlns="http://www.w3.org/2000/svg">
<rect width="44" height="44" rx="22" fill="#282B35"/>
<path d="M14.5 30.3333C14.5 29.8731 14.8731 29.5 15.3333 29.5H28.6667C29.1269 29.5 29.5 29.8731 29.5 30.3333C29.5 30.7936 29.1269 31.1667 28.6667 31.1667H15.3333C14.8731 31.1667 14.5 30.7936 14.5 30.3333Z" fill="#B1B5C3"/>
<path fill-rule="evenodd" clip-rule="evenodd" d="M25.9226 14.6012C25.5972 14.2757 25.0695 14.2757 24.7441 14.6012L24.0119 15.3334L27 18.3215L27.7322 17.5893C28.0577 17.2639 28.0577 16.7363 27.7322 16.4108L25.9226 14.6012ZM17.7619 21.5834L22.8334 16.5119L25.8215 19.5L20.75 24.5715L17.7619 21.5834ZM16.5834 22.7619L16.1667 23.1786V26.1667H19.1548L19.5715 25.75L16.5834 22.7619ZM23.5656 13.4227C24.5419 12.4464 26.1248 12.4464 27.1011 13.4227L28.9107 15.2323C29.8871 16.2086 29.8871 17.7915 28.9107 18.7678L20.3333 27.3453C20.0208 27.6578 19.5968 27.8334 19.1548 27.8334H16.1667C15.2462 27.8334 14.5 27.0872 14.5 26.1667V23.1786C14.5 22.7366 14.6756 22.3126 14.9882 22.0001L23.5656 13.4227Z" fill="#B1B5C3"/>
</svg>
