<svg width="32" height="32" viewBox="0 0 32 32" fill="none" xmlns="http://www.w3.org/2000/svg">
<mask id="path-1-inside-1_1716_7576" fill="white">
<path fill-rule="evenodd" clip-rule="evenodd" d="M29.8346 16C29.8346 23.6399 23.6412 29.8333 16.0013 29.8333C8.36136 29.8333 2.16797 23.6399 2.16797 16C2.16797 8.36002 8.36136 2.16663 16.0013 2.16663C23.6412 2.16663 29.8346 8.36002 29.8346 16ZM31.8346 16C31.8346 24.7445 24.7458 31.8333 16.0013 31.8333C7.25679 31.8333 0.167969 24.7445 0.167969 16C0.167969 7.25545 7.25679 0.166626 16.0013 0.166626C24.7458 0.166626 31.8346 7.25545 31.8346 16ZM16.0013 7.08329C16.5536 7.08329 17.0013 7.53101 17.0013 8.08329V15H23.918C24.4703 15 24.918 15.4477 24.918 16C24.918 16.5522 24.4703 17 23.918 17H17.0013V23.9166C17.0013 24.4689 16.5536 24.9166 16.0013 24.9166C15.449 24.9166 15.0013 24.4689 15.0013 23.9166V17H8.08464C7.53235 17 7.08464 16.5522 7.08464 16C7.08464 15.4477 7.53235 15 8.08464 15H15.0013V8.08329C15.0013 7.53101 15.449 7.08329 16.0013 7.08329Z"/>
</mask>
<path d="M17.0013 15H13.0013V19H17.0013V15ZM17.0013 17V13H13.0013V17H17.0013ZM15.0013 17H19.0013V13H15.0013V17ZM15.0013 15V19H19.0013V15H15.0013ZM16.0013 33.8333C25.8504 33.8333 33.8346 25.849 33.8346 16H25.8346C25.8346 21.4308 21.4321 25.8333 16.0013 25.8333V33.8333ZM-1.83203 16C-1.83203 25.849 6.15222 33.8333 16.0013 33.8333V25.8333C10.5705 25.8333 6.16797 21.4308 6.16797 16H-1.83203ZM16.0013 -1.83337C6.15222 -1.83337 -1.83203 6.15088 -1.83203 16H6.16797C6.16797 10.5692 10.5705 6.16663 16.0013 6.16663V-1.83337ZM33.8346 16C33.8346 6.15088 25.8504 -1.83337 16.0013 -1.83337V6.16663C21.4321 6.16663 25.8346 10.5692 25.8346 16H33.8346ZM16.0013 35.8333C26.9549 35.8333 35.8346 26.9536 35.8346 16H27.8346C27.8346 22.5353 22.5367 27.8333 16.0013 27.8333V35.8333ZM-3.83203 16C-3.83203 26.9536 5.04765 35.8333 16.0013 35.8333V27.8333C9.46593 27.8333 4.16797 22.5353 4.16797 16H-3.83203ZM16.0013 -3.83337C5.04765 -3.83337 -3.83203 5.04631 -3.83203 16H4.16797C4.16797 9.46459 9.46593 4.16663 16.0013 4.16663V-3.83337ZM35.8346 16C35.8346 5.04631 26.9549 -3.83337 16.0013 -3.83337V4.16663C22.5367 4.16663 27.8346 9.46459 27.8346 16H35.8346ZM21.0013 8.08329C21.0013 5.32187 18.7627 3.08329 16.0013 3.08329V11.0833C14.3444 11.0833 13.0013 9.74015 13.0013 8.08329H21.0013ZM21.0013 15V8.08329H13.0013V15H21.0013ZM23.918 11H17.0013V19H23.918V11ZM28.918 16C28.918 13.2385 26.6794 11 23.918 11V19C22.2611 19 20.918 17.6568 20.918 16H28.918ZM23.918 21C26.6794 21 28.918 18.7614 28.918 16H20.918C20.918 14.3431 22.2611 13 23.918 13V21ZM17.0013 21H23.918V13H17.0013V21ZM21.0013 23.9166V17H13.0013V23.9166H21.0013ZM16.0013 28.9166C18.7627 28.9166 21.0013 26.6781 21.0013 23.9166H13.0013C13.0013 22.2598 14.3445 20.9166 16.0013 20.9166V28.9166ZM11.0013 23.9166C11.0013 26.6781 13.2399 28.9166 16.0013 28.9166V20.9166C17.6582 20.9166 19.0013 22.2598 19.0013 23.9166H11.0013ZM11.0013 17V23.9166H19.0013V17H11.0013ZM8.08464 21H15.0013V13H8.08464V21ZM3.08464 16C3.08464 18.7614 5.32321 21 8.08464 21V13C9.74149 13 11.0846 14.3431 11.0846 16H3.08464ZM8.08464 11C5.32322 11 3.08464 13.2385 3.08464 16H11.0846C11.0846 17.6568 9.74149 19 8.08464 19V11ZM15.0013 11H8.08464V19H15.0013V11ZM11.0013 8.08329V15H19.0013V8.08329H11.0013ZM16.0013 3.08329C13.2399 3.08329 11.0013 5.32187 11.0013 8.08329H19.0013C19.0013 9.74014 17.6582 11.0833 16.0013 11.0833V3.08329Z" fill="url(#paint0_linear_1716_7576)" mask="url(#path-1-inside-1_1716_7576)"/>
<defs>
<linearGradient id="paint0_linear_1716_7576" x1="27.0697" y1="0.166633" x2="-1.59181" y2="1.48725" gradientUnits="userSpaceOnUse">
<stop stop-color="#7614F3"/>
<stop offset="0.523958" stop-color="#D188FE"/>
<stop offset="1" stop-color="#C073FD"/>
</linearGradient>
</defs>
</svg>
