<svg width="21" height="21" viewBox="0 0 21 21" fill="none" xmlns="http://www.w3.org/2000/svg">
<path d="M3.01075 10.8872L10.4203 14.951C10.4694 14.9781 10.5291 14.9781 10.5783 14.951L17.9878 10.8872C18.0243 10.8672 18.0689 10.8935 18.0689 10.9352V12.0152C18.0689 12.0353 18.0581 12.0537 18.0406 12.0633L10.5257 16.1857C10.5092 16.1948 10.4894 16.1948 10.473 16.1857L2.95814 12.0633C2.9405 12.0537 2.92969 12.0353 2.92969 12.0152V10.9352C2.92958 10.8936 2.97421 10.8672 3.01075 10.8872Z" fill="url(#paint0_linear_151_11435)"/>
<path d="M3.01075 13.6797L10.4203 17.7444C10.4694 17.7714 10.5291 17.7714 10.5783 17.7444L17.9878 13.6797C18.0243 13.6596 18.0689 13.6861 18.0689 13.7278V14.8085C18.0689 14.8285 18.0581 14.8469 18.0406 14.8564L10.5257 18.9782C10.5092 18.9872 10.4894 18.9872 10.473 18.9782L2.95814 14.8564C2.9405 14.8469 2.92969 14.8285 2.92969 14.8085V13.7278C2.92958 13.686 2.97421 13.6596 3.01075 13.6797Z" fill="url(#paint1_linear_151_11435)"/>
<path d="M4.92689 6.35949V6.3596L4.92826 6.36023L7.949 8.01366L10.4277 9.36921C10.4772 9.3963 10.5369 9.39609 10.5863 9.36879L13.1209 7.96452C13.1376 7.95528 13.1578 7.95539 13.1744 7.96473L14.1948 8.54297L14.2218 8.4953L14.1973 8.54433C14.2182 8.55473 14.2189 8.58444 14.1982 8.59568L10.5332 10.6019C10.5169 10.6109 10.497 10.6109 10.4806 10.6019L6.78802 8.58119L6.76177 8.62928L6.78802 8.58119L3.76675 6.92786L3.76654 6.92775L3.75782 6.92292L3.75688 6.9224L3.74365 6.91536L2.95814 6.4856C2.94061 6.47594 2.92969 6.45756 2.92969 6.43751V6.18624C2.92969 6.16619 2.94061 6.14781 2.95814 6.13815L3.76664 5.69589L7.80379 3.48648C7.80578 3.48575 7.80767 3.4847 7.80946 3.48375L10.4808 2.02163C10.4972 2.0127 10.517 2.0126 10.5334 2.02163L16.9912 5.5554C17.0291 5.57619 17.0291 5.63079 16.9912 5.65158L16.006 6.19097C15.9895 6.2 15.9697 6.2 15.9534 6.19097L10.586 3.25422C10.5369 3.22734 10.4774 3.22734 10.4282 3.25422L8.97002 4.05212L8.76538 4.16415C8.75351 4.16363 8.74175 4.16636 8.73094 4.17213L7.66151 4.75688C7.64839 4.75572 7.63484 4.75835 7.62308 4.76486L4.91849 6.2442C4.87534 6.26783 4.87481 6.32967 4.91744 6.35393L4.92689 6.35949ZM4.97131 6.25869C4.97162 6.2588 4.97183 6.25901 4.97215 6.25911L4.95671 6.28568L4.95598 6.2861L4.97131 6.25869Z" fill="url(#paint2_linear_151_11435)"/>
<path d="M14.423 8.56463L14.4219 8.56411L14.3991 8.55172L13.2069 7.87279L13.2058 7.87216L13.1829 7.85977L12.0532 7.21727C12.0161 7.19627 12.0162 7.14304 12.0532 7.12204L12.9289 6.62455C12.9457 6.61499 12.9662 6.6151 12.9829 6.62465L14.2396 7.33928L14.2402 7.3397L14.2409 7.34002L14.2501 7.34495L15.4558 8.03018L15.465 8.03564L15.4664 8.03638L16.268 8.49208C16.2851 8.50184 16.2957 8.52001 16.2957 8.53964V8.90221C16.2957 8.92174 16.2854 8.93969 16.2685 8.94956L15.3192 9.50428C15.3085 9.51068 15.2949 9.50281 15.2949 9.49031V9.15704C15.2949 9.09803 15.2632 9.04354 15.2119 9.01424L14.423 8.56463Z" fill="url(#paint3_linear_151_11435)"/>
<path d="M9.30361 12.7528L9.30287 12.7523L9.28964 12.7454L2.95814 9.27169C2.9405 9.26203 2.92969 9.24366 2.92969 9.22371V8.14378C2.92969 8.1022 2.97431 8.07564 3.01075 8.09569L10.4503 12.1759L10.4614 12.1826L10.4895 12.1355L10.4618 12.1828C10.4844 12.196 10.5125 12.1965 10.5355 12.1838L17.9877 8.09569C18.0242 8.07574 18.0688 8.1022 18.0688 8.14378V9.22381C18.0688 9.24376 18.058 9.26214 18.0404 9.2718L10.5256 13.3943C10.5091 13.4033 10.4893 13.4033 10.4729 13.3943L9.30361 12.7528Z" fill="url(#paint4_linear_151_11435)"/>
<defs>
<linearGradient id="paint0_linear_151_11435" x1="2.92969" y1="23.884" x2="23.1758" y2="18.8641" gradientUnits="userSpaceOnUse">
<stop stop-color="#2EB689"/>
<stop offset="0.473958" stop-color="#2AE7A8"/>
</linearGradient>
<linearGradient id="paint1_linear_151_11435" x1="2.92969" y1="26.6765" x2="23.1758" y2="21.6565" gradientUnits="userSpaceOnUse">
<stop stop-color="#2EB689"/>
<stop offset="0.473958" stop-color="#2AE7A8"/>
</linearGradient>
<linearGradient id="paint2_linear_151_11435" x1="2.92969" y1="23.0518" x2="22.5322" y2="20.2556" gradientUnits="userSpaceOnUse">
<stop stop-color="#2EB689"/>
<stop offset="0.473958" stop-color="#2AE7A8"/>
</linearGradient>
<linearGradient id="paint3_linear_151_11435" x1="12.0254" y1="13.6898" x2="17.9887" y2="12.9229" gradientUnits="userSpaceOnUse">
<stop stop-color="#2EB689"/>
<stop offset="0.473958" stop-color="#2AE7A8"/>
</linearGradient>
<linearGradient id="paint4_linear_151_11435" x1="2.92969" y1="21.0927" x2="23.1757" y2="16.0729" gradientUnits="userSpaceOnUse">
<stop stop-color="#2EB689"/>
<stop offset="0.473958" stop-color="#2AE7A8"/>
</linearGradient>
</defs>
</svg>
