<svg width="41" height="41" viewBox="0 0 41 41" fill="none" xmlns="http://www.w3.org/2000/svg">
<path fill-rule="evenodd" clip-rule="evenodd" d="M32.457 34.1673C33.4005 34.1673 34.1654 33.4025 34.1654 32.459C34.1654 31.5155 33.4005 30.7507 32.457 30.7507C31.5135 30.7507 30.7487 31.5155 30.7487 32.459C30.7487 33.4025 31.5135 34.1673 32.457 34.1673ZM32.457 37.584C35.2875 37.584 37.582 35.2894 37.582 32.459C37.582 29.6285 35.2875 27.334 32.457 27.334C29.6266 27.334 27.332 29.6285 27.332 32.459C27.332 35.2894 29.6266 37.584 32.457 37.584Z" fill="#B1B5C3"/>
<path fill-rule="evenodd" clip-rule="evenodd" d="M26.4779 6.83268C24.1192 6.83268 22.207 8.7448 22.207 11.1035V29.8952C22.207 34.1409 18.7652 37.5827 14.5195 37.5827C10.2738 37.5827 6.83203 34.1409 6.83203 29.8952V17.0827C6.83203 16.1392 7.59688 15.3743 8.54036 15.3743C9.48385 15.3743 10.2487 16.1392 10.2487 17.0827V29.8952C10.2487 32.2539 12.1608 34.166 14.5195 34.166C16.8782 34.166 18.7904 32.2539 18.7904 29.8952V11.1035C18.7904 6.85783 22.2322 3.41602 26.4779 3.41602C30.7236 3.41602 34.1654 6.85783 34.1654 11.1035V22.2077C34.1654 23.1512 33.4005 23.916 32.457 23.916C31.5135 23.916 30.7487 23.1512 30.7487 22.2077V11.1035C30.7487 8.7448 28.8366 6.83268 26.4779 6.83268Z" fill="#B1B5C3"/>
<path d="M7.0644 4.23818C7.72361 3.10811 9.35643 3.10811 10.0156 4.23818L13.0205 9.38943C13.6849 10.5283 12.8634 11.9585 11.5449 11.9585H5.53512C4.21665 11.9585 3.39516 10.5283 4.0595 9.38943L7.0644 4.23818Z" fill="#B1B5C3"/>
</svg>
