<svg width="37" height="37" viewBox="0 0 37 37" fill="none" xmlns="http://www.w3.org/2000/svg">
<path fill-rule="evenodd" clip-rule="evenodd" d="M18.5 20.0423C12.5399 20.0423 7.70833 24.8739 7.70833 30.834V33.9173C7.70833 34.7688 7.01811 35.459 6.16667 35.459C5.31523 35.459 4.625 34.7688 4.625 33.9173V30.834C4.625 23.171 10.837 16.959 18.5 16.959C26.1629 16.959 32.375 23.171 32.375 30.834V33.9173C32.375 34.7688 31.6848 35.459 30.8333 35.459C29.9819 35.459 29.2917 34.7688 29.2917 33.9173V30.834C29.2917 24.8739 24.4601 20.0423 18.5 20.0423Z" fill="#B1B5C3"/>
<path fill-rule="evenodd" clip-rule="evenodd" d="M18.5 16.9577C21.9058 16.9577 24.6667 14.1968 24.6667 10.791C24.6667 7.38526 21.9058 4.62435 18.5 4.62435C15.0942 4.62435 12.3333 7.38526 12.3333 10.791C12.3333 14.1968 15.0942 16.9577 18.5 16.9577ZM18.5 20.041C23.6086 20.041 27.75 15.8996 27.75 10.791C27.75 5.68238 23.6086 1.54102 18.5 1.54102C13.3914 1.54102 9.25 5.68238 9.25 10.791C9.25 15.8996 13.3914 20.041 18.5 20.041Z" fill="#B1B5C3"/>
</svg>
