<svg width="34" height="35" viewBox="0 0 34 35" fill="none" xmlns="http://www.w3.org/2000/svg">
<path d="M17.0007 3.35547C16.2182 3.35547 15.584 3.98973 15.584 4.77214C15.584 5.55454 16.2182 6.1888 17.0007 6.1888C17.7831 6.1888 18.4173 5.55454 18.4173 4.77214C18.4173 3.98973 17.7831 3.35547 17.0007 3.35547Z" fill="#777E91"/>
<path d="M17.0007 28.8555C16.2182 28.8555 15.584 29.4897 15.584 30.2721C15.584 31.0545 16.2182 31.6888 17.0007 31.6888C17.7831 31.6888 18.4173 31.0545 18.4173 30.2721C18.4173 29.4897 17.7831 28.8555 17.0007 28.8555Z" fill="#777E91"/>
<path d="M29.7507 16.1055C30.5331 16.1055 31.1673 16.7397 31.1673 17.5221C31.1673 18.3045 30.5331 18.9388 29.7507 18.9388C28.9682 18.9388 28.334 18.3045 28.334 17.5221C28.334 16.7397 28.9682 16.1055 29.7507 16.1055Z" fill="#777E91"/>
<path d="M5.66732 17.5221C5.66732 16.7397 5.03305 16.1055 4.25065 16.1055C3.46825 16.1055 2.83398 16.7397 2.83398 17.5221C2.83398 18.3045 3.46825 18.9388 4.25065 18.9388C5.03305 18.9388 5.66732 18.3045 5.66732 17.5221Z" fill="#777E91"/>
<path d="M25.0146 7.50493C25.5678 6.95169 26.4648 6.95169 27.0181 7.50493C27.5713 8.05817 27.5713 8.95515 27.0181 9.5084C26.4648 10.0616 25.5678 10.0616 25.0146 9.5084C24.4614 8.95515 24.4614 8.05817 25.0146 7.50493Z" fill="#777E91"/>
<path d="M8.9867 25.536C8.43346 24.9827 7.53647 24.9827 6.98323 25.536C6.42999 26.0892 6.42999 26.9862 6.98323 27.5394C7.53647 28.0927 8.43346 28.0927 8.9867 27.5394C9.53994 26.9862 9.53994 26.0892 8.9867 25.536Z" fill="#777E91"/>
<path d="M27.018 25.5361C27.5713 26.0893 27.5713 26.9863 27.018 27.5396C26.4648 28.0928 25.5678 28.0928 25.0146 27.5396C24.4613 26.9863 24.4613 26.0893 25.0146 25.5361C25.5678 24.9828 26.4648 24.9828 27.018 25.5361Z" fill="#777E91"/>
<path d="M8.98683 9.50818C9.54007 8.95494 9.54007 8.05796 8.98683 7.50471C8.43359 6.95147 7.53661 6.95147 6.98336 7.50471C6.43012 8.05796 6.43012 8.95494 6.98336 9.50818C7.5366 10.0614 8.43359 10.0614 8.98683 9.50818Z" fill="#777E91"/>
<path fill-rule="evenodd" clip-rule="evenodd" d="M17.0007 20.3555C18.5655 20.3555 19.834 19.0869 19.834 17.5221C19.834 15.9573 18.5655 14.6888 17.0007 14.6888C15.4358 14.6888 14.1673 15.9573 14.1673 17.5221C14.1673 19.0869 15.4358 20.3555 17.0007 20.3555ZM17.0007 23.1888C20.1303 23.1888 22.6673 20.6517 22.6673 17.5221C22.6673 14.3925 20.1303 11.8555 17.0007 11.8555C13.871 11.8555 11.334 14.3925 11.334 17.5221C11.334 20.6517 13.871 23.1888 17.0007 23.1888Z" fill="#777E91"/>
</svg>
