<svg width="22" height="20" viewBox="0 0 22 20" fill="none" xmlns="http://www.w3.org/2000/svg">
<path d="M10.0811 1.12723C10.4285 0.322174 11.57 0.322174 11.9174 1.12723L14.0974 6.17911C14.2445 6.52 14.5684 6.75132 14.9386 6.77993L20.5292 7.21192C21.4262 7.28123 21.7826 8.40729 21.0888 8.98008L16.8845 12.4514C16.5879 12.6962 16.458 13.0894 16.5504 13.4627L17.8443 18.6911C18.0571 19.5509 17.1296 20.2424 16.3663 19.7931L11.5066 16.9321C11.1935 16.7478 10.805 16.7478 10.4919 16.9321L5.63219 19.7931C4.86889 20.2424 3.94136 19.5509 4.15415 18.6911L5.44809 13.4627C5.54048 13.0894 5.41061 12.6962 5.11405 12.4514L0.909665 8.98008C0.215906 8.40729 0.57231 7.28123 1.4693 7.21192L7.05995 6.77993C7.43011 6.75132 7.75396 6.52 7.90107 6.17911L10.0811 1.12723Z" fill="#FFB443"/>
</svg>
