<svg width="24" height="24" viewBox="0 0 24 24" fill="none" xmlns="http://www.w3.org/2000/svg">
<path d="M10 6C8.89543 6 8 5.10457 8 4C8 2.89543 8.89543 2 10 2L20 2C21.1046 2 22 2.89543 22 4C22 5.10457 21.1046 6 20 6L10 6Z" fill="#E6E8EC"/>
<path d="M14 14C12.8954 14 12 13.1046 12 12C12 10.8954 12.8954 10 14 10L20 10C21.1046 10 22 10.8954 22 12C22 13.1046 21.1046 14 20 14L14 14Z" fill="#E6E8EC"/>
<path d="M4 22C2.89543 22 2 21.1046 2 20C2 18.8954 2.89543 18 4 18L20 18C21.1046 18 22 18.8954 22 20C22 21.1046 21.1046 22 20 22L4 22Z" fill="#E6E8EC"/>
</svg>
