<svg width="16" height="20" viewBox="0 0 16 20" fill="none" xmlns="http://www.w3.org/2000/svg">
<path fill-rule="evenodd" clip-rule="evenodd" d="M0.5 4.16671C0.5 2.32576 1.99238 0.833374 3.83333 0.833374H10.786C11.67 0.833374 12.5179 1.18456 13.143 1.80968L14.5237 3.1904C15.1488 3.81552 15.5 4.66336 15.5 5.54742V15.8334C15.5 17.6743 14.0076 19.1667 12.1667 19.1667H3.83333C1.99238 19.1667 0.5 17.6743 0.5 15.8334V4.16671ZM13.8333 6.66671V15.8334C13.8333 16.7538 13.0871 17.5 12.1667 17.5H3.83333C2.91286 17.5 2.16667 16.7538 2.16667 15.8334V4.16671C2.16667 3.24623 2.91286 2.50004 3.83333 2.50004H9.66667V4.16671C9.66667 5.54742 10.786 6.66671 12.1667 6.66671H13.8333ZM13.7409 5.00004C13.659 4.7647 13.5247 4.54844 13.3452 4.36891L11.9645 2.9882C11.7849 2.80867 11.5687 2.67433 11.3333 2.59249V4.16671C11.3333 4.62694 11.7064 5.00004 12.1667 5.00004H13.7409Z" fill="#E6E8EC"/>
<path fill-rule="evenodd" clip-rule="evenodd" d="M11.0886 9.4107C11.414 9.73614 11.414 10.2638 11.0886 10.5892L7.75527 13.9225C7.42983 14.248 6.9022 14.248 6.57676 13.9225L4.91009 12.2559C4.58466 11.9304 4.58466 11.4028 4.91009 11.0774C5.23553 10.7519 5.76317 10.7519 6.0886 11.0774L7.16602 12.1548L9.91009 9.4107C10.2355 9.08527 10.7632 9.08527 11.0886 9.4107Z" fill="#E6E8EC"/>
</svg>
