<svg width="36" height="36" viewBox="0 0 36 36" fill="none" xmlns="http://www.w3.org/2000/svg">
<path d="M5.1624 18.6629L17.8645 25.6294C17.9487 25.6759 18.0509 25.6759 18.1354 25.6294L30.8374 18.6629C30.8999 18.6285 30.9764 18.6737 30.9764 18.7452V20.5966C30.9764 20.631 30.9578 20.6625 30.9278 20.6791L18.0452 27.7461C18.0169 27.7615 17.9829 27.7615 17.9548 27.7461L5.07222 20.6791C5.04198 20.6625 5.02344 20.631 5.02344 20.5966V18.7452C5.02326 18.6739 5.09976 18.6285 5.1624 18.6629Z" fill="#01CC7F"/>
<path d="M5.1624 23.45L17.8645 30.418C17.9487 30.4644 18.0509 30.4644 18.1354 30.418L30.8374 23.45C30.8999 23.4156 30.9764 23.461 30.9764 23.5325V25.385C30.9764 25.4194 30.9578 25.4509 30.9278 25.4673L18.0452 32.5332C18.0169 32.5487 17.9829 32.5487 17.9548 32.5332L5.07222 25.4673C5.04198 25.4509 5.02344 25.4194 5.02344 25.385V23.5325C5.02326 23.4608 5.09976 23.4156 5.1624 23.45Z" fill="#01CC7F"/>
<path d="M8.44722 10.9011L8.44956 10.9024L17.8772 16.0606C17.962 16.1071 18.0644 16.1067 18.149 16.0599L22.4941 13.6526C22.5227 13.6368 22.5574 13.6369 22.5859 13.653L24.3351 14.6442L24.3814 14.5625L24.3394 14.6466C24.3752 14.6644 24.3763 14.7153 24.3409 14.7346L18.058 18.1738C18.0301 18.1893 17.996 18.1893 17.9678 18.1738L11.6377 14.7097L6.4584 11.8755L6.4431 11.867L6.44148 11.8661L6.4188 11.854L5.07222 11.1173C5.04216 11.1007 5.02344 11.0692 5.02344 11.0349V10.6041C5.02344 10.5697 5.04216 10.5382 5.07222 10.5217L13.379 5.97597C13.3825 5.97471 13.3857 5.97291 13.3888 5.97129L17.9681 3.46479C17.9964 3.44949 18.0302 3.44931 18.0583 3.46479L29.1289 9.52269C29.1938 9.55833 29.1938 9.65193 29.1289 9.68757L27.4399 10.6122C27.4117 10.6277 27.3778 10.6277 27.3497 10.6122L18.1485 5.57781C18.0644 5.53173 17.9624 5.53173 17.878 5.57781L15.0275 7.13769C15.0071 7.13679 14.987 7.14147 14.9684 7.15137L13.1351 8.15379C13.1126 8.15181 13.0894 8.15631 13.0693 8.16747L8.43282 10.7035C8.35884 10.744 8.35794 10.85 8.43102 10.8916L8.44722 10.9011ZM8.52336 10.7283C8.5239 10.7285 8.52426 10.7289 8.5248 10.729L8.49834 10.7746L8.49708 10.7753L8.52336 10.7283Z" fill="#01CC7F"/>
<path d="M24.7263 14.6815L24.7245 14.6806L24.6852 14.6593L22.6415 13.4955L22.6397 13.4944L22.6005 13.4731L20.6637 12.3717C20.6001 12.3357 20.6003 12.2445 20.6637 12.2085L22.1649 11.3556C22.1937 11.3392 22.2289 11.3394 22.2576 11.3558L24.4118 12.5809L24.4129 12.5816L24.4141 12.5821L24.4298 12.5906L26.4967 13.7653L26.5126 13.7746L26.5149 13.7759L27.889 14.5571C27.9184 14.5738 27.9366 14.605 27.9366 14.6386V15.2602C27.9366 15.2937 27.9189 15.3244 27.8899 15.3414L26.2626 16.2923C26.2442 16.3033 26.221 16.2898 26.221 16.2684V15.697C26.221 15.5959 26.1666 15.5025 26.0786 15.4522L24.7263 14.6815Z" fill="#01CC7F"/>
<path d="M15.9502 21.8608L15.9489 21.8601L15.9262 21.8482L5.07222 15.8933C5.04198 15.8767 5.02344 15.8452 5.02344 15.811V13.9597C5.02344 13.8884 5.09994 13.8429 5.1624 13.8773L17.9159 20.8719L17.935 20.8834C17.9739 20.9061 18.0225 20.9072 18.0619 20.8854L30.8372 13.8773C30.8997 13.8431 30.9762 13.8884 30.9762 13.9597V15.8112C30.9762 15.8454 30.9577 15.8769 30.9276 15.8934L18.045 22.9606C18.0167 22.9761 17.9827 22.9761 17.9546 22.9606L15.9502 21.8608Z" fill="#01CC7F"/>
</svg>
