<svg width="20" height="16" viewBox="0 0 20 16" fill="none" xmlns="http://www.w3.org/2000/svg">
<path fill-rule="evenodd" clip-rule="evenodd" d="M16.6673 2.16667H3.33398C2.87375 2.16667 2.50065 2.53976 2.50065 3V13C2.50065 13.4602 2.87375 13.8333 3.33398 13.8333H16.6673C17.1276 13.8333 17.5006 13.4602 17.5006 13V3C17.5006 2.53976 17.1276 2.16667 16.6673 2.16667ZM3.33398 0.5C1.95327 0.5 0.833984 1.61929 0.833984 3V13C0.833984 14.3807 1.95327 15.5 3.33398 15.5H16.6673C18.048 15.5 19.1673 14.3807 19.1673 13V3C19.1673 1.61929 18.048 0.5 16.6673 0.5H3.33398Z" fill="white"/>
<path fill-rule="evenodd" clip-rule="evenodd" d="M4.35919 4.13318C4.65382 3.77962 5.17929 3.73185 5.53286 4.02648L9.46588 7.30401C9.77492 7.56154 10.2238 7.56154 10.5329 7.304L14.4659 4.02648C14.8194 3.73185 15.3449 3.77962 15.6396 4.13318C15.9342 4.48674 15.8864 5.01222 15.5329 5.30685L11.5998 8.58437C10.6727 9.35697 9.32603 9.35697 8.39891 8.58437L4.46588 5.30685C4.11232 5.01222 4.06455 4.48674 4.35919 4.13318Z" fill="white"/>
</svg>
