<svg width="16" height="16" viewBox="0 0 16 16" fill="none" xmlns="http://www.w3.org/2000/svg">
<path d="M11.9901 9.67004C12.0051 9.91955 12.2656 10.0878 12.4773 9.95501C13.7928 9.12972 14.6673 7.66652 14.6673 5.99906C14.6673 3.42174 12.578 1.3324 10.0006 1.3324C8.33318 1.3324 6.86999 2.20693 6.0447 3.52236C5.91186 3.73409 6.08016 3.9946 6.32967 4.0096C9.31356 4.18899 11.8107 6.68873 11.9901 9.67004Z" fill="#3772FF"/>
<path d="M10.6673 9.99906C10.6673 12.5764 8.57798 14.6657 6.00065 14.6657C3.42332 14.6657 1.33398 12.5764 1.33398 9.99906C1.33398 7.42174 3.42332 5.3324 6.00065 5.3324C8.57798 5.3324 10.6673 7.42174 10.6673 9.99906Z" fill="#3772FF"/>
</svg>
