<svg width="18" height="18" viewBox="0 0 18 18" fill="none" xmlns="http://www.w3.org/2000/svg">
<path fill-rule="evenodd" clip-rule="evenodd" d="M8.19058 11.5006C8.65049 11.4832 9.03739 11.842 9.05476 12.3019C9.0939 13.3387 9.14887 14.0954 9.20292 14.638C9.25615 15.1723 9.57872 15.4938 10.0284 15.5488C10.5586 15.6136 11.3065 15.6666 12.3329 15.6666C13.3593 15.6666 14.1073 15.6136 14.6375 15.5488C15.0869 15.4938 15.4096 15.1722 15.4629 14.6378C15.5632 13.6306 15.6662 11.8907 15.6662 8.99998C15.6662 6.1093 15.5632 4.36932 15.4629 3.36221C15.4096 2.82775 15.0869 2.50612 14.6375 2.45117C14.1073 2.38636 13.3593 2.33331 12.3329 2.33331C11.3065 2.33331 10.5586 2.38636 10.0284 2.45117C9.57872 2.50614 9.25615 2.82763 9.20292 3.36195C9.14887 3.90452 9.0939 4.66126 9.05476 5.69808C9.03739 6.15799 8.65049 6.51675 8.19058 6.49939C7.73067 6.48202 7.37191 6.09512 7.38928 5.63521C7.42945 4.57101 7.48641 3.7795 7.54447 3.19674C7.66651 1.9716 8.52068 0.956397 9.82614 0.796817C10.4338 0.722534 11.2503 0.666645 12.3329 0.666645C13.4156 0.666645 14.232 0.722537 14.8397 0.796825C16.1453 0.956427 16.9993 1.9721 17.1213 3.197C17.2288 4.27555 17.3329 6.07371 17.3329 8.99998C17.3329 11.9263 17.2288 13.7244 17.1213 14.803C16.9993 16.0279 16.1453 17.0435 14.8397 17.2031C14.232 17.2774 13.4156 17.3333 12.3329 17.3333C11.2503 17.3333 10.4338 17.2774 9.82615 17.2031C8.52069 17.0436 7.66651 16.0284 7.54447 14.8032C7.48641 14.2205 7.42945 13.4289 7.38928 12.3647C7.37191 11.9048 7.73067 11.5179 8.19058 11.5006Z" fill="#E6E8EC"/>
<path fill-rule="evenodd" clip-rule="evenodd" d="M5.00527 11.3274C5.33071 11.6528 5.33071 12.1805 5.00527 12.5059C4.67983 12.8314 4.1522 12.8314 3.82676 12.5059L0.910093 9.58926C0.584656 9.26382 0.584656 8.73618 0.910093 8.41074L3.82676 5.49408C4.1522 5.16864 4.67983 5.16864 5.00527 5.49408C5.33071 5.81951 5.33071 6.34715 5.00527 6.67259L3.51119 8.16667H11.4993C11.9596 8.16667 12.3327 8.53976 12.3327 9C12.3327 9.46024 11.9596 9.83333 11.4993 9.83333L3.51119 9.83333L5.00527 11.3274Z" fill="#E6E8EC"/>
</svg>
