<svg width="20" height="20" viewBox="0 0 20 20" fill="none" xmlns="http://www.w3.org/2000/svg">
<path fill-rule="evenodd" clip-rule="evenodd" d="M9.99935 3.33329C8.37249 3.33329 6.87282 3.46746 5.6691 3.62644C4.58579 3.76951 3.7689 4.5864 3.62583 5.66971C3.46685 6.87343 3.33268 8.3731 3.33268 9.99996C3.33268 11.6268 3.46685 13.1265 3.62583 14.3302C3.7689 15.4135 4.58579 16.2304 5.6691 16.3735C6.87282 16.5325 8.37249 16.6666 9.99935 16.6666C11.6262 16.6666 13.1259 16.5325 14.3296 16.3735C15.4129 16.2304 16.2298 15.4135 16.3729 14.3302C16.5318 13.1265 16.666 11.6268 16.666 9.99996C16.666 8.3731 16.5318 6.87343 16.3729 5.66971C16.2298 4.5864 15.4129 3.76951 14.3296 3.62644C13.1259 3.46746 11.6262 3.33329 9.99935 3.33329ZM5.45088 1.97412C3.62022 2.2159 2.21529 3.62083 1.97351 5.45149C1.80729 6.71003 1.66602 8.28435 1.66602 9.99996C1.66602 11.7156 1.80729 13.2899 1.97351 14.5484C2.21529 16.3791 3.62022 17.784 5.45088 18.0258C6.70942 18.192 8.28374 18.3333 9.99935 18.3333C11.715 18.3333 13.2893 18.192 14.5478 18.0258C16.3785 17.784 17.7834 16.3791 18.0252 14.5484C18.1914 13.2899 18.3327 11.7156 18.3327 9.99996C18.3327 8.28435 18.1914 6.71003 18.0252 5.45149C17.7834 3.62083 16.3785 2.2159 14.5478 1.97412C13.2893 1.8079 11.715 1.66663 9.99935 1.66663C8.28374 1.66663 6.70942 1.8079 5.45088 1.97412Z" fill="#E6E8EC"/>
<path d="M7.49953 9.16671C8.42001 9.16671 9.1662 8.42052 9.1662 7.50004C9.1662 6.57957 8.42001 5.83337 7.49953 5.83337C6.57906 5.83337 5.83287 6.57957 5.83287 7.50004C5.83287 8.42052 6.57906 9.16671 7.49953 9.16671Z" fill="#E6E8EC"/>
<path d="M15.1006 10.5895L16.5959 12.0847C16.5443 12.8649 16.469 13.5888 16.3859 14.2318L13.9221 11.768C13.5967 11.4425 13.069 11.4425 12.7436 11.768L10.934 13.5776C9.95765 14.5539 8.37474 14.5539 7.39843 13.5776L7.25545 13.4346C6.93001 13.1092 6.40238 13.1092 6.07694 13.4346L4.06939 15.4422C3.83682 15.1269 3.68122 14.7484 3.626 14.3303C3.59588 14.1023 3.56665 13.8636 3.53906 13.6155L4.89843 12.2561C5.87474 11.2798 7.45765 11.2798 8.43396 12.2561L8.57694 12.3991C8.90238 12.7245 9.43001 12.7245 9.75545 12.3991L11.5651 10.5895C12.5414 9.61314 14.1243 9.61314 15.1006 10.5895Z" fill="#E6E8EC"/>
</svg>
