<svg width="20" height="16" viewBox="0 0 20 16" fill="none" xmlns="http://www.w3.org/2000/svg">
<path fill-rule="evenodd" clip-rule="evenodd" d="M1.66732 11.3334C1.20708 11.3334 0.833984 11.7065 0.833984 12.1667C0.833984 12.6269 1.20708 13 1.66732 13H10.834C11.2942 13 11.6673 12.6269 11.6673 12.1667C11.6673 11.7065 11.2942 11.3334 10.834 11.3334H1.66732ZM15.834 11.3334C15.3737 11.3334 15.0006 11.7065 15.0006 12.1667C15.0006 12.6269 15.3737 13 15.834 13H18.334C18.7942 13 19.1673 12.6269 19.1673 12.1667C19.1673 11.7065 18.7942 11.3334 18.334 11.3334H15.834Z" fill="#E6E8EC"/>
<path fill-rule="evenodd" clip-rule="evenodd" d="M13.3333 13.8334C14.2538 13.8334 15 13.0872 15 12.1667C15 11.2462 14.2538 10.5 13.3333 10.5C12.4129 10.5 11.6667 11.2462 11.6667 12.1667C11.6667 13.0872 12.4129 13.8334 13.3333 13.8334ZM13.3333 15.5C15.1743 15.5 16.6667 14.0077 16.6667 12.1667C16.6667 10.3258 15.1743 8.83337 13.3333 8.83337C11.4924 8.83337 10 10.3258 10 12.1667C10 14.0077 11.4924 15.5 13.3333 15.5Z" fill="#E6E8EC"/>
<path fill-rule="evenodd" clip-rule="evenodd" d="M1.66732 3C1.20708 3 0.833984 3.3731 0.833984 3.83333C0.833984 4.29357 1.20708 4.66667 1.66732 4.66667H4.16732C4.62755 4.66667 5.00065 4.29357 5.00065 3.83333C5.00065 3.3731 4.62755 3 4.16732 3H1.66732ZM9.16732 3C8.70708 3 8.33398 3.3731 8.33398 3.83333C8.33398 4.29357 8.70708 4.66667 9.16732 4.66667H18.334C18.7942 4.66667 19.1673 4.29357 19.1673 3.83333C19.1673 3.3731 18.7942 3 18.334 3H9.16732Z" fill="#E6E8EC"/>
<path fill-rule="evenodd" clip-rule="evenodd" d="M6.66732 5.5C7.58779 5.5 8.33398 4.75381 8.33398 3.83333C8.33398 2.91286 7.58779 2.16667 6.66732 2.16667C5.74684 2.16667 5.00065 2.91286 5.00065 3.83333C5.00065 4.75381 5.74684 5.5 6.66732 5.5ZM6.66732 7.16667C8.50827 7.16667 10.0007 5.67428 10.0007 3.83333C10.0007 1.99238 8.50827 0.5 6.66732 0.5C4.82637 0.5 3.33398 1.99238 3.33398 3.83333C3.33398 5.67428 4.82637 7.16667 6.66732 7.16667Z" fill="#E6E8EC"/>
</svg>
