<svg width="20" height="20" viewBox="0 0 20 20" fill="none" xmlns="http://www.w3.org/2000/svg">
<path fill-rule="evenodd" clip-rule="evenodd" d="M8.33268 15V17.5C8.33268 17.9602 8.70578 18.3333 9.16602 18.3333H10.8327C11.2929 18.3333 11.666 17.9602 11.666 17.5V15H13.3327V17.5C13.3327 18.8807 12.2134 20 10.8327 20H9.16602C7.7853 20 6.66602 18.8807 6.66602 17.5V15H8.33268Z" fill="#E6E8EC"/>
<path fill-rule="evenodd" clip-rule="evenodd" d="M12.5007 11.0711L13.1249 10.5707C14.2713 9.65168 15.0007 8.24491 15.0007 6.66667C15.0007 3.90524 12.7621 1.66667 10.0007 1.66667C7.23923 1.66667 5.00065 3.90524 5.00065 6.66667C5.00065 8.24491 5.72995 9.65168 6.87643 10.5707L7.50065 11.0711V13.3333C7.50065 13.7936 7.87375 14.1667 8.33398 14.1667H11.6673C12.1276 14.1667 12.5007 13.7936 12.5007 13.3333V11.0711ZM14.1673 11.8711V13.3333C14.1673 14.714 13.048 15.8333 11.6673 15.8333H8.33398C6.95327 15.8333 5.83398 14.714 5.83398 13.3333V11.8711C4.30988 10.6494 3.33398 8.77199 3.33398 6.66667C3.33398 2.98477 6.31875 0 10.0007 0C13.6825 0 16.6673 2.98477 16.6673 6.66667C16.6673 8.77199 15.6914 10.6494 14.1673 11.8711Z" fill="#E6E8EC"/>
<path d="M8.92259 6.91076C8.59715 6.58533 8.06951 6.58533 7.74408 6.91076C7.41864 7.2362 7.41864 7.76384 7.74408 8.08928L9.16667 9.51186V14.1667H10.8333V9.51186L12.2559 8.08928C12.5814 7.76384 12.5814 7.2362 12.2559 6.91076C11.9305 6.58533 11.4028 6.58533 11.0774 6.91076L10 7.98818L8.92259 6.91076Z" fill="#E6E8EC"/>
</svg>
